<?xml version="1.0" encoding="UTF-8" standalone="no"?>
<svg
   xmlns:svg="http://www.w3.org/2000/svg"
   xmlns="http://www.w3.org/2000/svg"
   xmlns:sodipodi="http://sodipodi.sourceforge.net/DTD/sodipodi-0.dtd"
   xmlns:inkscape="http://www.inkscape.org/namespaces/inkscape"
   version="1.1"
   width="32"
   height="64"
   viewBox="0 0 32 64"
   xml:space="preserve"
   sodipodi:docname="rotate-up.svg"
   inkscape:version="0.92.4 (unknown)">
  <rect
      style="opacity:0;fill:#ffffff"
      width="32"
      height="64"
      x="0"
      y="0"/>
  <g>
    <path
        style="fill:#ffffff"
        d="m 24,21.816 c 2.2,0 2.727,-1.273 1.172,-2.828 l -6.344,-6.345 c -1.556,-1.556 -4.101,-1.556 -5.657,0 L 6.828,18.986 C 5.273,20.542 5.8,21.815 8,21.815 Z"
        inkscape:connector-curvature="0"/>
    <path
        style="opacity:0.6;fill:#ffffff"
        d="m 24,35.096 c 2.2,0 2.727,-1.273 1.172,-2.828 l -6.344,-6.345 c -1.556,-1.556 -4.101,-1.556 -5.657,0 L 6.828,32.266 C 5.273,33.822 5.8,35.094 8,35.095 Z"
        inkscape:connector-curvature="0"/>
    <path
        style="opacity:0.3;fill:#ffffff"
        d="m 24,48.969 c 2.2,0 2.727,-1.273 1.172,-2.828 l -6.344,-6.345 c -1.556,-1.556 -4.101,-1.556 -5.657,0 L 6.828,46.139 C 5.273,47.695 5.8,48.968 8,48.968 Z"
        inkscape:connector-curvature="0"/>
  </g>
</svg>
