<?xml version="1.0" encoding="utf-8" standalone="no"?>
<svg version="1.0" width="32" height="64" xmlns="http://www.w3.org/2000/svg">
  <rect style="fill:none;opacity:0" width="32" height="64"/>
  <g style="fill:#ffffff">
    <path d="m 24,21.8 c 2.2,0 2.7,-1.3 1.2,-2.8 l -6.3,-6.3 c -1.6,-1.6 -4.1,-1.6 -5.7,0 L 6.8,19 C 5.3,20.5 5.8,21.8 8,21.8 z"/>
    <path style="opacity:0.6" d="m 24,35.1 c 2.2,0 2.7,-1.3 1.2,-2.8 l -6.3,-6.3 c -1.6,-1.6 -4.1,-1.6 -5.7,0 L 6.8,32.3 C 5.3,33.8 5.8,35.1 8,35.1 z"/>
    <path style="opacity:0.3" d="m 24,49 c 2.2,0 2.7,-1.3 1.2,-2.8 l -6.3,-6.3 c -1.6,-1.6 -4.1,-1.6 -5.7,0 L 6.8,46.1 C 5.3,47.7 5.8,49 8,49 z"/>
  </g>
</svg>
