<?xml version="1.0" encoding="utf-8" standalone="no"?>
<svg version="1.0" width="32" height="64" xmlns="http://www.w3.org/2000/svg">
  <rect style="fill:none;opacity:0" width="32" height="64"/>
  <g style="fill:#ffffff">
    <path style="opacity:0.3" d="m 8,15 c -2.2,0 -2.7,1.3 -1.2,2.9 l 6.3,6.3 c 1.6,1.6 4.1,1.6 5.7,0 l 6.3,-6.3 C 26.7,16.3 26.2,15 24,15 z"/>
    <path style="opacity:0.6" d="m 8,28.9 c -2.2,0 -2.7,1.3 -1.2,2.8 l 6.3,6.3 c 1.6,1.6 4.1,1.6 5.7,0 l 6.3,-6.3 C 26.7,30.2 26.2,28.9 24,28.9 z"/>
    <path d="m 8,42.2 c -2.2,0 -2.7,1.3 -1.2,2.8 l 6.3,6.3 c 1.6,1.6 4.1,1.6 5.7,0 l 6.3,-6.3 C 26.7,43.5 26.2,42.2 24,42.2 z"/>
  </g>
</svg>
