<?xml version="1.0" encoding="utf-8" standalone="no"?>
<svg version="1.1" viewBox="0 0 86 86" xmlns="http://www.w3.org/2000/svg">
  <linearGradient id="gradient1" x1="43" y1="10.3" x2="43" y2="85.7" gradientUnits="userSpaceOnUse">
    <stop  style="stop-color:#ff6700;stop-opacity:1" offset="0"/>
    <stop  style="stop-color:#ff4f00;stop-opacity:1" offset="1"/>
  </linearGradient>
  <linearGradient id="gradient2" x1="43" y1="14.25" x2="43" y2="71.75" gradientUnits="userSpaceOnUse">
    <stop style="stop-color:#ffffff;stop-opacity:1" offset="0"/>
    <stop style="stop-color:#ececec;stop-opacity:1" offset="1"/>
  </linearGradient>
  <rect style="fill:#ffffff;opacity:0" width="86" height="86"/>
  <path style="fill:url(#gradient1)" d="m 85.7,84.277 c 0,0.786 -0.637,1.423 -1.423,1.423 H 1.723 C 0.937,85.7 0.3,85.063 0.3,84.277 V 1.723 C 0.3,0.937 0.937,0.3 1.723,0.3 h 82.553 c 0.786,0 1.423,0.637 1.423,1.423 v 82.554 z"/>
  <path style="fill:#000000;opacity:0.2" d="m 14.25,14.85 v 16.1 h 16.1 v -16.1 z m 18.4,0 v 2.3 h 2.3 v -2.3 z m 2.3,2.3 v 2.3 h 9.2 v -2.3 z m 13.8,-2.3 v 2.3 h 4.6 v -2.3 z m 6.9,0 v 16.1 h 16.1 v -16.1 z m -39.1,2.3 h 11.5 v 11.5 h -11.5 z m 41.4,0 h 11.5 v 11.5 h -11.5 z m -39.1,2.3 v 6.9 h 6.9 v -6.9 z m 27.6,0 v 2.3 h 2.3 v -2.3 z m 4.6,0 v 4.6 h -9.2 v -2.3 h -2.3 v 4.6 h -4.6 v -2.3 h -2.3 v 6.9 h 2.3 v -2.3 h 2.3 v 2.3 h -2.3 v 2.3 h 2.3 v 2.3 h -2.3 v 2.3 h 4.6 v -4.6 h 2.3 v 2.3 h 2.3 v -2.3 h 2.3 v 2.3 h 2.3 v 2.3 h 6.9 v -2.3 h -4.6 v -4.6 h -2.3 v -2.3 h 2.3 v 2.3 h 2.3 v -4.6 h -2.3 v -2.3 h 2.3 v -4.6 z m 4.6,18.4 v 2.3 h 2.3 v 2.3 h -2.3 v 4.6 h -4.6 v -2.3 h -6.9 v 2.3 h 4.6 v 2.3 h -4.6 v 2.3 h 6.9 v -2.3 h 2.3 v 2.3 h -2.3 v 2.3 h -4.6 v 2.3 h 2.3 v 2.3 h 2.3 v 4.6 h -2.3 v -4.6 h -2.3 v 2.3 h -2.3 v 6.9 h 4.6 v 2.3 h -2.31 v 2.3 h 4.6 v -4.6 h -2.29 v -2.3 h 4.6 v -2.3 h 2.3 v 4.6 h 2.3 v 2.3 h 2.3 v -4.6 0 h -2.3 v -2.3 h 2.3 v 2.3 h 2.3 v -2.3 h 6.9 v -2.3 h -6.9 v -2.3 h 6.9 v 2.3 h 2.3 v -9.2 h -2.3 v 4.6 h -4.6 v -2.3 h -2.3 v -2.3 h -2.3 v -2.3 h -4.6 v -2.3 h 4.6 v -2.3 h -2.3 v -2.3 h 2.3 v -6.9 h 2.3 v -2.3 h -4.6 v 4.6 z m 4.6,4.6 v 2.3 h 9.2 v -4.6 h 2.3 v -2.3 h -4.6 v 4.6 z m 9.2,9.2 v -2.3 h 2.3 v -2.3 h -4.6 v 4.6 z m 0,11.5 v 6.9 h -6.9 v 2.3 h 9.2 v -9.2 z m -25.3,-2.3 v -2.3 h -2.3 v 2.3 z m -2.3,0 h -2.3 v 2.3 h 2.3 z m -2.3,2.3 h -4.6 v -2.3 h 4.6 v -2.4 h -4.6 v -2.3 h 4.6 v 2.3 h 2.3 v -4.5 h -2.3 -4.6 v -11.5 h -2.3 v -2.3 h -2.3 v 2.3 h -2.3 v -2.3 h -4.6 v -2.3 h -2.3 v -2.3 h 2.3 v 2.3 h 2.3 v -2.3 h 4.6 v 2.3 h 2.3 v -4.6 h -16.1 v 6.9 h 4.6 v 2.3 h -4.6 v 2.3 h -2.3 v 9.2 h 2.3 v -6.9 h 2.3 v -2.3 h 4.6 v 4.6 h -2.3 v -2.3 h -2.3 v 4.6 h 2.3 v 2.3 h 9.2 v -2.3 h -2.3 v -2.3 h 4.6 v 20.7 h 4.6 v 2.3 h 6.9 v -2.3 h -4.6 v -2.3 h -4.6 v -2.3 h 4.6 v 2.3 h 2.3 v -2.3 h -2.3 z m 2.3,-9.2 h 2.3 v -2.3 h -2.3 z m 2.3,4.6 h 2.3 v -2.3 h -2.3 z m 0,-9.2 v -2.3 h -4.6 v 2.3 z m -4.6,0 h -2.3 v 2.3 h 2.3 z m 4.6,-4.6 v -2.3 h -4.6 v -2.3 h -2.3 v 4.6 z m 6.9,0 h 2.3 v -4.6 h -2.3 z m -16.1,-20.7 h 2.3 v -2.3 h -2.3 z m 25.3,-4.6 v 6.9 h 6.9 v -6.9 z m -20.7,6.9 h 4.6 v 2.3 h -2.3 v 2.3 h -2.3 v -4 z m 4.6,2.3 h 2.3 v 2.3 h 2.3 v 2.3 h -2.3 v -2.3 h -2.3 z m 25.3,4.6 v 2.3 h 2.3 v -2.3 z m -6.9,4.6 v 2.3 h 2.3 v -2.3 z m -16.1,2.3 v 2.3 h 2.3 v -2.3 z m -18.4,4.6 h 2.3 v 2.3 h -2.3 z m 25.3,9.2 h 6.9 v 6.9 h -6.9 z m -39.1,2.3 v 16.1 h 16.1 v -2.3 -13.8 z m 41.4,0 v 2.3 h 2.3 v -2.3 z m -39.1,2.3 h 11.5 v 11.5 h -11.5 z m 2.3,2.3 v 6.9 h 6.9 v -6.9 z"/>
  <path style="fill:url(#gradient2)" d="m 14.25,14.25 v 16.1 h 16.1 v -16.1 z m 18.4,0 v 2.3 h 2.3 v -2.3 z m 2.3,2.3 v 2.3 h 9.2 v -2.3 z m 13.8,-2.3 v 2.3 h 4.6 v -2.3 z m 6.9,0 v 16.1 h 16.1 v -16.1 z m -39.1,2.3 h 11.5 v 11.5 h -11.5 z m 41.4,0 h 11.5 v 11.5 h -11.5 z m -39.1,2.3 v 6.9 h 6.9 v -6.9 z m 27.6,0 v 2.3 h 2.3 v -2.3 z m 4.6,0 v 4.6 h -9.2 v -2.3 h -2.3 v 4.6 h -4.6 v -2.3 h -2.3 v 6.9 h 2.3 v -2.3 h 2.3 v 2.3 h -2.3 v 2.3 h 2.3 v 2.3 h -2.3 v 2.3 h 4.6 v -4.6 h 2.3 v 2.3 h 2.3 v -2.3 h 2.3 v 2.3 h 2.3 v 2.3 h 6.9 v -2.3 h -4.6 v -4.6 h -2.3 v -2.3 h 2.3 v 2.3 h 2.3 v -4.6 h -2.3 v -2.3 h 2.3 v -4.6 z m 4.6,18.4 v 2.3 h 2.3 v 2.3 h -2.3 v 4.6 h -4.6 v -2.3 h -6.9 v 2.3 h 4.6 v 2.3 h -4.6 v 2.3 h 6.9 v -2.3 h 2.3 v 2.3 h -2.3 v 2.3 h -4.6 v 2.3 h 2.3 v 2.3 h 2.3 v 4.6 h -2.3 v -4.6 h -2.3 v 2.3 h -2.3 v 6.9 h 4.6 v 2.3 h -2.31 v 2.3 h 4.6 v -4.6 h -2.29 v -2.3 h 4.6 v -2.3 h 2.3 v 4.6 h 2.3 v 2.3 h 2.3 v -4.6 0 h -2.3 v -2.3 h 2.3 v 2.3 h 2.3 v -2.3 h 6.9 v -2.3 h -6.9 v -2.3 h 6.9 v 2.3 h 2.3 v -9.2 h -2.3 v 4.6 h -4.6 v -2.3 h -2.3 v -2.3 h -2.3 v -2.3 h -4.6 v -2.3 h 4.6 v -2.3 h -2.3 v -2.3 h 2.3 v -6.9 h 2.3 v -2.3 h -4.6 v 4.6 z m 4.6,4.6 v 2.3 h 9.2 v -4.6 h 2.3 v -2.3 h -4.6 v 4.6 z m 9.2,9.2 v -2.3 h 2.3 v -2.3 h -4.6 v 4.6 z m 0,11.5 v 6.9 h -6.9 v 2.3 h 9.2 v -9.2 z m -25.3,-2.3 v -2.3 h -2.3 v 2.3 z m -2.3,0 h -2.3 v 2.3 h 2.3 z m -2.3,2.3 h -4.6 v -2.3 h 4.6 v -2.4 h -4.6 v -2.3 h 4.6 v 2.3 h 2.3 v -4.5 h -2.3 -4.6 v -11.5 h -2.3 v -2.3 h -2.3 v 2.3 h -2.3 v -2.3 h -4.6 v -2.3 h -2.3 v -2.3 h 2.3 v 2.3 h 2.3 v -2.3 h 4.6 v 2.3 h 2.3 v -4.6 h -16.1 v 6.9 h 4.6 v 2.3 h -4.6 v 2.3 h -2.3 v 9.2 h 2.3 v -6.9 h 2.3 v -2.3 h 4.6 v 4.6 h -2.3 v -2.3 h -2.3 v 4.6 h 2.3 v 2.3 h 9.2 v -2.3 h -2.3 v -2.3 h 4.6 v 20.7 h 4.6 v 2.3 h 6.9 v -2.3 h -4.6 v -2.3 h -4.6 v -2.3 h 4.6 v 2.3 h 2.3 v -2.3 h -2.3 z m 2.3,-9.2 h 2.3 v -2.3 h -2.3 z m 2.3,4.6 h 2.3 v -2.3 h -2.3 z m 0,-9.2 v -2.3 h -4.6 v 2.3 z m -4.6,0 h -2.3 v 2.3 h 2.3 z m 4.6,-4.6 v -2.3 h -4.6 v -2.3 h -2.3 v 4.6 z m 6.9,0 h 2.3 v -4.6 h -2.3 z m -16.1,-20.7 h 2.3 v -2.3 h -2.3 z m 25.3,-4.6 v 6.9 h 6.9 v -6.9 z m -20.7,6.9 h 4.6 v 2.3 h -2.3 v 2.3 h -2.3 v -4 z m 4.6,2.3 h 2.3 v 2.3 h 2.3 v 2.3 h -2.3 v -2.3 h -2.3 z m 25.3,4.6 v 2.3 h 2.3 v -2.3 z m -6.9,4.6 v 2.3 h 2.3 v -2.3 z m -16.1,2.3 v 2.3 h 2.3 v -2.3 z m -18.4,4.6 h 2.3 v 2.3 h -2.3 z m 25.3,9.2 h 6.9 v 6.9 h -6.9 z m -39.1,2.3 v 16.1 h 16.1 v -2.3 -13.8 z m 41.4,0 v 2.3 h 2.3 v -2.3 z m -39.1,2.3 h 11.5 v 11.5 h -11.5 z m 2.3,2.3 v 6.9 h 6.9 v -6.9 z"/>
</svg>
