<?xml version="1.0" encoding="utf-8" standalone="no"?>
<svg version="1.0" width="232" height="232" xmlns="http://www.w3.org/2000/svg">
  <g style="fill:#ffffff">
    <path d="m 0,0 c 0,20 0,37 0,56 19,0 40,0 56,0 C 56,35 56,19 56,0 36,0 19,0 0,0 Z m 8,8 c 15,0 26,0 40,0 0,13 0,28 0,40 C 35,48 20,48 8,48 8,33 8,22 8,8 z"/>
    <path d="m 16,16 c 0,8 0,17 0,24 9,0 15,0 24,0 0,-8 0,-16 0,-24 -8,0 -17,0 -24,0 z"/>
    <path d="m 0,72 c 0,5 0,11 0,16 h 8 v -8 h 8 V 72 C 11,72 5,72 0,72 z"/>
    <path d="m 16,88 v 8 H 8 v 8 H 0 c 0,8 0,16 0,24 h 8 v 8 h 8 c 0,-5 0,-11 0,-16 H 8 v -8 h 8 v -8 c 5,0 11,0 16,0 v -8 h -8 v -8 z"/>
    <path d="m 0,144 c 0,5 0,11 0,16 5,0 11,0 16,0 v -8 h 8 v 8 h 8 v -8 h 8 v -8 c -13,0 -28,0 -40,0 z"/>
    <path d="m 0,176 c 0,20 0,37 0,56 19,0 40,0 56,0 0,-19 0,-40 0,-56 -20,0 -37,0 -56,0 z m 8,8 c 14,0 28,0 40,0 0,14 0,29 0,40 -14,0 -26,0 -40,0 0,-14 0,-29 0,-40 z"/>
    <path d="m 16,192 c 0,8 0,16 0,24 8,0 16,0 24,0 0,-8 0,-16 0,-24 -8,0 -16,0 -24,0 z"/>
    <path d="m 40,104 v 8 h -8 v 8 h -8 v 8 c 8,0 16,0 24,0 v -8 h 8 v -8 h -8 v -8 z"/>
    <path d="m 32,64 c 0,5 0,11 0,16 h 8 v 8 h 8 8 v -8 h -8 v -8 c 5,0 11,0 16,0 v -8 c -12,0 -21,0 -32,0 z"/>
    <path d="m 40,152 v 8 h -8 v 8 c 12,0 21,0 32,0 v -8 c -5,0 -11,0 -16,0 v -8 z"/>
    <path d="m 64,40 c 0,8 0,16 0,24 h 8 c 0,5 0,11 0,16 h -8 v 8 h -8 v 8 h -8 v 8 h 8 v 8 h 8 v -8 h 8 v -8 h 8 v -8 h 8 v -8 h -8 c 0,-9 0,-15 0,-24 h -8 v -8 h 8 v -8 c -5,0 -11,0 -16,0 z"/>
    <path d="m 80,104 c 0,5 0,11 0,16 h -8 v -8 h -8 v 8 h -8 v 8 h 8 v 8 h 8 v 8 c -8,0 -16,0 -24,0 v 8 c 5,0 11,0 16,0 v 8 h 8 v 8 h -8 c 0,11 0,23 0,32 5,0 11,0 16,0 v -8 c 5,0 11,0 16,0 v -8 c -8,0 -16,0 -24,0 v -8 c 13,0 28,0 40,0 v -8 h 8 v -8 h -8 v -8 c -5,0 -11,0 -16,0 v 8 h 8 v 8 c -8,0 -16,0 -24,0 v -8 h 8 c 0,-5 0,-11 0,-16 h -8 v -8 c 5,0 11,0 16,0 v -8 h -8 c 0,-8 0,-16 0,-24 z"/>
    <path d="m 72,0 v 8 h -8 v 8 h 8 c 0,5 0,11 0,16 h 8 v -8 h 8 V 16 H 80 V 8 h 8 V 0 C 83,0 77,0 72,0 z"/>
    <path d="m 88,24 v 8 h -8 v 8 h 8 v 8 h 8 c 0,-5 0,-11 0,-16 h 8 v -8 c -5,0 -11,0 -16,0 z"/>
    <path d="m 96,192 v 8 h -8 v 8 h -8 v 8 c 5,0 11,0 16,0 v 8 c 5,0 11,0 16,0 v -8 h -8 v -8 c 12,0 21,0 32,0 v -8 h -8 v -8 h -8 v 8 c -5,0 -11,0 -16,0 v -8 z"/>
    <path d="m 144,24 v 8 h -8 v 8 h -8 v -8 h -8 v 8 h -16 v 8 h 8 v 16 h 8 V 48 h 8 v 16 h -8 v 8 h -8 v -8 h -8 V 48 h -8 v 8 h -8 v 8 h 8 v 8 h 8 v 8 h -8 v 16 h 8 v -8 h 8 v -8 h 16 v -8 h 8 V 48 h 8 v -8 h 8 V 24 Z m 8,40 v 8 h -8 v 8 h 8 v 8 h -8 v 8 h -8 v 8 h -8 v 8 h 8 v 8 h -8 c 0,5 0,11 0,16 5,0 11,0 16,0 0,-11 0,-23 0,-32 h 8 v -8 h 8 v 8 h 8 c 0,5 0,11 0,16 h 8 v 8 h 8 c 0,-5 0,-11 0,-16 h 8 c 0,5 0,11 0,16 h -8 v 8 h 8 v 8 h 8 c 0,-5 0,-11 0,-16 h 8 c 0,-5 0,-11 0,-16 h 8 v -8 h -8 c 0,-5 0,-11 0,-16 h -8 v -8 h -8 c 0,-5 0,-11 0,-16 -5,0 -11,0 -16,0 v 8 h 8 v 8 h -8 v 8 8 h 8 v -8 h 8 v 8 h 8 v 8 h -8 v -8 h -8 v 8 h -8 v -8 h -8 v -8 h -8 c 0,-5 0,-11 0,-16 h 8 v -8 c -5,0 -11,0 -16,0 z m -8,24 v -8 h -8 v 8 z"/>
    <path d="m 104,96 c 0,5 0,11 0,16 h -8 v 8 h 8 c 0,9 0,15 0,24 h 8 v 8 c 5,0 11,0 16,0 0,-5 0,-11 0,-16 -5,0 -11,0 -16,0 v -8 h 8 v -8 h -8 c 0,-5 0,-11 0,-16 h 8 v -8 c -5,0 -11,0 -16,0 z"/>
    <path d="m 112,0 v 8 h -8 v 8 c 5,0 11,0 16,0 V 8 h 8 V 0 c -5,0 -11,0 -16,0 z"/>
    <path d="m 120,168 v 8 h -8 c 0,5 0,11 0,16 h 8 v -8 h 8 c 0,-5 0,-11 0,-16 z"/>
    <path d="m 120,88 v 8 c 5,0 11,0 16,0 v -8 c -5,0 -11,0 -16,0 z"/>
    <path d="m 152,0 v 8 c -8,0 -16,0 -24,0 v 8 h 8 v 8 h 8 v -8 c 5,0 11,0 16,0 V 8 h 8 V 0 c -5,0 -11,0 -16,0 z"/>
    <path d="m 152,120 c 0,5 0,11 0,16 h -8 v 8 h -8 v 8 h 8 v 8 c -5,0 -11,0 -16,0 v 8 h 8 v 8 h 8 v -8 h 8 c 0,8 0,16 0,24 h -8 v 8 c 5,0 11,0 16,0 v 8 h -8 v 8 c 8,0 16,0 24,0 v -8 h -8 v -8 c 14,0 26,0 40,0 0,-5 0,-11 0,-16 h -8 v -8 h 8 v 8 h 8 c 0,-5 0,-11 0,-16 h 8 c 0,5 0,11 0,16 h 8 c 0,-8 0,-16 0,-24 -14,0 -26,0 -40,0 v -8 h -8 v 8 h -8 v -8 h 8 v -8 h -8 v -8 c -5,0 -11,0 -16,0 0,-5 0,-11 0,-16 z m 0,24 h 8 v 8 h 8 v 8 c -5,0 -11,0 -16,0 v -8 z m 16,24 c 8,0 16,0 24,0 0,8 0,16 0,24 -8,0 -16,0 -24,0 0,-8 0,-16 0,-24 z"/>
    <path d="m 128,184 v 8 c 5,0 11,0 16,0 v -8 c -5,0 -11,0 -16,0 z"/>
    <path d="m 128,216 v 8 h 8 v 8 c 5,0 11,0 16,0 v -8 h -8 v -8 c -5,0 -11,0 -16,0 z"/>
    <path d="m 176,0 c 0,19 0,40 0,56 19,0 40,0 56,0 0,-19 0,-40 0,-56 -19,0 -39,0 -56,0 z m 8,8 c 15,0 26,0 40,0 0,14 0,28 0,40 -14,0 -28,0 -40,0 0,-15 0,-26 0,-40 z"/>
    <path d="m 192,16 c 0,8 0,17 0,24 8,0 17,0 24,0 0,-9 0,-15 0,-24 -8,0 -16,0 -24,0 z"/>
    <path d="m 208,208 v 8 h -24 v 8 h 8 v 8 h 32 v -8 h 8 v -16 z"/>
    <path d="m 224,72 c 0,5 0,11 0,16 h -8 v 8 h 8 c 0,9 0,15 0,24 h 8 c 0,-18 0,-31 0,-48 z"/>
    <path d="m 216,128 v 8 h 8 c 0,5 0,11 0,16 h 8 c 0,-9 0,-15 0,-24 -5,0 -11,0 -16,0 z"/>
    <rect x="16" y="112" width="8" height="8"/>
    <rect x="16" y="160" width="8" height="8"/>
    <rect x="32" y="88" width="8" height="8"/>
    <rect x="40" y="136" width="8" height="8"/>
    <rect x="48" y="128" width="8" height="8"/>
    <rect x="72" y="216" width="8" height="8"/>
    <rect x="80" y="48" width="8" height="8"/>
    <rect x="88" y="8" width="8" height="8"/>
    <rect x="88" y="96" width="8" height="8"/>
    <rect x="96" y="0" width="8" height="8"/>
    <rect x="112" y="24" width="8" height="8"/>
    <rect x="112" y="224" width="8" height="8"/>
    <rect x="120" y="112" width="8" height="8"/>
    <rect x="128" y="24" width="8" height="8"/>
    <rect x="144" y="48" width="8" height="8"/>
    <rect x="152" y="40" width="8" height="8"/>
    <rect x="160" y="24" width="8" height="8"/>
    <rect x="160" y="48" width="8" height="8"/>
    <rect x="176" y="176" width="8" height="8"/>
    <rect x="176" y="224" width="8" height="8"/>
    <rect x="200" y="144" width="8" height="8"/>
    <rect x="208" y="72" width="8" height="8"/>
    <rect x="208" y="136" width="8" height="8"/>
    <rect x="216" y="64" width="8" height="8"/>
  </g>
</svg>
