<?xml version="1.0" encoding="utf-8" standalone="no"?>
<svg version="1.0" width="64" height="64" xmlns="http://www.w3.org/2000/svg">
  <rect style="fill:none;opacity:0" width="64" height="64"/>
  <g style="fill:#ffffff">
    <circle cx="32" cy="14" r="1.25"/>
    <path d="M 37,21.9 H 27 c -1.7,0-3-1.3-3-3 v -6 c 0-1.7,1.3-3,3-3 h 10 c 1.7,0,3,1.3,3,3 v 6 C 40,20.5,38.7,21.9,37,21.9 z M 27,11.9 c -0.6,0-1,0.4-1,1 v 6 c 0,0.6,0.4,1,1,1 h 10 c 0.6,0,1-0.4,1-1 v -6 c 0-0.6-0.4-1-1-1 H 27 z"/>
    <path style="opacity:0.6" d="m 48.8,58.1 h -33.6 c -1.7,0 -3,-1.3 -3,-3 v -37 c 0,-1.7 1.3,-3 3,-3 H 24 v 2 h -8.8 c -0.6,0 -1,0.4 -1,1 v 37 c 0,0.6 0.4,1 1,1 h 33.6 c 0.6,0 1,-0.4 1,-1 v -37 c 0,-0.6 -0.4,-1 -1,-1 H 40 v -2 h 8.8 c 1.7,0 3,1.3 3,3 v 37 c 0,1.7 -1.3,3 -3,3 z"/>
    <path d="M 43.6,29.8 h -23.2 c -0.6,0-1-0.4-1-1 s 0.4-1,1-1 h 23.2 c 0.6,0,1,0.4,1,1 S 44.2,29.8,43.6,29.8 z"/>
    <path d="M 43.6,36.7 h -23.2 c -0.6,0-1-0.4-1-1 s 0.4-1,1-1 h 23.2 c 0.6,0,1,0.4,1,1 S 44.2,36.7,43.6,36.7 z"/>
    <path d="M 43.6,43.5 h -23.2 c -0.6,0-1-0.4-1-1 s 0.4-1,1-1 h 23.2 c 0.6,0,1,0.4,1,1 S 44.2,43.5,43.6,43.5 z"/>
    <path d="M 43.6,50.4 h -23.2 c -0.6,0-1-0.4-1-1 s 0.4-1,1-1 h 23.2 c 0.6,0,1,0.4,1,1 S 44.2,50.4,43.6,50.4 z"/>
  </g>
</svg>
