<?xml version="1.0" encoding="utf-8" standalone="no"?>
<svg version="1.0" width="64" height="64" xmlns="http://www.w3.org/2000/svg">
  <rect style="fill:none;opacity:0" width="64" height="64"/>
  <g style="fill:#ffffff">
    <path style="opacity:0.6" d="M 40,55.5 C 25.9,50.4 14.5,39.1 9.7,25.1 9.3,24.2 9.1,23.3 8.8,22.5 8.5,21.1 8.3,19.8 8.3,18.4 8.4,13 12,8.3 16.1,8.3 h 7.5 c 0.6,0 1,0.4 1,1 0,0.6 -0.4,1 -1,1 h -7.5 c -2.7,0.1 -5.7,3.4 -5.8,8.1 0,1.1 0.1,2.3 0.5,3.5 0.2,0.8 0.5,1.6 0.8,2.5 4.7,13.4 15.5,24.3 29.1,29.2 1.9,0.8 3.9,1.2 6,1.3 4.8,0 8.4,-3 8.4,-5.7 V 42 c 0,-0.4 0.6,-0.8 1,-0.8 0.4,0 1,0.5 1,0.8 v 7.2 c 0,4.1 -4.9,7.7 -10.4,7.8 -2.1,0 -4.2,-0.5 -6.7,-1.5 z"/>
    <path d="M 37.6,45.8 36.7,45.3 C 30.7,42 26.3,38 22.4,32.3 c -0.5,-0.8 -1.1,-1.6 -1.6,-2.5 -0.4,-0.7 -0.7,-1.3 -1.1,-2 l 0.9,-0.5 c 3.6,-2 4.7,-6.5 3.9,-9.7 -0.7,-2.9 -1.8,-8 -1.8,-8 -0.1,-0.5 0.2,-1.1 0.8,-1.2 0.5,-0.1 1.1,0.2 1.2,0.8 0,0.1 1.1,5.1 1.8,8 1.1,4.3 -0.6,9.1 -4,11.4 0,0 1.1,1.9 1.6,2.6 3.5,5.2 7.5,8.9 12.8,11.9 v 0 0 c 2.5,-3.3 7.3,-5 11.5,-4 l 7.9,2 c 0.5,0.2 0.8,0.8 0.7,1.2 -0.2,0.4 -0.7,0.8 -1.2,0.7 l -7.9,-2 c -3.5,-0.9 -7.7,0.6 -9.6,3.4 z"/>
  </g>
</svg>
