<?xml version="1.0" encoding="utf-8" standalone="no"?>
<svg version="1.0" width="64" height="64" xmlns="http://www.w3.org/2000/svg">
  <rect style="fill:none;opacity:0" width="64" height="64"/>
  <g style="fill:#ffffff">
    <path style="opacity:0.6" d="M 38.1,53 h -23.7 C 12.8,53,11,51.7,11,49.9 V 14.1 C 11,12.3,12.8,11,14.4,11 h 35.8 C 51.8,11,53,12.3,53,14.1 v 23.7 L 38.1,53 z M 14.4,13 C 13.7,13,13,13.6,13,14.1 v 35.8 C 13,50.4,13.7,51,14.4,51 h 22.9 L 51,37 V 14.1 C 51,13.8,50.9,13,50.2,13 H 14.4 z"/>
    <path d="M 43,24 H 21 c -0.6,0-1-0.4-1-1 s 0.4-1,1-1 h 22 c 0.6,0,1,0.4,1,1 S 43.6,24,43,24 z"/>
    <path d="M 43,33 H 21 c -0.6,0-1-0.4-1-1 s 0.4-1,1-1 h 22 c 0.6,0,1,0.4,1,1 S 43.6,33,43,33 z"/>
    <path d="M 43,42 H 21 c -0.6,0-1-0.4-1-1 s 0.4-1,1-1 h 22 c 0.6,0,1,0.4,1,1 S 43.6,42,43,42 z"/>
    <path d="M 37.1,39.3 V 52 L 52,37 H 39.6 C 38.4,37,37.1,38.1,37.1,39.3 z"/>
  </g>
</svg>
