<?xml version="1.0" encoding="UTF-8" standalone="no"?>
<svg
    version="1.1"
    xmlns="http://www.w3.org/2000/svg"
    xmlns:xlink="http://www.w3.org/1999/xlink"
    x="0px"
    y="0px"
    width="64"
    height="64"
    viewBox="0 0 64 64"
    style="enable-background:new 0 0 64 64"
    xml:space="preserve">
  <rect
      style="opacity:0;fill:#ffffff"
      width="64"
      height="64"/>
  <path
      style="fill:#ffffff"
      d="M32,57.156c-1.185,0-2.317-0.65-3.106-1.783c-0.558-0.802-13.693-19.738-16.066-28.607 c-0.877-3.276-0.324-6.669,1.598-9.813c2.695-4.41,8.002-8.027,13.518-9.214c2.701-0.58,5.413-0.581,8.112,0 c5.517,1.187,10.823,4.804,13.52,9.213c1.922,3.145,2.475,6.538,1.598,9.813v0c-2.374,8.869-15.509,27.805-16.067,28.607 C34.317,56.506,33.186,57.156,32,57.156z M32,9.301c-1.2,0-2.423,0.132-3.636,0.393c-5.007,1.078-9.809,4.336-12.232,8.302 c-1.629,2.666-2.104,5.52-1.373,8.253c2.285,8.535,15.642,27.789,15.776,27.982c0.831,1.193,2.097,1.193,2.929,0 c0.134-0.193,13.492-19.449,15.776-27.982v0c0.731-2.734,0.257-5.588-1.373-8.253c-2.424-3.966-7.226-7.224-12.232-8.302 C34.423,9.433,33.2,9.301,32,9.301z M50.207,26.507h0.01H50.207z"/>
  <path
      style="opacity:0.6;fill:#ffffff"
      d="M32,36.362c-5.435,0-9.856-4.421-9.856-9.855c0-5.435,4.421-9.856,9.856-9.856 s9.855,4.421,9.855,9.856C41.855,31.941,37.435,36.362,32,36.362z M32,18.363c-4.491,0-8.144,3.653-8.144,8.144 c0,4.49,3.653,8.144,8.144,8.144c4.491,0,8.145-3.654,8.145-8.144C40.145,22.017,36.491,18.363,32,18.363z"/>
</svg>
