<?xml version="1.0" encoding="UTF-8" standalone="no"?>
<svg
    version="1.1"
    xmlns="http://www.w3.org/2000/svg"
    xmlns:xlink="http://www.w3.org/1999/xlink"
    x="0px"
    y="0px"
    width="64"
    height="64"
    viewBox="0 0 64 64"
    style="enable-background:new 0 0 64 64"
    xml:space="preserve">
  <rect
      style="opacity:0;fill:#ffffff"
      width="64"
      height="64"/>
  <path
      style="opacity:0.6;fill:#ffffff"
      d="M22,41.5h20c4.971,0,9,4.029,9,9c0,0.338-0.019,0.672-0.055,1h2.01 c0.03-0.329,0.045-0.663,0.045-1c0-6.075-4.925-11-11-11H22c-6.075,0-11,4.925-11,11c0,0.337,0.015,0.671,0.045,1h2.01 C13.019,51.172,13,50.838,13,50.5C13,45.529,17.029,41.5,22,41.5z"/>
  <path
      style="fill:#ffffff"
      d="M32,35.5c-6.617,0-12-5.383-12-12s5.383-12,12-12c6.617,0,12,5.383,12,12S38.617,35.5,32,35.5z M32,13.5c-5.514,0-10,4.486-10,10s4.486,10,10,10c5.514,0,10-4.486,10-10S37.514,13.5,32,13.5z"/>
</svg>
