<?xml version="1.0" encoding="utf-8" standalone="no"?>
<svg version="1.0" width="64" height="64" xmlns="http://www.w3.org/2000/svg">
  <rect style="fill:none;opacity:0" width="64" height="64"/>
  <path style="fill:#ffffff" d="m 32,57.2 c -1.2,0 -2.3,-0.7 -3.1,-1.8 C 28.3,54.6 15.2,35.7 12.8,26.8 11.9,23.5 12.5,20.1 14.4,17 c 2.7,-4.4 8,-8 13.5,-9.2 2.7,-0.6 5.4,-0.6 8.1,0 5.5,1.2 10.8,4.8 13.5,9.2 1.9,3.1 2.5,6.5 1.6,9.8 v 0 c -2.3,8.8 -15.4,27.8 -16,28.6 -0.8,1.1 -1.9,1.8 -3.1,1.8 z M 28.4,9.7 c -5,1.1 -9.8,4.3 -12.2,8.3 -1.6,2.7 -2.1,5.5 -1.4,8.3 2.3,8.5 15.6,27.8 15.8,28 0.8,1.2 2.1,1.2 2.9,0 0.1,-0.2 13.5,-19.4 15.8,-28 v 0 C 50,23.6 49.6,20.7 47.9,18 45.5,14 40.7,10.8 35.7,9.7 33.3,9.2 30.8,9.2 28.4,9.7 z"/>
  <circle style="fill:none;stroke:#ffffff;stroke-opacity:0.6;stroke-width:1.5" cx="32" cy="26.5" r="9"/>
</svg>
