<?xml version="1.0" encoding="UTF-8" standalone="no"?>
<svg
    version="1.1"
    xmlns="http://www.w3.org/2000/svg"
    xmlns:xlink="http://www.w3.org/1999/xlink"
    x="0px"
    y="0px"
    width="64"
    height="64"
    viewBox="0 0 64 64"
    style="enable-background:new 0 0 64 64"
    xml:space="preserve">
  <rect
      style="opacity:0;fill:#ffffff"
      width="64"
      height="64"/>
  <path
      style="fill:#ffffff"
      d="M37.56,45.803l-0.871-0.53c-6.019-3.27-10.424-7.271-14.281-12.975 c-0.549-0.794-1.091-1.645-1.606-2.519c-0.209-0.346-0.424-0.705-0.637-1.074l-0.514-0.893l0.908-0.487 c3.643-1.956,4.729-6.477,3.902-9.739c-0.725-2.861-1.818-7.982-1.829-8.034c-0.115-0.54,0.229-1.071,0.77-1.187 c0.541-0.118,1.071,0.229,1.187,0.77c0.011,0.051,1.096,5.136,1.811,7.959c1.1,4.336-0.608,9.063-4.009,11.446 c0.043,0.071,0.085,0.142,0.128,0.212c0.497,0.844,1.013,1.653,1.541,2.416c3.5,5.175,7.465,8.873,12.779,11.899l0.028-0.043 l0.006,0.003c2.487-3.343,7.322-5.01,11.505-3.957l7.878,1.984l-0.488,1.939l-7.878-1.984c-3.494-0.876-7.698,0.626-9.569,3.424 l-0.68,1.26l-0.018-0.01L37.56,45.803z"/>
  <path
      style="opacity:0.6;fill:#ffffff"
      d="M46.575,56.962c-1.345,0-2.695-0.202-4.018-0.601c-0.809-0.244-1.607-0.513-2.4-0.796 h-0.002l-0.154-0.056c-14.145-5.107-25.475-16.457-30.309-30.36c-0.342-0.989-0.609-1.834-0.842-2.659 c-0.379-1.341-0.561-2.701-0.54-4.042c0.083-5.477,3.648-10.104,7.785-10.105l7.514,0c0.552,0,1,0.448,1,1s-0.448,1-1,1l-7.543,0 c-2.7,0.057-5.684,3.382-5.756,8.136c-0.018,1.146,0.139,2.313,0.465,3.467c0.223,0.788,0.478,1.597,0.782,2.474 c4.663,13.412,15.541,24.303,29.124,29.208l-0.188,0.995l0.336-0.941c0.762,0.271,1.529,0.53,2.307,0.765 c1.134,0.342,2.291,0.515,3.439,0.515c0.015,0,0.03,0,0.046,0c4.811-0.019,8.404-3.049,8.404-5.745 c0-3.078-0.015-7.188-0.015-7.188l2-0.008c0,0,0.015,4.114,0.015,7.184c0,4.117-4.858,7.736-10.396,7.758 C46.611,56.962,46.593,56.962,46.575,56.962z"/>
</svg>
