<?xml version="1.0" encoding="utf-8" standalone="no"?>
<svg version="1.0" width="64" height="64" xmlns="http://www.w3.org/2000/svg">
  <rect style="fill:none;opacity:0" width="64" height="64"/>
  <g style="fill:#ffffff">
    <path style="opacity:0.5" d="M 32.2,37.2 c -0.8,0-1.6-0.3-2.1-0.8 L 8.7,17.1 c -1-0.9-0.9-1.7-0.7-2 C 8.1,14.6,8.6,14,9.9,14 h 44 c 1.3,0,1.8,0.6,1.9,1 c 0.2,0.4,0.3,1.2-0.7,2.1 L 34.4,36.4 C 33.8,36.9,33,37.2,32.2,37.2 z M 10.5,16 l 21,18.9 c 0.4,0.4,1.2,0.4,1.6-0 L 53.3,16 H 10.5 z"/>
    <path d="M 53.9,50 h -44 c -1.7,0-3-1.3-3-3 V 17 c 0-1.7,1.3-3,3-3 h 44 c 1.7,0,3,1.3,3,3 v 30 C 56.9,48.7,55.5,50,53.9,50 z M 9.9,16 c -0.6,0-1,0.4-1,1 v 30 c 0,0.6,0.4,1,1,1 h 44 c 0.6,0,1-0.4,1-1 V 17 c 0-0.6-0.4-1-1-1 H 9.9 z"/>
  </g>
</svg>
