<?xml version="1.0" encoding="utf-8" standalone="no"?>
<svg version="1.0" width="64" height="64" xmlns="http://www.w3.org/2000/svg">
  <rect style="fill:none;opacity:0" width="64" height="64"/>
  <path style="fill:#ffffff;opacity:0.6" d="m 32,7.5 c -5,0 -9.3,4.3 -11.8,11 H 13 l -1.3,2 h 7.8 C 18.6,23.6 18,27.2 17.9,31 H 8.5 v 2 h 9.4 c 0.1,3.8 0.7,7.4 1.6,10.5 h -7.8 l 1.3,2 h 7.2 c 2.5,6.7 6.8,11 11.8,11 5,0 9.3,-4.3 11.8,-11 H 51 l 1.3,-2 H 44.5 C 45.4,40.4 46,36.8 46.1,33 h 9.4 V 31 H 46.1 C 46,27.2 45.4,23.6 44.5,20.5 h 7.8 L 51,18.5 H 43.8 C 41.3,11.8 37,7.5 32,7.5 Z m -1,2.1 v 8.9 h -8.7 c 2,-5 5.1,-8.4 8.7,-8.9 z m 2,0 c 3.6,0.5 6.7,3.9 8.7,8.9 H 33 Z M 21.6,20.5 H 31 V 31 H 19.9 c 0.1,-3.8 0.7,-7.4 1.7,-10.5 z m 11.4,0 h 9.4 c 1,3.1 1.6,6.7 1.7,10.5 H 33 Z M 19.9,33 H 31 V 43.5 H 21.6 C 20.6,40.4 20,36.8 19.9,33 Z M 33,33 H 44.1 C 44,36.8 43.4,40.4 42.4,43.5 H 33 Z M 22.3,45.5 H 31 v 8.9 c -3.6,-0.5 -6.7,-3.9 -8.7,-8.9 z m 10.7,0 h 8.7 c -2,5 -5.1,8.4 -8.7,8.9 z"/>
  <circle style="fill:none;stroke:#ffffff;stroke-width:2" cx="32" cy="32" r="23.5"/>
</svg>
