<?xml version="1.0" encoding="UTF-8" standalone="no"?>
<svg
   xmlns:svg="http://www.w3.org/2000/svg"
   xmlns="http://www.w3.org/2000/svg"
   xmlns:sodipodi="http://sodipodi.sourceforge.net/DTD/sodipodi-0.dtd"
   xmlns:inkscape="http://www.inkscape.org/namespaces/inkscape"
   width="64"
   height="64"
   viewBox="0 0 16.933333 16.933333"
   version="1.1"
   inkscape:version="0.92.5 (2060ec1f9f, 2020-04-08)"
   sodipodi:docname="covid.svg">
  <g
     inkscape:label="Layer 1"
     inkscape:groupmode="layer"
     id="layer1"
     transform="translate(0,-280.06667)">
    <path
       style="fill:#ffffff;fill-opacity:1;stroke-width:0.02003939"
       d="m 9.9166185,282.18382 c -0.19603,-2e-5 -0.263641,0.0379 -0.339617,0.19088 -0.05352,0.10775 -0.05988,0.13989 -0.05916,0.30152 5.64e-4,0.13466 0.01416,0.22716 0.0534,0.36182 0.05808,0.19947 0.07476,0.32022 0.07812,0.56579 0.0024,0.14424 -0.0048,0.17621 -0.05436,0.26853 -0.06504,0.12021 -0.194673,0.2411 -0.25854,0.2411 -0.024,0 -0.136975,-0.0192 -0.251124,-0.0427 -0.1819887,-0.0374 -0.2445117,-0.041 -0.5072523,-0.0287 -0.1648159,0.007 -0.3397242,0.0157 -0.3886986,0.0176 -0.084484,0.004 -0.091444,-6e-4 -0.1342744,-0.0768 -0.095765,-0.17038 -0.082684,-0.35885 0.047042,-0.67696 0.094565,-0.23201 0.099845,-0.35324 0.022801,-0.52146 -0.1004448,-0.21914 -0.272569,-0.35942 -0.4411891,-0.35942 -0.1066851,0 -0.2735651,0.0799 -0.3448125,0.16505 -0.1075251,0.12862 -0.1386666,0.21572 -0.1385226,0.38773 2.04e-4,0.20946 0.052682,0.3298 0.2309151,0.52915 l 0.1336504,0.14947 0.032042,0.20717 c 0.045362,0.29271 0.046562,0.28481 -0.052922,0.31066 -0.1965214,0.0511 -0.5247371,0.14604 -0.625734,0.181 l -0.1087252,0.0376 -0.041642,-0.0822 -0.041642,-0.0822 0.072723,-0.15583 c 0.1266181,-0.2715 0.1162856,-0.38644 -0.051242,-0.57092 -0.1165256,-0.12828 -0.2255748,-0.17231 -0.4258884,-0.172 -0.2989103,4.6e-4 -0.5133366,0.2222 -0.5133366,0.53083 0,0.0716 0.014161,0.16166 0.032162,0.20534 0.042722,0.10331 0.1806446,0.24248 0.2688728,0.27125 0.2177865,0.071 0.3195993,0.28436 0.1759045,0.36857 -0.1346585,0.079 -0.3797462,0.27942 -0.5980486,0.48927 -0.208342,0.20026 -0.2358953,0.21991 -0.3523009,0.25177 l -0.12627,0.0346 -0.1008049,-0.0552 c -0.1592716,-0.0872 -0.2830695,-0.24351 -0.4272684,-0.53947 -0.073083,-0.14994 -0.1555754,-0.28899 -0.1929092,-0.32492 -0.1851809,-0.17826 -0.4926236,-0.22584 -0.6852088,-0.10608 -0.1748244,0.10872 -0.3027145,0.48017 -0.2204145,0.6403 0.076924,0.14963 0.3036385,0.28651 0.5360776,0.32359 0.1447749,0.023 0.2483279,0.0595 0.4534417,0.15947 0.2004696,0.0977 0.2964622,0.21099 0.3282637,0.38746 0.012601,0.07 0.006,0.082 -0.1164056,0.21896 -0.2561522,0.28616 -0.3925988,0.64606 -0.5007359,1.32071 -0.012001,0.075 -0.024241,0.0913 -0.096365,0.12834 -0.074404,0.0383 -0.094205,0.0402 -0.2016577,0.0202 -0.2039017,-0.0382 -0.3044905,-0.0995 -0.6887129,-0.41942 -0.060243,-0.0501 -0.2532601,-0.10643 -0.3651055,-0.10643 -0.2035777,0 -0.4159039,0.081 -0.5546905,0.21165 -0.228947,0.21547 -0.2574003,0.52123 -0.066723,0.71776 0.050642,0.0522 0.1389186,0.10319 0.2896698,0.16721 0.3784261,0.16072 0.4836472,0.15724 0.9117197,-0.0301 0.3251195,-0.14228 0.4483054,-0.15789 0.5919523,-0.075 0.079444,0.0458 0.079924,0.0468 0.074044,0.15543 -0.0036,0.0601 -2.04e-4,0.19301 0.0072,0.29527 l 0.034922,0.61777 c -0.0048,0.1682 -0.013561,0.18721 -0.1338064,0.27505 -0.072964,0.0534 -0.090364,0.057 -0.2740211,0.057 -0.1233419,0 -0.229415,-0.012 -0.2859737,-0.0307 -0.1294622,-0.0443 -0.6747442,-0.0905 -0.8089346,-0.0686 -0.059643,0.01 -0.1554795,0.0408 -0.2130822,0.0691 -0.1322824,0.0652 -0.3377322,0.28175 -0.3666656,0.3866 -0.030121,0.10908 -0.025921,0.30532 0.0096,0.48122 0.089644,0.43685 0.273097,0.62427 0.5926963,0.60562 0.2535722,-0.0148 0.4406011,-0.14466 0.5730634,-0.39797 0.068043,-0.13008 0.2649607,-0.42214 0.3845344,-0.57027 0.1284542,-0.15911 0.3783061,-0.21583 0.605417,-0.13744 l 0.099365,0.0343 0.1211818,0.36182 c 0.1698562,0.50714 0.270337,0.6951 0.4838392,0.90483 0.033362,0.0329 0.2264508,0.1793 0.4007231,0.30756 -0.068523,0.0451 -0.1207737,0.0737 -0.147139,0.0768 -0.092164,0.0108 -0.1140054,0.0226 -0.16802,0.0902 -0.1003248,0.12562 -0.1595717,0.14755 -0.3998952,0.14797 -0.2013456,3.5e-4 -0.2161903,0.004 -0.3695936,0.0769 -0.1948654,0.0934 -0.2580004,0.1513 -0.2899099,0.26594 -0.033242,0.11928 -0.012001,0.2406 0.072003,0.40926 0.096245,0.19367 0.2237867,0.29882 0.4417292,0.36434 0.1083652,0.0326 0.2148582,0.005 0.3652974,-0.0974 0.1403348,-0.0948 0.1918172,-0.18879 0.2178465,-0.39755 0.024481,-0.19628 0.071043,-0.3209 0.189585,-0.50697 0.069483,-0.10907 0.1051251,-0.14558 0.1595957,-0.16368 l 0.070203,-0.0233 0.5656471,0.42024 c 0.3111269,0.23115 0.6309782,0.46238 0.71077,0.51384 0.2192985,0.14144 0.2696769,0.26224 0.1863929,0.44675 -0.049202,0.10907 -0.1143655,0.15691 -0.2841736,0.20882 -0.1506312,0.0461 -0.2223226,0.10344 -0.2698929,0.21609 -0.042602,0.10091 -0.033962,0.2621 0.020281,0.37756 0.088324,0.18794 0.2142942,0.26479 0.5283972,0.32238 0.2426756,0.0445 0.3381042,0.0332 0.5327175,-0.0628 0.1392307,-0.0686 0.1656199,-0.0904 0.2047778,-0.16847 0.081004,-0.16167 0.047642,-0.3029 -0.1178456,-0.49743 -0.1018849,-0.11987 -0.1768765,-0.25965 -0.1767925,-0.32967 1.92e-4,-0.0749 0.066003,-0.1657 0.1707442,-0.23551 0.1090852,-0.0727 0.1090852,-0.0727 0.3785581,-0.0334 0.1099252,0.0161 0.2468878,0.0293 0.3044665,0.0295 0.1016449,3.7e-4 0.1066852,0.004 0.1741764,0.0959 0.086644,0.11904 0.1306742,0.24435 0.1306742,0.37171 0,0.0797 -0.018961,0.13358 -0.1002048,0.28531 -0.1330383,0.24832 -0.2387754,0.51955 -0.2531881,0.64937 -0.017041,0.15349 0.030002,0.26014 0.1739123,0.3942 0.064683,0.0602 0.1562115,0.12326 0.2034818,0.14008 0.250968,0.0893 0.5431813,-0.0323 0.6614473,-0.27532 0.102965,-0.21172 0.09216,-0.41084 -0.033,-0.60552 -0.03552,-0.0553 -0.117485,-0.20793 -0.18218,-0.3392 -0.106325,-0.21601 -0.118326,-0.25326 -0.125478,-0.39198 -0.0072,-0.13076 -0.0011,-0.16657 0.0384,-0.24373 l 0.04632,-0.0905 0.369581,-0.012 c 0.461626,-0.0144 0.540038,-0.0389 0.8713375,-0.27238 l 0.122166,-0.0862 0.102605,0.21738 c 0.0564,0.11952 0.102605,0.22814 0.102605,0.2413 0,0.0132 -0.01368,0.0506 -0.03048,0.0833 -0.122129,0.23762 -0.04044,0.64108 0.16688,0.82474 0.170456,0.15097 0.538046,0.21355 0.776125,0.13207 0.249516,-0.0854 0.353537,-0.23095 0.354797,-0.49644 6.36e-4,-0.13156 -0.0084,-0.16944 -0.06456,-0.28511 -0.07764,-0.15869 -0.222346,-0.29879 -0.359285,-0.34785 -0.217306,-0.0779 -0.307815,-0.117 -0.352841,-0.15268 -0.02628,-0.0208 -0.099,-0.11952 -0.161623,-0.21943 -0.135139,-0.21551 -0.144391,-0.19103 0.149803,-0.39598 0.104525,-0.0728 0.234803,-0.16799 0.289514,-0.21149 0.08724,-0.0695 0.108965,-0.0779 0.177536,-0.0686 0.177681,0.024 0.431829,0.38127 0.561675,0.78964 0.08472,0.26635 0.216034,0.38386 0.511464,0.45766 0.244908,0.0612 0.386131,0.031 0.472055,-0.10092 0.0744,-0.11435 0.01224,-0.52903 -0.118686,-0.79094 -0.08208,-0.16419 -0.117605,-0.17822 -0.454497,-0.17985 -0.320812,-0.001 -0.339521,-0.0121 -0.476615,-0.2672 l -0.101645,-0.18908 -0.236687,-0.0334 c -0.01788,-0.002 -0.03804,-0.007 -0.05976,-0.0136 0.121025,-0.11747 0.239243,-0.24251 0.306422,-0.24192 0.02844,2.5e-4 0.0972,-0.0692 0.223223,-0.22574 0.246624,-0.30621 0.257268,-0.3166 0.325024,-0.3166 0.075,0 0.118925,0.0485 0.219322,0.24267 0.06204,0.1201 0.113886,0.18582 0.225335,0.28566 0.161084,0.14434 0.238007,0.19004 0.361013,0.21451 0.204046,0.0406 0.371262,2.2e-4 0.502248,-0.12128 0.107045,-0.0992 0.139303,-0.20393 0.126222,-0.40905 -0.01236,-0.19452 -0.07884,-0.33196 -0.231263,-0.47822 -0.09372,-0.0899 -0.135774,-0.11544 -0.220762,-0.13376 -0.155372,-0.0335 -0.27419,-0.0278 -0.422937,0.0204 -0.166472,0.054 -0.25476,0.0408 -0.356009,-0.0533 -0.06384,-0.0593 -0.06996,-0.0727 -0.04788,-0.10428 0.08604,-0.12237 0.146287,-0.29397 0.185805,-0.52884 0.02328,-0.13814 0.04572,-0.25476 0.05004,-0.2592 0.0048,-0.005 0.07884,0.0242 0.165872,0.0636 0.09553,0.0433 0.220211,0.081 0.314955,0.0952 0.241104,0.0361 0.311799,0.0749 0.371622,0.20372 0.02748,0.0593 0.06612,0.15265 0.08568,0.20745 0.0462,0.12905 0.09505,0.17609 0.240156,0.23098 0.331984,0.12555 0.644982,-0.046 0.718186,-0.39363 0.08052,-0.38252 -0.03396,-0.8253 -0.268213,-1.03721 -0.142507,-0.12893 -0.357449,-0.18063 -0.567879,-0.13668 -0.143779,0.03 -0.219154,0.0938 -0.265921,0.22521 -0.03216,0.0902 -0.0486,0.10895 -0.126846,0.14416 -0.103805,0.0467 -0.252432,0.0527 -0.429524,0.0172 -0.0462,-0.01 -0.114486,-0.0132 -0.196258,-0.013 l 0.04368,-0.40981 c 0.0012,-0.0626 0.0126,-0.18496 0.0252,-0.27183 0.03216,-0.22307 0.012,-0.60857 -0.04212,-0.79686 -0.02376,-0.0829 -0.078,-0.21785 -0.120726,-0.29983 -0.04272,-0.082 -0.07296,-0.15662 -0.06732,-0.16585 0.01836,-0.03 0.110045,-0.0179 0.250236,0.033 0.145879,0.0529 0.480491,0.11099 0.639834,0.11099 0.151495,0 0.350801,-0.0756 0.448366,-0.16994 0.104045,-0.10068 0.135582,-0.20628 0.123413,-0.41299 -0.0108,-0.18167 -0.0576,-0.28379 -0.199893,-0.43516 -0.151651,-0.16135 -0.256752,-0.19618 -0.594773,-0.1972 -0.368333,-0.001 -0.366845,-0.002 -0.622697,0.36292 -0.111126,0.15858 -0.208654,0.28426 -0.216635,0.27929 -0.0084,-0.005 -0.02028,-0.0378 -0.02724,-0.073 -0.03624,-0.18259 -0.240551,-0.50645 -0.526645,-0.83501 -0.147163,-0.16902 -0.224987,-0.2843 -0.224987,-0.33329 0,-0.0526 0.17588,-0.23043 0.356405,-0.3604 0.09516,-0.0685 0.222455,-0.1695 0.28289,-0.22438 0.140118,-0.12726 0.296318,-0.20122 0.537517,-0.25452 0.231719,-0.0512 0.27725,-0.0724 0.324724,-0.15049 0.08304,-0.13684 0.01596,-0.36854 -0.211834,-0.73189 -0.182769,-0.29145 -0.390595,-0.44232 -0.634183,-0.46036 l -0.113645,-0.008 -0.110645,0.10523 c -0.182073,0.17327 -0.270469,0.36277 -0.312075,0.66884 -0.02172,0.15973 -0.147727,0.538 -0.239568,0.71913 -0.06084,0.12008 -0.201069,0.25313 -0.297254,0.28212 l -0.08184,0.0247 -0.224711,-0.22069 c -0.123581,-0.12137 -0.26754,-0.24586 -0.319923,-0.27666 -0.122514,-0.072 -0.326151,-0.14081 -0.50736,-0.17137 -0.206878,-0.0349 -0.237168,-0.0865 -0.204454,-0.34863 0.03672,-0.29386 0.172472,-0.49051 0.474623,-0.68718 0.07692,-0.05 0.158467,-0.11483 0.181244,-0.14396 0.05772,-0.0739 0.121194,-0.29269 0.121194,-0.41796 0,-0.16733 -0.12501,-0.3231 -0.354065,-0.44105 -0.118805,-0.0612 -0.429272,-0.13308 -0.5748985,-0.1331 z m 0.1644195,3.26182 c 0.0684,10e-4 0.137562,0.008 0.206961,0.0227 0.508297,0.10031 0.915668,0.50021 1.02827,1.00947 0.04692,0.21224 0.03084,0.50514 -0.03876,0.70706 -0.146743,0.42552 -0.481871,0.74037 -0.903559,0.84889 -0.295023,0.076 -0.6470345,0.0366 -0.9034155,-0.10091 -0.449505,-0.24107 -0.7335827,-0.7569 -0.6950008,-1.26199 0.054123,-0.70874 0.6444068,-1.24046 1.3055303,-1.22523 z m -3.0612983,4.5e-4 c 0.076804,-2.2e-4 0.1540873,0.007 0.230951,0.0221 0.5114765,0.10092 0.9237442,0.50811 1.0300213,1.01725 0.041042,0.19678 0.027601,0.48236 -0.031681,0.67338 -0.1324984,0.42663 -0.4849072,0.76513 -0.9106276,0.87468 -0.2970862,0.0764 -0.647683,0.0371 -0.9065713,-0.10175 -0.5597188,-0.30018 -0.8247035,-0.96504 -0.6307742,-1.58274 0.168032,-0.53523 0.6810806,-0.9011 1.2186823,-0.90291 z m 0.0096,0.54682 c -0.1875449,0 -0.2214106,0.006 -0.3197673,0.0544 -0.2890818,0.14286 -0.4573418,0.44428 -0.4330647,0.7757 0.023881,0.32595 0.229139,0.59243 0.5312774,0.6897 0.3842824,0.1237 0.7966341,-0.0931 0.9348207,-0.49158 0.024241,-0.07 0.035522,-0.15917 0.034802,-0.27522 -9.96e-4,-0.14887 -0.0096,-0.18954 -0.063603,-0.30599 -0.079084,-0.16991 -0.2111861,-0.31273 -0.3591772,-0.38814 -0.1058451,-0.0539 -0.1329424,-0.0588 -0.3252156,-0.0588 z m 3.0366013,0 c -0.1890805,0 -0.2209425,0.006 -0.3231875,0.056 -0.148687,0.0734 -0.317871,0.25694 -0.378678,0.41062 -0.03648,0.0923 -0.04608,0.15579 -0.04656,0.30726 -4.32e-4,0.17222 0.006,0.20379 0.06108,0.32162 0.105245,0.22336 0.249324,0.35454 0.46573,0.42421 0.3740455,0.12041 0.7808775,-0.0828 0.9211515,-0.46002 0.147355,-0.39627 -0.01896,-0.82722 -0.389946,-1.0104 -0.08676,-0.0428 -0.127422,-0.0493 -0.309663,-0.0493 z m -0.1803445,0.77539 c 0.04188,4.6e-4 0.06144,0.0155 0.109926,0.0643 0.056399,0.0568 0.07044,0.0865 0.07044,0.14888 0,0.0959 -0.04416,0.1627 -0.131801,0.19956 -0.08148,0.0343 -0.100445,0.0341 -0.182649,-0.002 -0.08316,-0.0364 -0.135115,-0.14082 -0.117366,-0.23599 0.018,-0.0967 0.09061,-0.15873 0.200326,-0.17117 0.02076,-0.002 0.0372,-0.004 0.05112,-0.004 z m -2.6332261,0.008 c 0.087604,0 0.1070451,0.008 0.1581796,0.0656 0.1038049,0.117 0.068763,0.27871 -0.073564,0.33851 -0.081484,0.0343 -0.1004448,0.0341 -0.1826487,-0.002 -0.1321863,-0.0578 -0.1613597,-0.25161 -0.053282,-0.35382 0.040082,-0.0379 0.073084,-0.0485 0.1511952,-0.0485 z m 2.8040176,2.86463 c 0.417356,0.41653 0.02052,0.78536 -0.3301945,0.73967 -1.0228817,0.0462 -1.4013318,-0.75814 -3.0058085,-0.63689 -0.6541033,-0.16692 -0.088924,-0.634 1.1830765,-0.68135 1.056423,0.10092 1.165244,0.0456 2.1529265,0.57857 z"
       id="path1377"
       inkscape:connector-curvature="0"
       sodipodi:nodetypes="cccccsscsccccscccccccccccccscccsccccccccsccccccscccccccccscccccscccccccccsccccccccccccccsccccccccssccssccccccccccscssccsccsccsssssccccccssssscccsccccsscccssscccccccccssscccccccsccccccccscccccccccssccccsccscsccccccssscsscccsscccccccsscscccccscccssccccccc" />
  </g>
</svg>
