<?xml version="1.0" encoding="utf-8" standalone="no"?>
<svg version="1.0" width="64" height="64" xmlns="http://www.w3.org/2000/svg">
  <rect style="fill:none;opacity:0" width="64" height="64"/>
  <path style="fill:#ffffff" d="m 37.48,8 c -0.74,-0 -1,0.14 -1.28,0.72 -0.2,0.41 -0.23,0.53 -0.22,1.14 0,0.51 0.05,0.86 0.2,1.37 0.22,0.75 0.28,1.21 0.3,2.14 0.01,0.55 -0.02,0.67 -0.21,1.01 -0.25,0.45 -0.74,0.91 -0.98,0.91 -0.09,0 -0.52,-0.07 -0.95,-0.16 -0.69,-0.14 -0.92,-0.15 -1.92,-0.11 -0.62,0.03 -1.28,0.06 -1.47,0.07 -0.32,0.02 -0.35,-0 -0.51,-0.29 -0.36,-0.64 -0.31,-1.36 0.18,-2.56 0.36,-0.88 0.38,-1.34 0.09,-1.97 -0.38,-0.83 -1.03,-1.36 -1.67,-1.36 -0.4,0 -1.03,0.3 -1.3,0.62 -0.41,0.49 -0.52,0.82 -0.52,1.47 0,0.79 0.2,1.25 0.87,2 l 0.51,0.56 0.12,0.78 c 0.17,1.11 0.18,1.08 -0.2,1.17 -0.74,0.19 -1.98,0.55 -2.36,0.68 l -0.41,0.14 -0.31,-0.62 0.27,-0.59 c 0.48,-1.03 0.44,-1.46 -0.19,-2.16 -0.44,-0.48 -0.85,-0.65 -1.61,-0.65 -1.13,0 -1.94,0.84 -1.94,2.01 0,0.27 0.05,0.61 0.12,0.78 0.16,0.39 0.68,0.92 1.02,1.03 0.82,0.27 1.21,1.07 0.66,1.39 -0.51,0.3 -1.44,1.06 -2.26,1.85 -0.79,0.76 -0.89,0.83 -1.33,0.95 l -0.48,0.13 -0.38,-0.21 c -0.6,-0.33 -1.07,-0.92 -1.61,-2.04 -0.28,-0.57 -0.59,-1.09 -0.73,-1.23 -0.7,-0.67 -1.86,-0.85 -2.59,-0.4 -0.66,0.41 -1.14,1.81 -0.83,2.42 0.29,0.57 1.15,1.08 2.03,1.22 0.55,0.09 0.94,0.22 1.71,0.6 0.76,0.37 1.12,0.8 1.24,1.46 0.05,0.26 0.02,0.31 -0.44,0.83 -0.97,1.08 -1.48,2.44 -1.89,4.99 -0.05,0.28 -0.09,0.35 -0.36,0.49 -0.28,0.14 -0.36,0.15 -0.76,0.08 -0.77,-0.14 -1.15,-0.38 -2.6,-1.59 -0.23,-0.19 -0.96,-0.4 -1.38,-0.4 -0.77,0 -1.57,0.31 -2.1,0.8 -0.87,0.81 -0.97,1.97 -0.25,2.71 0.19,0.2 0.53,0.39 1.09,0.63 1.43,0.61 1.83,0.59 3.45,-0.11 1.23,-0.54 1.69,-0.6 2.24,-0.28 0.3,0.17 0.3,0.18 0.28,0.59 -0.01,0.23 -0,0.73 0.03,1.12 l 0.13,2.33 c -0.02,0.64 -0.05,0.71 -0.51,1.04 -0.28,0.2 -0.34,0.22 -1.04,0.22 -0.47,0 -0.87,-0.05 -1.08,-0.12 -0.49,-0.17 -2.55,-0.34 -3.06,-0.26 -0.23,0.04 -0.59,0.15 -0.81,0.26 -0.5,0.25 -1.28,1.06 -1.39,1.46 -0.11,0.41 -0.1,1.15 0.04,1.82 0.34,1.65 1.03,2.36 2.24,2.29 0.96,-0.06 1.67,-0.55 2.17,-1.5 0.26,-0.49 1,-1.6 1.45,-2.16 0.49,-0.6 1.43,-0.82 2.29,-0.52 l 0.38,0.13 0.46,1.37 c 0.64,1.92 1.02,2.63 1.83,3.42 0.13,0.12 0.86,0.68 1.51,1.16 -0.26,0.17 -0.46,0.28 -0.56,0.29 -0.35,0.04 -0.43,0.09 -0.64,0.34 -0.38,0.47 -0.6,0.56 -1.51,0.56 -0.76,0 -0.82,0.02 -1.4,0.29 -0.74,0.35 -0.98,0.57 -1.1,1.01 -0.13,0.45 -0.05,0.91 0.27,1.55 0.36,0.73 0.85,1.13 1.67,1.38 0.41,0.12 0.81,0.02 1.38,-0.37 0.53,-0.36 0.72,-0.71 0.82,-1.5 0.09,-0.74 0.27,-1.21 0.72,-1.92 0.26,-0.41 0.4,-0.55 0.6,-0.62 l 0.27,-0.09 2.14,1.59 c 1.18,0.87 2.38,1.75 2.69,1.94 0.83,0.53 1.02,0.99 0.7,1.69 -0.19,0.41 -0.43,0.59 -1.07,0.79 -0.57,0.17 -0.84,0.39 -1.02,0.82 -0.16,0.38 -0.13,0.99 0.08,1.43 0.33,0.71 0.81,1 2,1.22 0.92,0.17 1.28,0.13 2.01,-0.24 0.53,-0.26 0.63,-0.34 0.77,-0.64 0.31,-0.61 0.18,-1.14 -0.45,-1.88 -0.39,-0.45 -0.67,-0.98 -0.67,-1.25 0,-0.28 0.25,-0.63 0.65,-0.89 0.41,-0.27 0.41,-0.27 1.43,-0.13 0.42,0.06 0.93,0.11 1.15,0.11 0.38,0 0.4,0.02 0.66,0.36 0.33,0.45 0.49,0.92 0.49,1.4 0,0.3 -0.07,0.5 -0.38,1.08 -0.5,0.94 -0.9,1.96 -0.96,2.45 -0.06,0.58 0.11,0.98 0.66,1.49 0.24,0.23 0.59,0.47 0.77,0.53 0.95,0.34 2.05,-0.12 2.5,-1.04 0.39,-0.8 0.35,-1.55 -0.12,-2.29 -0.13,-0.21 -0.44,-0.79 -0.69,-1.28 -0.4,-0.82 -0.45,-0.96 -0.47,-1.48 -0.03,-0.49 -0,-0.63 0.15,-0.92 l 0.18,-0.34 1.4,-0.05 c 1.74,-0.05 2.04,-0.15 3.29,-1.03 l 0.46,-0.33 0.39,0.82 c 0.21,0.45 0.39,0.86 0.39,0.91 0,0.05 -0.05,0.19 -0.12,0.31 -0.46,0.9 -0.15,2.42 0.63,3.12 0.64,0.57 2.03,0.81 2.93,0.5 0.94,-0.32 1.34,-0.87 1.34,-1.88 0,-0.5 -0.03,-0.64 -0.24,-1.08 -0.29,-0.6 -0.84,-1.13 -1.36,-1.31 -0.82,-0.29 -1.16,-0.44 -1.33,-0.58 -0.1,-0.08 -0.37,-0.45 -0.61,-0.83 -0.51,-0.81 -0.55,-0.72 0.57,-1.5 0.4,-0.28 0.89,-0.63 1.09,-0.8 0.33,-0.26 0.41,-0.29 0.67,-0.26 0.67,0.09 1.63,1.44 2.12,2.98 0.32,1.01 0.82,1.45 1.93,1.73 0.93,0.23 1.46,0.12 1.78,-0.38 0.28,-0.43 0.05,-2 -0.45,-2.99 -0.31,-0.62 -0.44,-0.67 -1.72,-0.68 -1.21,-0 -1.28,-0.05 -1.8,-1.01 l -0.38,-0.71 -0.89,-0.13 c -0.07,-0.01 -0.14,-0.03 -0.23,-0.05 0.84,-0.66 1.02,-0.83 2,-1.77 0.93,-1.16 0.97,-1.2 1.23,-1.2 0.28,0 0.45,0.18 0.83,0.92 0.23,0.45 0.43,0.7 0.85,1.08 0.61,0.55 0.9,0.72 1.36,0.81 0.77,0.15 1.4,0 1.9,-0.46 0.4,-0.37 0.53,-0.77 0.48,-1.55 -0.05,-0.74 -0.3,-1.25 -0.87,-1.81 -0.35,-0.34 -0.51,-0.44 -0.83,-0.51 -0.59,-0.13 -1.04,-0.11 -1.6,0.08 -0.63,0.2 -0.96,0.15 -1.35,-0.2 -0.24,-0.22 -0.26,-0.27 -0.18,-0.39 0.33,-0.46 0.55,-1.11 0.7,-2 0.09,-0.52 0.17,-0.96 0.19,-0.98 0.02,-0.02 0.3,0.09 0.63,0.24 0.36,0.16 0.83,0.31 1.19,0.36 0.91,0.14 1.18,0.28 1.4,0.77 0.1,0.22 0.25,0.58 0.32,0.78 0.17,0.49 0.36,0.67 0.91,0.87 1.25,0.47 2.44,-0.17 2.71,-1.49 0.3,-1.45 -0.13,-3.12 -1.01,-3.92 -0.54,-0.49 -1.35,-0.68 -2.15,-0.52 -0.54,0.11 -0.83,0.35 -1.01,0.85 -0.12,0.34 -0.18,0.41 -0.48,0.54 -0.39,0.18 -0.95,0.2 -1.62,0.07 -0.17,-0.04 -0.43,-0.05 -0.74,-0.05 l 0.17,-1.55 c 0,-0.24 0.05,-0.7 0.1,-1.03 0.12,-0.84 0.05,-2.3 -0.16,-3.01 -0.09,-0.31 -0.29,-0.82 -0.46,-1.13 -0.16,-0.31 -0.28,-0.59 -0.25,-0.63 0.07,-0.11 0.42,-0.07 0.95,0.12 0.55,0.2 1.82,0.42 2.42,0.42 0.57,0 1.33,-0.29 1.69,-0.64 0.39,-0.38 0.51,-0.78 0.47,-1.56 -0.04,-0.69 -0.22,-1.07 -0.76,-1.64 -0.57,-0.61 -0.97,-0.74 -2.25,-0.75 -1.39,-0 -1.39,-0.01 -2.35,1.37 -0.42,0.6 -0.79,1.07 -0.82,1.06 -0.03,-0.02 -0.08,-0.14 -0.1,-0.28 -0.14,-0.69 -0.91,-1.91 -1.99,-3.16 -0.56,-0.64 -0.85,-1.07 -0.85,-1.26 0,-0.2 0.66,-0.87 1.35,-1.36 0.36,-0.26 0.84,-0.64 1.07,-0.85 0.53,-0.48 1.12,-0.76 2.03,-0.96 0.88,-0.19 1.05,-0.27 1.23,-0.57 0.31,-0.52 0.06,-1.39 -0.8,-2.77 -0.69,-1.1 -1.48,-1.67 -2.4,-1.74 l -0.43,-0.03 -0.42,0.4 c -0.69,0.65 -1.02,1.37 -1.18,2.53 -0.08,0.6 -0.56,2.03 -0.91,2.72 -0.23,0.45 -0.76,0.96 -1.12,1.07 l -0.31,0.09 -0.85,-0.83 c -0.47,-0.46 -1.01,-0.93 -1.21,-1.05 -0.46,-0.27 -1.23,-0.53 -1.92,-0.65 -0.78,-0.13 -0.9,-0.33 -0.77,-1.32 0.14,-1.11 0.65,-1.85 1.79,-2.6 0.29,-0.19 0.6,-0.43 0.69,-0.54 0.22,-0.28 0.46,-1.11 0.46,-1.58 0,-0.63 -0.47,-1.22 -1.34,-1.67 -0.45,-0.23 -1.62,-0.5 -2.17,-0.5 z m 0.62,12.33 c 0.26,0 0.52,0.03 0.78,0.09 1.92,0.38 3.46,1.89 3.89,3.82 0.18,0.8 0.12,1.91 -0.15,2.67 -0.55,1.61 -1.82,2.8 -3.42,3.21 -1.12,0.29 -2.45,0.14 -3.41,-0.38 -1.7,-0.91 -2.77,-2.86 -2.63,-4.77 0.2,-2.68 2.44,-4.69 4.93,-4.63 z m -11.57,0 c 0.29,-0 0.58,0.03 0.87,0.08 1.93,0.38 3.49,1.92 3.89,3.84 0.16,0.74 0.1,1.82 -0.12,2.55 -0.5,1.61 -1.83,2.89 -3.44,3.31 -1.12,0.29 -2.45,0.14 -3.43,-0.38 -2.12,-1.13 -3.12,-3.65 -2.38,-5.98 0.64,-2.02 2.57,-3.41 4.61,-3.41 z m 0.04,2.07 c -0.71,0 -0.84,0.02 -1.21,0.21 -1.09,0.54 -1.73,1.68 -1.64,2.93 0.09,1.23 0.87,2.24 2.01,2.61 1.45,0.47 3.01,-0.35 3.53,-1.86 0.09,-0.26 0.13,-0.6 0.13,-1.04 -0,-0.56 -0.04,-0.72 -0.24,-1.16 -0.3,-0.64 -0.8,-1.18 -1.36,-1.47 -0.4,-0.2 -0.5,-0.22 -1.23,-0.22 z m 11.48,0 c -0.71,0 -0.84,0.02 -1.22,0.21 -0.56,0.28 -1.2,0.97 -1.43,1.55 -0.14,0.35 -0.17,0.59 -0.18,1.16 -0,0.65 0.02,0.77 0.23,1.22 0.4,0.84 0.94,1.34 1.76,1.6 1.41,0.46 2.95,-0.31 3.48,-1.74 0.56,-1.5 -0.07,-3.13 -1.47,-3.82 -0.33,-0.16 -0.48,-0.19 -1.17,-0.19 z m -0.2,3.2 c 0.16,0.18 0.2,0.3 0.2,0.54 0,0.36 -0.17,0.61 -0.5,0.75 -0.31,0.13 -0.38,0.13 -0.69,-0.01 -0.31,-0.14 -0.51,-0.53 -0.44,-0.89 0.07,-0.37 0.41,-0.61 0.76,-0.65 0.35,-0.04 0.51,0.07 0.67,0.26 z m -10.43,-0.24 c 0.33,0 0.4,0.03 0.6,0.25 0.39,0.44 0.26,1.05 -0.28,1.28 -0.31,0.13 -0.38,0.13 -0.69,-0.01 -0.5,-0.22 -0.61,-0.95 -0.2,-1.34 0.15,-0.14 0.28,-0.18 0.57,-0.18 z m 10.6,10.83 c 1.58,1.57 0.08,2.97 -1.25,2.8 -3.87,0.17 -5.3,-2.87 -11.36,-2.41 -2.47,-0.63 -0.34,-2.4 4.47,-2.58 3.99,0.38 4.4,0.17 8.14,2.19 z"/>
</svg>
