<?xml version="1.0" encoding="utf-8" standalone="no"?>
<svg version="1.0" width="64" height="64" xmlns="http://www.w3.org/2000/svg">
  <rect style="fill:none;opacity:0" width="64" height="64"/>
  <path style="fill:#ffffff" d="m 42.9,39.6 5.8,-12.4 c 0.8,-1.7 -0.4,-3 -2.6,-3 H 30.3 c -2.2,0 -1,-1.6 -0.1,-3.6 L 35.5,9.4 C 36.4,7.5 34.8,7 32.6,7 h -4.7 c -2.2,0 -4.1,0.5 -5.1,2.4 0,0 -8.4,17.8 -8.4,17.8 -0.8,1.7 0.4,3 2.6,3 h 18.5 c 2.2,0 1,1.6 0.1,3.6 l -2.7,5.8 H 22 c -2.2,0 -2.1,1.3 -1,3.2 l 6.8,12.7 c 1,1.9 2.9,1.8 4.7,0.6 L 53.4,41.9 c 1.8,-1.2 1.5,-2.2 -0.7,-2.2 z"/>
</svg>
