<?xml version="1.0" encoding="utf-8" standalone="no"?>
<svg version="1.0" width="64" height="64" xmlns="http://www.w3.org/2000/svg">
  <rect style="fill:none;opacity:0" width="64" height="64"/>
  <g style="fill:#ffffff">
    <path style="opacity:0.5;fill:#ffffff" d="m 50.2,32 c -1,0 -1.8,0.8 -1.8,1.8 v 12.7 c 0,1 -0.8,1.9 -1.8,1.9 H 17.5 c -1.1,0 -1.9,-0.9 -1.9,-1.9 v -29 c 0,-1 0.8,-1.9 1.8,-1.9 h 12.8 c 1,0 1.8,-0.8 1.8,-1.8 0,-1 -0.8,-1.8 -1.8,-1.8 H 17.5 C 14.4,12 12,14.4 12,17.5 v 29 c 0,3.1 2.4,5.5 5.5,5.5 h 29 C 49.6,52 52,49.6 52,46.5 V 33.8 C 52,32.8 51.2,32 50.2,32 z"/>
    <path d="M 52,13.8 C 52,12.8 51.1,12 50.2,12 H 39.3 c -1,0 -1.8,0.8 -1.8,1.8 0,1 0.8,1.8 1.8,1.8 h 6.5 L 30.9,30.5 c -0.7,0.7 -0.7,1.9 0,2.6 0.7,0.7 1.9,0.7 2.6,0 L 48.4,18.2 v 6.5 c 0,1 0.8,1.8 1.8,1.8 1,0 1.8,-0.8 1.8,-1.8 z"/>
  </g>
</svg>
