<?xml version="1.0" encoding="utf-8" standalone="no"?>
<svg version="1.0" width="64" height="64" xmlns="http://www.w3.org/2000/svg">
  <rect style="fill:none;opacity:0" width="64" height="64"/>
  <g style="fill:#ffffff">
    <path style="opacity:0.6" d="M 17.5 10 C 15.6 10 14 11.3 14 13 L 14 15 L 12.5 15 C 10.6 15 9 16.6 9 18.5 L 9 48.5 C 9 50.4 10.6 52 12.5 52 L 49.5 52 C 51.4 52 53 50.4 53 48.5 L 53 47 L 55 47 C 56.7 47 58 45.4 58 43.5 L 58 13.5 C 58 11.6 56.4 10 54.5 10 L 17.5 10 z M 17.5 12 L 54.5 12 C 55.3 12 56 12.7 56 13.5 L 56 43.5 C 56 44.4 55.5 45 55 45 L 53 45 L 53 18.5 C 53 16.6 51.4 15 49.5 15 L 16 15 L 16 13 C 16 12.5 16.6 12 17.5 12 z M 12.5 17 L 49.5 17 C 50.3 17 51 17.7 51 18.5 L 51 48.5 C 51 49.3 50.3 50 49.5 50 L 12.5 50 C 11.7 50 11 49.3 11 48.5 L 11 18.5 C 11 17.7 11.7 17 12.5 17 z"/>
    <path style="opacity:0.5" d="m 32.9,44 h -13.8 c -0.6,0 -1.2,-0.3 -1.6,-0.8 -0.4,-0.5 -0.6,-1.1 -0.5,-1.7 0.5,-2.8 2.2,-5.2 4.6,-6.5 -1,-1.1 -1.6,-2.6 -1.6,-4.2 0,-1.7 0.7,-3.4 2,-4.6 1.3,-1.2 2.9,-1.7 4.7,-1.5 2.8,0.3 5,2.6 5.3,5.4 0.2,1.8 -0.4,3.6 -1.6,4.9 2.4,1.3 4.1,3.7 4.6,6.5 0.1,0.6 -0.1,1.3 -0.5,1.7 -0.4,0.5 -1,0.8 -1.6,0.8 z"/>
    <path d="M 33.64,45.02 H 18.36 c -0.69,0 -1.35,-0.31 -1.8,-0.84 -0.45,-0.53 -0.64,-1.23 -0.52,-1.92 0.53,-3.1 2.43,-5.75 5.1,-7.23 -1.16,-1.24 -1.81,-2.88 -1.81,-4.63 0,-1.94 0.82,-3.79 2.26,-5.07 1.43,-1.28 3.27,-1.86 5.18,-1.65 3.07,0.35 5.54,2.86 5.88,5.97 0.22,2.02 -0.45,3.96 -1.77,5.38 2.67,1.48 4.57,4.13 5.1,7.23 0.12,0.69 -0.07,1.39 -0.52,1.92 -0.45,0.53 -1.11,0.84 -1.8,0.84 z M 22.91,26.82 c -1.01,0.91 -1.59,2.21 -1.59,3.58 0,1.65 0.83,3.16 2.21,4.04 l 1.73,1.1 -1.94,0.69 c -2.78,0.98 -4.82,3.43 -5.33,6.37 -0.04,0.22 0.14,0.42 0.35,0.42 h 15.3 c 0.21,0 0.39,-0.2 0.35,-0.42 -0.5,-2.94 -2.54,-5.38 -5.33,-6.37 l -1.94,-0.69 1.73,-1.1 c 1.54,-0.98 2.38,-2.73 2.18,-4.58 -0.23,-2.19 -1.96,-3.96 -4.11,-4.2 -1.4,-0.17 -2.56,0.35 -3.61,1.16 z"/>
  </g>
</svg>
