<?xml version="1.0" encoding="utf-8" standalone="no"?>
<svg version="1.0" width="95" height="95" xmlns="http://www.w3.org/2000/svg">
  <path style="fill:#ffffff" d="M 10,85 H 5 v 5 H 0 V 75 h 5 v 5 h 5 V 65 H 0 v -5 h 5 v -5 h 10 v -5 h 5 v 5 h -5 v 5 H 25 V 45 H 10 v 5 H 0 V 45 H 10 V 40 H 5 V 30 H 20 V 25 H 15 V 10 h 10 v 10 h 5 v 5 h 5 v -5 h 5 V 10 H 35 V 5 h 5 v 5 h 10 v 5 h -5 v 5 h -5 v 5 h 10 v -5 h 5 v -5 h 5 v 5 h 5 v 5 h 5 V 15 H 65 V 10 H 55 V 5 h 5 V 0 h 15 v 5 h -5 v 10 h 5 v 15 h 5 V 20 h 5 v -5 h 5 V 5 h -5 v 5 H 80 V 5 h 5 V 0 h 5 v 5 h 5 v 10 h -5 v 5 h -5 v 10 h 5 v -5 h 5 v 30 h -5 v 5 h 5 v 10 h -5 v 5 h -5 v -5 h -5 v 10 h 5 v 10 h -5 v 5 h -5 v -5 h -5 v 5 H 60 v -5 h 10 v -5 h 5 V 80 H 65 v 5 H 50 v 5 h 5 v 5 h -5 v -5 h -5 v -5 h -5 v -5 h -5 v 5 h -5 v 5 H 25 V 85 H 20 V 80 H 10 v 5 h 5 v 10 h -5 z m 70,0 h -5 v 5 h 5 z M 50,80 h -5 v 5 h 5 z M 30,70 h -5 v -5 h -5 v 15 h 10 z m 45,0 h 5 v -5 h -5 v -5 h -5 v 5 h 5 v 5 H 45 v 5 H 75 Z M 90,60 h -5 v 10 h 5 z M 65,30 H 30 V 65 H 65 Z M 35,35 H 60 V 60 H 35 Z m 20,5 H 40 v 15 h 15 z m -10,5 h 5 v 5 h -5 z m 45,5 H 75 V 40 h -5 v 10 h 5 v 5 H 90 Z M 85,35 h -5 v 10 h 5 z M 25,30 h -5 v 5 h -5 v 5 h 10 z m 50,0 h -5 v 5 h 5 z M 35,90 h 5 v 5 h -5 z m 55,-5 h 5 v 5 H 90 Z M 5,20 H 0 v -5 h 5 v 5 h 5 v 5 H 5 Z M 0,0 H 20 V 5 H 5 v 5 H 0 z"/>
</svg>
