<?xml version="1.0" encoding="UTF-8" standalone="no"?>
<svg
   xmlns:svg="http://www.w3.org/2000/svg"
   xmlns="http://www.w3.org/2000/svg"
   xmlns:sodipodi="http://sodipodi.sourceforge.net/DTD/sodipodi-0.dtd"
   xmlns:inkscape="http://www.inkscape.org/namespaces/inkscape"
   x="0.0000mm"
   y="0.0000mm"
   width="226"
   height="100"
   viewBox="0 0 59.79583 26.458333"
   version="1.1"
   sodipodi:docname="sample-ean13.svg"
   style="shape-rendering:crispEdges"
   inkscape:version="0.92.5 (2060ec1f9f, 2020-04-08)">
  <g
     style="fill:#ffffff;fill-opacity:1"
     transform="matrix(1.0000028,0,0,1.0000028,-4.9787031e-6,2.6183258e-4)">
    <rect
       x="5.8207998"
       y="0"
       width="0.5292"
       height="23.0371"
       style="fill:#ffffff;fill-opacity:1"/>
    <rect
       x="6.8792"
       y="0"
       width="0.5292"
       height="23.0371"
       style="fill:#ffffff;fill-opacity:1"/>
    <rect
       x="8.5073996"
       y="0"
       width="0.4885"
       height="20.1864"
       style="fill:#ffffff;fill-opacity:1"/>
    <rect
       x="10.0949"
       y="0"
       width="1.0176"
       height="20.1864"
       style="fill:#ffffff;fill-opacity:1"/>
    <rect
       x="11.6417"
       y="0"
       width="2.1166999"
       height="20.1864"
       style="fill:#ffffff;fill-opacity:1"/>
    <rect
       x="14.2875"
       y="0"
       width="0.5292"
       height="20.1864"
       style="fill:#ffffff;fill-opacity:1"/>
    <rect
       x="15.875"
       y="0"
       width="1.5875"
       height="20.1864"
       style="fill:#ffffff;fill-opacity:1"/>
    <rect
       x="17.991699"
       y="0"
       width="0.5292"
       height="20.1864"
       style="fill:#ffffff;fill-opacity:1"/>
    <rect
       x="19.0501"
       y="0"
       width="1.0583"
       height="20.1864"
       style="fill:#ffffff;fill-opacity:1"/>
    <rect
       x="21.6959"
       y="0"
       width="0.5292"
       height="20.1864"
       style="fill:#ffffff;fill-opacity:1"/>
    <rect
       x="24.3417"
       y="0"
       width="0.5292"
       height="20.1864"
       style="fill:#ffffff;fill-opacity:1"/>
    <rect
       x="25.400101"
       y="0"
       width="0.5292"
       height="20.1864"
       style="fill:#ffffff;fill-opacity:1"/>
    <rect
       x="27.028299"
       y="0"
       width="0.4885"
       height="20.1864"
       style="fill:#ffffff;fill-opacity:1"/>
    <rect
       x="29.145"
       y="0"
       width="0.4885"
       height="20.1864"
       style="fill:#ffffff;fill-opacity:1"/>
    <rect
       x="30.1626"
       y="0"
       width="0.5292"
       height="23.0371"
       style="fill:#ffffff;fill-opacity:1"/>
    <rect
       x="31.2209"
       y="0"
       width="0.5292"
       height="23.0371"
       style="fill:#ffffff;fill-opacity:1"/>
    <rect
       x="32.279301"
       y="0"
       width="0.4885"
       height="20.1864"
       style="fill:#ffffff;fill-opacity:1"/>
    <rect
       x="33.866798"
       y="0"
       width="0.4885"
       height="20.1864"
       style="fill:#ffffff;fill-opacity:1"/>
    <rect
       x="35.983398"
       y="0"
       width="1.1"
       height="20.1864"
       style="fill:#ffffff;fill-opacity:1"/>
    <rect
       x="38.100101"
       y="0"
       width="1.1"
       height="20.1864"
       style="fill:#ffffff;fill-opacity:1"/>
    <rect
       x="39.687599"
       y="0"
       width="1.1"
       height="20.1864"
       style="fill:#ffffff;fill-opacity:1"/>
    <rect
       x="41.275101"
       y="0"
       width="1.1"
       height="20.1864"
       style="fill:#ffffff;fill-opacity:1"/>
    <rect
       x="43.3918"
       y="0"
       width="0.5292"
       height="20.1864"
       style="fill:#ffffff;fill-opacity:1"/>
    <rect
       x="46.037601"
       y="0"
       width="0.5292"
       height="20.1864"
       style="fill:#ffffff;fill-opacity:1"/>
    <rect
       x="47.096"
       y="0"
       width="0.5292"
       height="20.1864"
       style="fill:#ffffff;fill-opacity:1"/>
    <rect
       x="48.154301"
       y="0"
       width="1.5875"
       height="20.1864"
       style="fill:#ffffff;fill-opacity:1"/>
    <rect
       x="50.8"
       y="0"
       width="1.1"
       height="20.1864"
       style="fill:#ffffff;fill-opacity:1"/>
    <rect
       x="52.3876"
       y="0"
       width="1.1"
       height="20.1864"
       style="fill:#ffffff;fill-opacity:1"/>
    <rect
       x="54.504299"
       y="0"
       width="0.5292"
       height="23.0371"
       style="fill:#ffffff;fill-opacity:1"/>
    <rect
       x="55.562698"
       y="0"
       width="0.5292"
       height="23.0371"
       style="fill:#ffffff;fill-opacity:1"/>
  </g>
  <g
     style="fill:#ffffff;fill-opacity:1">
    <path
        d="M 1.7707713,25.282101 V 24.860424 H 2.7601949 V 21.872861 L 1.8837695,22.498485 V 22.029956 L 2.8015358,21.39882 h 0.457505 v 3.461604 h 0.9453268 v 0.421677 z"
        inkscape:connector-curvature="0"/>
    <g>
      <path
         d="m 9.6519341,25.282101 v -0.350019 q 0.1405588,-0.322459 0.3417508,-0.567748 0.2039481,-0.248044 0.4271881,-0.44648 0.223241,-0.201192 0.440969,-0.372068 0.220485,-0.170875 0.396872,-0.341751 0.176388,-0.170875 0.283874,-0.358287 0.110242,-0.187411 0.110242,-0.424432 0,-0.319702 -0.187412,-0.49609 -0.187412,-0.176388 -0.520894,-0.176388 -0.316946,0 -0.523651,0.173632 -0.203948,0.170875 -0.239776,0.48231 L 9.6739826,22.35793 q 0.055121,-0.465774 0.3941154,-0.741379 0.341751,-0.275606 0.876426,-0.275606 0.587039,0 0.90123,0.278362 0.316946,0.275605 0.316946,0.785476 0,0.225996 -0.10473,0.449236 -0.101974,0.223241 -0.305922,0.446481 -0.203948,0.223241 -0.779964,0.69177 -0.316946,0.259069 -0.504358,0.468529 -0.187411,0.206704 -0.270093,0.399628 h 2.0257 v 0.421677 z"
         inkscape:connector-curvature="0"/>
      <path
         d="m 15.398308,24.209995 q 0,0.537431 -0.341751,0.832329 -0.34175,0.294898 -0.975643,0.294898 -0.589796,0 -0.942571,-0.264581 -0.350019,-0.267338 -0.416164,-0.788232 l 0.512626,-0.04685 q 0.09922,0.689014 0.846109,0.689014 0.374824,0 0.58704,-0.184656 0.214972,-0.184656 0.214972,-0.548455 0,-0.316946 -0.245289,-0.493334 -0.242533,-0.179143 -0.702794,-0.179143 H 13.653726 V 23.09104 h 0.270093 q 0.407896,0 0.631137,-0.176387 0.225996,-0.179144 0.225996,-0.493334 0,-0.311434 -0.184656,-0.490578 -0.181899,-0.1819 -0.542942,-0.1819 -0.327971,0 -0.531919,0.16812 -0.201192,0.168119 -0.234265,0.474041 l -0.498846,-0.03859 q 0.05512,-0.476797 0.394116,-0.744134 0.341751,-0.267338 0.876426,-0.267338 0.584283,0 0.906742,0.27285 0.325214,0.270093 0.325214,0.755159 0,0.372067 -0.20946,0.606332 -0.206704,0.231508 -0.603576,0.31419 v 0.01102 q 0.435457,0.04685 0.677989,0.292142 0.242533,0.245289 0.242533,0.617356 z"
         inkscape:connector-curvature="0"/>
      <path
         d="m 18.074437,24.402919 v 0.879182 h -0.468529 v -0.879182 h -1.83002 v -0.385847 l 1.777655,-2.618252 h 0.520894 v 2.612739 h 0.545699 v 0.39136 z m -0.468529,-2.44462 q -0.0055,0.01654 -0.07717,0.146071 -0.07166,0.129534 -0.107487,0.181899 l -0.994935,1.466221 -0.148827,0.203948 -0.0441,0.05512 h 1.372515 z"
         inkscape:connector-curvature="0"/>
      <path
         d="m 21.687625,24.017072 q 0,0.6146 -0.366556,0.967375 -0.363799,0.352775 -1.011472,0.352775 -0.542942,0 -0.876425,-0.237021 -0.333483,-0.237021 -0.421676,-0.686258 l 0.501601,-0.05788 q 0.157096,0.576016 0.807525,0.576016 0.399627,0 0.625624,-0.239777 0.225996,-0.242533 0.225996,-0.664209 0,-0.366556 -0.228752,-0.592552 -0.225997,-0.225996 -0.611844,-0.225996 -0.201192,0 -0.374824,0.06339 -0.173631,0.06339 -0.347263,0.214972 h -0.485065 l 0.129534,-2.089089 h 2.2076 v 0.421676 h -1.755607 l -0.07441,1.231956 q 0.322458,-0.248045 0.802012,-0.248045 0.573259,0 0.912254,0.336239 0.341751,0.336239 0.341751,0.876426 z"
         inkscape:connector-curvature="0"/>
      <path
         d="m 24.815747,24.011559 q 0,0.614601 -0.333482,0.970132 -0.333483,0.355531 -0.920523,0.355531 -0.655941,0 -1.003204,-0.487822 -0.347262,-0.487822 -0.347262,-1.419368 0,-1.008716 0.361043,-1.548903 0.361043,-0.540187 1.028008,-0.540187 0.879182,0 1.107934,0.790988 l -0.474041,0.08544 q -0.146071,-0.474042 -0.639405,-0.474042 -0.424432,0 -0.658697,0.396872 -0.231509,0.394116 -0.231509,1.143763 0.135047,-0.250801 0.380336,-0.380336 0.245289,-0.13229 0.562235,-0.13229 0.537431,0 0.851621,0.336238 0.316946,0.336239 0.316946,0.903986 z m -0.504358,0.02205 q 0,-0.421676 -0.206704,-0.650429 -0.206704,-0.228753 -0.576015,-0.228753 -0.347263,0 -0.562235,0.203948 -0.212217,0.201192 -0.212217,0.556724 0,0.449236 0.220485,0.735866 0.22324,0.28663 0.570503,0.28663 0.358287,0 0.562235,-0.239777 0.203948,-0.242533 0.203948,-0.664209 z"
         inkscape:connector-curvature="0"/>
      <path
         d="m 27.919065,21.801204 q -0.595307,0.909498 -0.840596,1.42488 -0.245289,0.515382 -0.369312,1.016984 -0.121266,0.501602 -0.121266,1.039033 h -0.518138 q 0,-0.744135 0.31419,-1.565439 0.316946,-0.824061 1.055569,-1.896166 H 25.353178 V 21.39882 h 2.565887 z"
         inkscape:connector-curvature="0"/>
    </g>
    <g>
      <path
         d="m 36.603619,24.198971 q 0,0.537431 -0.34175,0.837841 -0.341751,0.30041 -0.981156,0.30041 -0.622868,0 -0.975643,-0.294898 -0.350019,-0.294898 -0.350019,-0.837841 0,-0.380335 0.217728,-0.639404 0.217729,-0.25907 0.556723,-0.314191 v -0.01102 q -0.316946,-0.07441 -0.501602,-0.322458 -0.181899,-0.248045 -0.181899,-0.581528 0,-0.443725 0.330726,-0.71933 0.333483,-0.275606 0.892962,-0.275606 0.573259,0 0.903986,0.270094 0.333483,0.270093 0.333483,0.730354 0,0.333483 -0.184656,0.581528 -0.184656,0.248045 -0.504358,0.311434 v 0.01102 q 0.372067,0.06063 0.578771,0.316947 0.206704,0.253557 0.206704,0.636648 z m -0.611844,-1.83002 q 0,-0.658697 -0.722086,-0.658697 -0.350019,0 -0.534675,0.165363 -0.181899,0.165363 -0.181899,0.493334 0,0.333482 0.187411,0.50987 0.190168,0.173631 0.534675,0.173631 0.350019,0 0.531919,-0.159851 0.184655,-0.162607 0.184655,-0.52365 z m 0.09646,1.783167 q 0,-0.361043 -0.214972,-0.542943 -0.214972,-0.184655 -0.603576,-0.184655 -0.37758,0 -0.589796,0.198436 -0.212216,0.19568 -0.212216,0.540186 0,0.802012 0.818548,0.802012 0.40514,0 0.603576,-0.192923 0.198436,-0.19568 0.198436,-0.620113 z"
         inkscape:connector-curvature="0"/>
      <path
         d="m 37.278853,25.282101 v -0.421677 h 0.989424 v -2.987563 l -0.876426,0.625624 v -0.468529 l 0.917766,-0.631136 h 0.457505 v 3.461604 h 0.945327 v 0.421677 z"
         inkscape:connector-curvature="0"/>
      <path
         d="m 40.271928,25.282101 v -0.350019 q 0.140559,-0.322459 0.341751,-0.567748 0.203948,-0.248044 0.427189,-0.44648 0.22324,-0.201192 0.440968,-0.372068 0.220485,-0.170875 0.396872,-0.341751 0.176388,-0.170875 0.283874,-0.358287 0.110242,-0.187411 0.110242,-0.424432 0,-0.319702 -0.187412,-0.49609 -0.187411,-0.176388 -0.520894,-0.176388 -0.316946,0 -0.52365,0.173632 -0.203948,0.170875 -0.239777,0.48231 l -0.507114,-0.04685 q 0.05512,-0.465774 0.394116,-0.741379 0.34175,-0.275606 0.876425,-0.275606 0.58704,0 0.90123,0.278362 0.316946,0.275605 0.316946,0.785476 0,0.225996 -0.10473,0.449236 -0.101974,0.223241 -0.305922,0.446481 -0.203948,0.223241 -0.779963,0.69177 -0.316947,0.259069 -0.504358,0.468529 -0.187412,0.206704 -0.270094,0.399628 h 2.0257 v 0.421677 z"
         inkscape:connector-curvature="0"/>
      <path
         d="m 46.018302,24.209995 q 0,0.537431 -0.341751,0.832329 -0.341751,0.294898 -0.975643,0.294898 -0.589796,0 -0.942571,-0.264581 -0.350019,-0.267338 -0.416164,-0.788232 l 0.512626,-0.04685 q 0.09922,0.689014 0.846109,0.689014 0.374823,0 0.587039,-0.184656 0.214973,-0.184656 0.214973,-0.548455 0,-0.316946 -0.245289,-0.493334 -0.242533,-0.179143 -0.702794,-0.179143 H 44.273719 V 23.09104 h 0.270094 q 0.407896,0 0.631136,-0.176387 0.225997,-0.179144 0.225997,-0.493334 0,-0.311434 -0.184656,-0.490578 -0.1819,-0.1819 -0.542943,-0.1819 -0.32797,0 -0.531918,0.16812 -0.201192,0.168119 -0.234265,0.474041 l -0.498846,-0.03859 q 0.05512,-0.476797 0.394116,-0.744134 0.341751,-0.267338 0.876425,-0.267338 0.584284,0 0.906742,0.27285 0.325215,0.270093 0.325215,0.755159 0,0.372067 -0.20946,0.606332 -0.206704,0.231508 -0.603576,0.31419 v 0.01102 q 0.435456,0.04685 0.677989,0.292142 0.242533,0.245289 0.242533,0.617356 z"
         inkscape:connector-curvature="0"/>
      <path
         d="m 48.694432,24.402919 v 0.879182 h -0.46853 v -0.879182 h -1.83002 v -0.385847 l 1.777655,-2.618252 h 0.520895 v 2.612739 h 0.545698 v 0.39136 z m -0.46853,-2.44462 q -0.0055,0.01654 -0.07717,0.146071 -0.07166,0.129534 -0.107486,0.181899 l -0.994936,1.466221 -0.148827,0.203948 -0.0441,0.05512 h 1.372515 z"
         inkscape:connector-curvature="0"/>
      <path
         d="m 49.689368,25.282101 v -0.350019 q 0.140559,-0.322459 0.341751,-0.567748 0.203948,-0.248044 0.427188,-0.44648 0.22324,-0.201192 0.440969,-0.372068 0.220484,-0.170875 0.396872,-0.341751 0.176387,-0.170875 0.283873,-0.358287 0.110243,-0.187411 0.110243,-0.424432 0,-0.319702 -0.187412,-0.49609 -0.187412,-0.176388 -0.520895,-0.176388 -0.316946,0 -0.52365,0.173632 -0.203948,0.170875 -0.239777,0.48231 l -0.507114,-0.04685 q 0.05512,-0.465774 0.394116,-0.741379 0.341751,-0.275606 0.876425,-0.275606 0.58704,0 0.90123,0.278362 0.316947,0.275605 0.316947,0.785476 0,0.225996 -0.10473,0.449236 -0.101974,0.223241 -0.305923,0.446481 -0.203948,0.223241 -0.779963,0.69177 -0.316946,0.259069 -0.504358,0.468529 -0.187412,0.206704 -0.270093,0.399628 h 2.0257 v 0.421677 z"
         inkscape:connector-curvature="0"/>
    </g>
  </g>
</svg>
