<?xml version="1.0" encoding="utf-8" standalone="no"?>
<svg version="1.0" width="444" height="100" xmlns="http://www.w3.org/2000/svg">
  <path style="fill:#ffffff" d="M 0,0 V 100 H 29.6 V 0 Z M 33.3,0 V 100 H 37 V 0 Z m 7.4,0 v 100 h 3.7 V 0 Z m 7.4,0 v 100 h 3.7 V 0 Z M 62.9,0 V 83.3 100 h 18.5 V 83.3 H 77.7 V 66.7 H 74 V 83.3 H 70.3 V 66.7 H 66.6 V 33.3 h 3.7 V 66.7 H 74 V 33.3 h 3.7 V 0 Z m 14.8,33.3 v 16.7 16.7 h 3.7 v 16.7 h 3.7 V 100 h 3.7 V 83.3 H 92.5 V 66.7 50 h 7.4 V 66.7 H 111 V 83.3 100 h 7.4 V 83.3 h -3.7 V 66.7 50 H 103.6 V 33.3 H 92.5 V 0 h -3.7 v 33.3 16.7 h -7.4 V 33.3 Z m 3.7,0 h 3.7 V 0 H 81.4 Z M 92.5,83.3 V 100 h 14.8 V 83.3 Z M 96.2,0 V 16.7 H 107.3 V 33.3 H 111 V 16.7 0 Z M 125.8,0 V 100 H 129.5 V 66.7 h 3.7 V 50 h 7.4 V 66.7 100 h 11.1 V 83.3 h 3.7 V 100 h 7.4 V 83.3 66.7 H 151.7 V 33.3 h 3.7 V 16.7 H 148 V 0 h -3.7 v 16.7 h -3.7 v 16.7 h -3.7 V 16.7 h -3.7 V 33.3 H 129.5 V 16.7 h 3.7 V 0 Z m 11.1,16.7 h 3.7 V 0 h -3.7 z m 18.5,16.7 v 16.7 h 7.4 v 16.7 h 7.4 V 50 H 166.5 V 16.7 h -3.7 V 33.3 Z M 166.5,16.7 h 7.4 V 0 H 166.5 Z M 188.7,0 v 100 h 3.7 V 16.7 h 3.7 V 0 Z m 22.2,0 v 16.7 h 7.4 V 0 Z m 7.4,16.7 V 33.3 H 222 V 16.7 Z m 3.7,0 h 3.7 V 0 H 222 Z m 3.7,0 v 16.7 h 7.4 v 16.7 h -3.7 V 66.7 H 222 V 50 H 210.9 V 33.3 h -3.7 v 16.7 16.7 h 7.4 v 16.7 h 3.7 V 100 H 222 V 83.3 h 11.1 V 66.7 h 11.1 V 50 h 3.7 V 16.7 H 233.1 V 0 h -3.7 v 16.7 z m 18.5,50 V 83.3 H 240.5 V 100 h 7.4 V 66.7 Z M 214.6,83.3 H 203.5 V 100 h 11.1 z m -11.1,0 V 66.7 h -3.7 V 50 h -3.7 v 33.3 z m 3.7,-50 V 16.7 h -7.4 V 33.3 Z M 222,50 h 3.7 V 33.3 H 222 Z M 251.6,0 v 100 h 3.7 V 83.3 H 259 V 100 h 18.5 V 83.3 h 3.7 V 50 H 277.5 V 33.3 h -11.1 v 16.7 h 3.7 v 16.7 h 3.7 v 16.7 h -3.7 V 66.7 h -3.7 v 16.7 h -3.7 V 16.7 h 3.7 V 0 Z m 29.6,83.3 V 100 h 11.1 V 83.3 Z m 11.1,0 H 296 V 66.7 h -3.7 z M 270.1,0 v 16.7 h 3.7 V 0 Z M 277.5,0 v 16.7 h 3.7 v 16.7 h 7.4 V 16.7 h -3.7 V 0 Z m 14.8,0 V 33.3 H 296 v 16.7 h 3.7 v 16.7 h 3.7 V 50 h 7.4 V 0 Z M 314.5,0 v 100 h 14.8 V 83.3 h -3.7 V 66.7 h -3.7 V 50 h -3.7 V 33.3 h 3.7 v 16.7 h 3.7 V 33.3 h 3.7 V 50 H 333 V 33.3 h 3.7 V 16.7 H 333 V 0 Z m 22.2,16.7 h 3.7 V 0 h -3.7 z m 3.7,0 v 16.7 h 3.7 V 16.7 Z m 3.7,0 h 3.7 V 0 h -3.7 z m 3.7,0 v 16.7 16.7 h 7.4 v 33.3 h -7.4 V 50 H 333 v 16.7 h 3.7 v 16.7 h 3.7 V 100 h 18.5 V 83.3 h 3.7 V 66.7 h 11.1 V 50 H 362.6 V 33.3 h 3.7 V 16.7 H 370 V 0 h -18.5 v 16.7 h 3.7 V 33.3 H 351.5 V 16.7 Z m 14.8,66.7 V 100 H 370 V 83.3 Z m -25.9,0 H 333 V 100 h 3.7 z m -3.7,0 V 66.7 h -3.7 V 83.3 Z M 329.3,66.7 V 50 h -3.7 V 66.7 Z M 377.4,0 v 100 h 25.9 V 0 Z M 407,0 v 100 h 3.7 V 0 Z m 14.8,0 V 100 H 425.5 V 0 Z m 7.4,0 v 100 h 3.7 V 0 Z m 11.1,0 V 100 H 444 V 0 Z M 303.4,16.7 h 3.7 v 16.7 h -3.7 z M 144.3,33.3 H 148 v 50 h -3.7 z m 37,0 V 50 H 185 V 33.3 Z m 107.3,0 V 50 h 3.7 V 33.3 Z m 0,16.7 h -3.7 v 16.7 h 3.7 z M 173.9,66.7 v 16.7 h -3.7 V 100 h 11.1 V 83.3 h -3.7 V 66.7 Z M 299.7,83.3 V 100 h 7.4 V 83.3 z"/>
</svg>
