<?xml version="1.0" encoding="UTF-8" standalone="no"?>
<svg
   xmlns:svg="http://www.w3.org/2000/svg"
   xmlns="http://www.w3.org/2000/svg"
   xmlns:sodipodi="http://sodipodi.sourceforge.net/DTD/sodipodi-0.dtd"
   xmlns:inkscape="http://www.inkscape.org/namespaces/inkscape"
   x="0.0000mm"
   y="0.0000mm"
   width="226"
   height="100"
   viewBox="0 0 59.79583 26.458333"
   version="1.1"
   sodipodi:docname="sample-upca.svg"
   style="shape-rendering:crispEdges"
   inkscape:version="0.92.5 (2060ec1f9f, 2020-04-08)">
  <g
     style="fill:#ffffff;fill-opacity:1"
     transform="translate(0,3.3307075e-4)">
    <rect
       x="4.7625"
       y="0"
       width="0.5292"
       height="23.0371"
       style="fill:#ffffff;fill-opacity:1"/>
    <rect
       x="5.8208"
       y="0"
       width="0.5292"
       height="23.0371"
       style="fill:#ffffff;fill-opacity:1"/>
    <rect
       x="7.9375"
       y="0"
       width="1.0583"
       height="23.0371"
       style="fill:#ffffff;fill-opacity:1"/>
    <rect
       x="9.525"
       y="0"
       width="0.5292"
       height="23.0371"
       style="fill:#ffffff;fill-opacity:1"/>
    <rect
       x="11.1532"
       y="0"
       width="1.0177"
       height="20.1864"
       style="fill:#ffffff;fill-opacity:1"/>
    <rect
       x="13.27"
       y="0"
       width="0.4885"
       height="20.1864"
       style="fill:#ffffff;fill-opacity:1"/>
    <rect
       x="14.8574"
       y="0"
       width="0.4885"
       height="20.1864"
       style="fill:#ffffff;fill-opacity:1"/>
    <rect
       x="16.444901"
       y="0"
       width="1.0176"
       height="20.1864"
       style="fill:#ffffff;fill-opacity:1"/>
    <rect
       x="17.9917"
       y="0"
       width="2.1167"
       height="20.1864"
       style="fill:#ffffff;fill-opacity:1"/>
    <rect
       x="20.6376"
       y="0"
       width="0.5292"
       height="20.1864"
       style="fill:#ffffff;fill-opacity:1"/>
    <rect
       x="21.6959"
       y="0"
       width="0.5292"
       height="20.1864"
       style="fill:#ffffff;fill-opacity:1"/>
    <rect
       x="23.8126"
       y="0"
       width="1.0583"
       height="20.1864"
       style="fill:#ffffff;fill-opacity:1"/>
    <rect
       x="25.4"
       y="0"
       width="1.0583"
       height="20.1864"
       style="fill:#ffffff;fill-opacity:1"/>
    <rect
       x="28.0459"
       y="0"
       width="0.5292"
       height="20.1864"
       style="fill:#ffffff;fill-opacity:1"/>
    <rect
       x="29.1042"
       y="0"
       width="0.5292"
       height="23.0371"
       style="fill:#ffffff;fill-opacity:1"/>
    <rect
       x="30.1626"
       y="0"
       width="0.5292"
       height="23.0371"
       style="fill:#ffffff;fill-opacity:1"/>
    <rect
       x="31.2209"
       y="0"
       width="0.5292"
       height="20.1864"
       style="fill:#ffffff;fill-opacity:1"/>
    <rect
       x="32.279301"
       y="0"
       width="0.5292"
       height="20.1864"
       style="fill:#ffffff;fill-opacity:1"/>
    <rect
       x="34.925098"
       y="0"
       width="0.4885"
       height="20.1864"
       style="fill:#ffffff;fill-opacity:1"/>
    <rect
       x="37.041801"
       y="0"
       width="0.4885"
       height="20.1864"
       style="fill:#ffffff;fill-opacity:1"/>
    <rect
       x="38.6293"
       y="0"
       width="0.4885"
       height="20.1864"
       style="fill:#ffffff;fill-opacity:1"/>
    <rect
       x="40.216801"
       y="0"
       width="0.4885"
       height="20.1864"
       style="fill:#ffffff;fill-opacity:1"/>
    <rect
       x="42.3335"
       y="0"
       width="1.5875"
       height="20.1864"
       style="fill:#ffffff;fill-opacity:1"/>
    <rect
       x="44.4501"
       y="0"
       width="0.5292"
       height="20.1864"
       style="fill:#ffffff;fill-opacity:1"/>
    <rect
       x="46.037601"
       y="0"
       width="1.5875"
       height="20.1864"
       style="fill:#ffffff;fill-opacity:1"/>
    <rect
       x="48.683498"
       y="0"
       width="0.5292"
       height="20.1864"
       style="fill:#ffffff;fill-opacity:1"/>
    <rect
       x="49.741798"
       y="0"
       width="0.5292"
       height="23.0371"
       style="fill:#ffffff;fill-opacity:1"/>
    <rect
       x="51.3293"
       y="0"
       width="1.5875"
       height="23.0371"
       style="fill:#ffffff;fill-opacity:1"/>
    <rect
       x="53.446"
       y="0"
       width="0.5292"
       height="23.0371"
       style="fill:#ffffff;fill-opacity:1"/>
    <rect
       x="54.5043"
       y="0"
       width="0.5292"
       height="23.0371"
       style="fill:#ffffff;fill-opacity:1"/>
  </g>
  <g
     style="fill:#ffffff;fill-opacity:1">
    <g>
      <path
         d="m 3.7303888,23.339082 q 0,0.972887 -0.3445069,1.485514 -0.3417508,0.512626 -1.0114721,0.512626 -0.6697213,0 -1.0059599,-0.50987 -0.3362387,-0.50987 -0.3362387,-1.48827 0,-1.000448 0.3252144,-1.499294 0.3279705,-0.498846 1.0335206,-0.498846 0.6862576,0 1.0114721,0.504358 0.3279705,0.504358 0.3279705,1.493782 z m -0.504358,0 q 0,-0.840597 -0.1956799,-1.218176 -0.1929239,-0.37758 -0.6394047,-0.37758 -0.4575051,0 -0.6586971,0.372068 -0.198436,0.372067 -0.198436,1.223688 0,0.826817 0.201192,1.209908 0.2039481,0.383092 0.6449168,0.383092 0.4382127,0 0.6421608,-0.39136 0.2039481,-0.39136 0.2039481,-1.20164 z"
         inkscape:connector-curvature="0"
         style="fill:#ffffff;fill-opacity:1"/>
    </g>
    <g>
      <path
         d="m 12.161279,25.282101 v -0.421677 h 0.989424 v -2.987563 l -0.876425,0.625624 v -0.468529 l 0.917766,-0.631136 h 0.457505 v 3.461604 h 0.945327 v 0.421677 z"
         inkscape:connector-curvature="0"
         style="fill:#ffffff;fill-opacity:1"/>
      <path
         d="m 15.154355,25.282101 v -0.350019 q 0.140559,-0.322459 0.341751,-0.567748 0.203948,-0.248044 0.427188,-0.44648 0.223241,-0.201192 0.440969,-0.372068 0.220484,-0.170875 0.396872,-0.341751 0.176387,-0.170875 0.283873,-0.358287 0.110243,-0.187411 0.110243,-0.424432 0,-0.319702 -0.187412,-0.49609 -0.187412,-0.176388 -0.520895,-0.176388 -0.316946,0 -0.52365,0.173632 -0.203948,0.170875 -0.239777,0.48231 l -0.507114,-0.04685 q 0.05512,-0.465774 0.394116,-0.741379 0.341751,-0.275606 0.876425,-0.275606 0.58704,0 0.90123,0.278362 0.316947,0.275605 0.316947,0.785476 0,0.225996 -0.10473,0.449236 -0.101974,0.223241 -0.305922,0.446481 -0.203949,0.223241 -0.779964,0.69177 -0.316946,0.259069 -0.504358,0.468529 -0.187412,0.206704 -0.270093,0.399628 h 2.0257 v 0.421677 z"
         inkscape:connector-curvature="0"
         style="fill:#ffffff;fill-opacity:1"/>
      <path
         d="m 20.900729,24.209995 q 0,0.537431 -0.341751,0.832329 -0.341751,0.294898 -0.975643,0.294898 -0.589796,0 -0.942571,-0.264581 -0.350019,-0.267338 -0.416164,-0.788232 l 0.512626,-0.04685 q 0.09922,0.689014 0.846109,0.689014 0.374823,0 0.587039,-0.184656 0.214973,-0.184656 0.214973,-0.548455 0,-0.316946 -0.245289,-0.493334 -0.242533,-0.179143 -0.702794,-0.179143 H 19.156146 V 23.09104 h 0.270094 q 0.407896,0 0.631136,-0.176387 0.225997,-0.179144 0.225997,-0.493334 0,-0.311434 -0.184656,-0.490578 -0.1819,-0.1819 -0.542943,-0.1819 -0.32797,0 -0.531918,0.16812 -0.201192,0.168119 -0.234265,0.474041 l -0.498846,-0.03859 q 0.05512,-0.476797 0.394116,-0.744134 0.341751,-0.267338 0.876425,-0.267338 0.584284,0 0.906742,0.27285 0.325215,0.270093 0.325215,0.755159 0,0.372067 -0.20946,0.606332 -0.206704,0.231508 -0.603576,0.31419 v 0.01102 q 0.435456,0.04685 0.677989,0.292142 0.242533,0.245289 0.242533,0.617356 z"
         inkscape:connector-curvature="0"
         style="fill:#ffffff;fill-opacity:1"/>
      <path
         d="m 23.576858,24.402919 v 0.879182 h -0.46853 v -0.879182 h -1.83002 v -0.385847 l 1.777655,-2.618252 h 0.520895 v 2.612739 h 0.545698 v 0.39136 z m -0.46853,-2.44462 q -0.0055,0.01654 -0.07717,0.146071 -0.07166,0.129534 -0.107486,0.181899 l -0.994936,1.466221 -0.148827,0.203948 -0.0441,0.05512 h 1.372515 z"
         inkscape:connector-curvature="0"
         style="fill:#ffffff;fill-opacity:1"/>
      <path
         d="m 27.190046,24.017072 q 0,0.6146 -0.366555,0.967375 -0.3638,0.352775 -1.011473,0.352775 -0.542942,0 -0.876425,-0.237021 -0.333483,-0.237021 -0.421676,-0.686258 l 0.501602,-0.05788 q 0.157095,0.576016 0.807524,0.576016 0.399628,0 0.625624,-0.239777 0.225997,-0.242533 0.225997,-0.664209 0,-0.366556 -0.228753,-0.592552 -0.225996,-0.225996 -0.611844,-0.225996 -0.201192,0 -0.374824,0.06339 -0.173631,0.06339 -0.347262,0.214972 h -0.485066 l 0.129534,-2.089089 h 2.2076 v 0.421676 h -1.755607 l -0.07441,1.231956 q 0.322458,-0.248045 0.802012,-0.248045 0.573259,0 0.912254,0.336239 0.341751,0.336239 0.341751,0.876426 z"
         inkscape:connector-curvature="0"
         style="fill:#ffffff;fill-opacity:1"/>
    </g>
    <g>
      <path
         d="m 35.260036,24.011559 q 0,0.614601 -0.333482,0.970132 -0.333483,0.355531 -0.920523,0.355531 -0.655941,0 -1.003204,-0.487822 -0.347263,-0.487822 -0.347263,-1.419368 0,-1.008716 0.361044,-1.548903 0.361043,-0.540187 1.028008,-0.540187 0.879182,0 1.107934,0.790988 l -0.474041,0.08544 q -0.146071,-0.474042 -0.639405,-0.474042 -0.424432,0 -0.658697,0.396872 -0.231509,0.394116 -0.231509,1.143763 0.135047,-0.250801 0.380336,-0.380336 0.245289,-0.13229 0.562235,-0.13229 0.537431,0 0.851621,0.336238 0.316946,0.336239 0.316946,0.903986 z m -0.504358,0.02205 q 0,-0.421676 -0.206704,-0.650429 -0.206704,-0.228753 -0.576015,-0.228753 -0.347263,0 -0.562236,0.203948 -0.212216,0.201192 -0.212216,0.556724 0,0.449236 0.220485,0.735866 0.22324,0.28663 0.570503,0.28663 0.358287,0 0.562235,-0.239777 0.203948,-0.242533 0.203948,-0.664209 z"
         inkscape:connector-curvature="0"
         style="fill:#ffffff;fill-opacity:1"/>
      <path
         d="m 38.363354,21.801204 q -0.595308,0.909498 -0.840597,1.42488 -0.245289,0.515382 -0.369311,1.016984 -0.121267,0.501602 -0.121267,1.039033 h -0.518138 q 0,-0.744135 0.31419,-1.565439 0.316947,-0.824061 1.055569,-1.896166 H 35.797467 V 21.39882 h 2.565887 z"
         inkscape:connector-curvature="0"
         style="fill:#ffffff;fill-opacity:1"/>
      <path
         d="m 41.541085,24.198971 q 0,0.537431 -0.341751,0.837841 -0.341751,0.30041 -0.981155,0.30041 -0.622869,0 -0.975644,-0.294898 -0.350019,-0.294898 -0.350019,-0.837841 0,-0.380335 0.217729,-0.639404 0.217728,-0.25907 0.556723,-0.314191 v -0.01102 q -0.316947,-0.07441 -0.501602,-0.322458 -0.1819,-0.248045 -0.1819,-0.581528 0,-0.443725 0.330727,-0.71933 0.333482,-0.275606 0.892961,-0.275606 0.57326,0 0.903986,0.270094 0.333483,0.270093 0.333483,0.730354 0,0.333483 -0.184656,0.581528 -0.184655,0.248045 -0.504358,0.311434 v 0.01102 q 0.372068,0.06063 0.578772,0.316947 0.206704,0.253557 0.206704,0.636648 z m -0.611844,-1.83002 q 0,-0.658697 -0.722087,-0.658697 -0.350019,0 -0.534674,0.165363 -0.1819,0.165363 -0.1819,0.493334 0,0.333482 0.187412,0.50987 0.190168,0.173631 0.534675,0.173631 0.350019,0 0.531918,-0.159851 0.184656,-0.162607 0.184656,-0.52365 z m 0.09646,1.783167 q 0,-0.361043 -0.214973,-0.542943 -0.214972,-0.184655 -0.603576,-0.184655 -0.377579,0 -0.589795,0.198436 -0.212216,0.19568 -0.212216,0.540186 0,0.802012 0.818548,0.802012 0.40514,0 0.603576,-0.192923 0.198436,-0.19568 0.198436,-0.620113 z"
         inkscape:connector-curvature="0"
         style="fill:#ffffff;fill-opacity:1"/>
      <path
         d="m 44.658182,23.261913 q 0,1.000447 -0.366555,1.537878 -0.363799,0.537431 -1.039033,0.537431 -0.454749,0 -0.730354,-0.190168 -0.272849,-0.192924 -0.39136,-0.620112 l 0.474042,-0.07441 q 0.148827,0.485066 0.655941,0.485066 0.427188,0 0.661453,-0.396872 0.234264,-0.396872 0.245289,-1.132739 -0.110243,0.248045 -0.37758,0.399628 -0.267337,0.148827 -0.58704,0.148827 -0.52365,0 -0.83784,-0.358287 -0.31419,-0.358287 -0.31419,-0.950839 0,-0.609088 0.34175,-0.956351 0.341751,-0.350019 0.950839,-0.350019 0.647673,0 0.981156,0.479554 0.333482,0.479553 0.333482,1.441417 z m -0.540186,-0.479554 q 0,-0.468529 -0.214973,-0.752403 -0.214972,-0.28663 -0.576015,-0.28663 -0.358287,0 -0.564991,0.245289 -0.206704,0.242533 -0.206704,0.658697 0,0.424433 0.206704,0.672478 0.206704,0.245289 0.559479,0.245289 0.214972,0 0.399628,-0.09646 0.184655,-0.09922 0.289385,-0.278362 0.107487,-0.179143 0.107487,-0.407896 z"
         inkscape:connector-curvature="0"
         style="fill:#ffffff;fill-opacity:1"/>
      <path
         d="m 47.844182,23.339082 q 0,0.972887 -0.344507,1.485514 -0.341751,0.512626 -1.011472,0.512626 -0.669721,0 -1.00596,-0.50987 -0.336239,-0.50987 -0.336239,-1.48827 0,-1.000448 0.325215,-1.499294 0.32797,-0.498846 1.03352,-0.498846 0.686258,0 1.011473,0.504358 0.32797,0.504358 0.32797,1.493782 z m -0.504358,0 q 0,-0.840597 -0.19568,-1.218176 -0.192924,-0.37758 -0.639405,-0.37758 -0.457505,0 -0.658697,0.372068 -0.198436,0.372067 -0.198436,1.223688 0,0.826817 0.201192,1.209908 0.203949,0.383092 0.644917,0.383092 0.438213,0 0.642161,-0.39136 0.203948,-0.39136 0.203948,-1.20164 z"
         inkscape:connector-curvature="0"
         style="fill:#ffffff;fill-opacity:1"/>
    </g>
    <g>
      <path
         d="m 59.558981,24.017072 q 0,0.6146 -0.366556,0.967375 -0.363799,0.352775 -1.011472,0.352775 -0.542942,0 -0.876425,-0.237021 -0.333483,-0.237021 -0.421676,-0.686258 l 0.501602,-0.05788 q 0.157095,0.576016 0.807524,0.576016 0.399628,0 0.625624,-0.239777 0.225996,-0.242533 0.225996,-0.664209 0,-0.366556 -0.228752,-0.592552 -0.225997,-0.225996 -0.611844,-0.225996 -0.201192,0 -0.374824,0.06339 -0.173631,0.06339 -0.347263,0.214972 H 56.99585 l 0.129534,-2.089089 h 2.2076 v 0.421676 h -1.755607 l -0.07441,1.231956 q 0.322458,-0.248045 0.802012,-0.248045 0.573259,0 0.912254,0.336239 0.341751,0.336239 0.341751,0.876426 z"
         inkscape:connector-curvature="0"
         style="fill:#ffffff;fill-opacity:1"/>
    </g>
  </g>
</svg>
