<?xml version="1.0" encoding="UTF-8" standalone="no"?>
<svg version="1.0" width="546" height="100" xmlns="http://www.w3.org/2000/svg">
  <path style="fill:#ffffff" d="M 6.1,100 V 0 h 6.1 V 100 Z M 0,100 V 0 h 2 v 100 z m 18.6,0 V 0 h 2 v 100 z m 15.9,0 V 0 h 6.1 v 100 z m -8,0 V 0 h 2 V 100 Z M 49,100 49.5,0 h 2 l -0.4,100 z m 5.8,0 V 0 h 2 v 100 z m 5.4,0 V 0 h 2 v 100 z m 14.5,0 V 0 h 2 v 100 z m 5.7,0 V 0 h 6.1 v 100 z m 34.5,0 V 0 H 121 V 100 Z M 69,100 V 0 h 2 v 100 z m 25.9,0 V 0 h 2 v 100 z m 8.8,0 V 0 h 2 v 100 z m 5.6,0 V 0 h 2 v 100 z m 20.1,0 V 0 h 2 v 100 z m 20.4,0 V 0 h 6.1 v 100 z m 39.5,0 V 0 h 6.1 v 100 z m -51.1,0 V 0 h 2 v 100 z m 5.7,0 V 0 h 2 v 100 z m 20.7,0 -0.1,-100 h 2 v 100 z m 8.7,0 V 0 h 2 v 100 z m 10.4,0 V 0 h 2 v 100 z m 15.3,0 V 0 h 2 v 100 z m 8.7,0 V 0 h 2.1 l -0.1,100 z m 21.8,0 V 0 h 5.9 l 0.4,100 z m -16.2,0 V 0 h 2 v 100 z m 5.6,0 V 0 h 2 v 100 z m 23.3,0 V 0 h 2 v 100 z m 11.4,0 V 0 h 6.1 v 100 z m 23,0 V 0 h 6.1 v 100 z m -28.8,0 V 0 h 2 v 100 z m 20.1,0 V 0 h 1.5 v 100 z m 29.1,0 V 0 h 2 v 100 z m -5.8,0 V 0 h 2 v 100 z m 11.4,0 V 0 h 2 v 100 z m 8.7,0 V 0 h 2 v 100 z m 5.7,0 V 0 h 2 v 100 z m 16.2,0 V 0 h 6.1 v 100 z m 34.4,0 V 0 h 6.1 v 100 z m -40,0 V 0 h 2 v 100 z m 18.1,0 V 0 h 2 v 100 z m 5.7,0 V 0 h 2 v 100 z m 5.8,0 V 0 h 2 v 100 z m 23,0 V 0 h 2 v 100 z m 22.2,0 V 0 h 6.1 v 100 z m 12.2,0 V 0 h 6.1 v 100 z m -23.7,0 V 0 h 2 v 100 z m 5.8,0 V 0 h 2 v 100 z m 68.5,0 V 0 h 6.1 v 100 z m -36.1,0 V 0 h 2 v 100 z m 5.6,0 V 0 h 2 v 100 z m 5.8,0 V 0 h 2 v 100 z m 8.8,0 V 0 h 2 v 100 z m 10.7,0 V 0 h 2 v 100 z m 23.7,0 V 0 h 6.1 v 100 z m -8.9,0 V 0 h 2 v 100 z m 18.1,0 V 0 h 2 v 100 z m 6.1,0 V 0 h 2 v 100 z m 10.4,0 V 0 h 2 v 100 z m 8.8,0 V 0 h 2 v 100 z m 7.9,0 V 0 h 2 v 100 z m 14.3,0 V 0 h 5.6 v 100 z m -5.2,0 V 0 h 2 v 100 z"/>
</svg>
