<?xml version="1.0" encoding="utf-8" standalone="no"?>
<svg version="1.0" width="294" height="100" xmlns="http://www.w3.org/2000/svg">
  <path style="fill:#ffffff" d="M 0 0 L 0 100 L 5.2 100 L 5.2 0 L 0 0 z M 7.9 0 L 7.9 100 L 10.5 100 L 10.5 0 L 7.9 0 z M 15.8 0 L 15.8 100 L 18.4 100 L 18.4 0 L 15.8 0 z M 28.9 0 L 28.9 100 L 31.5 100 L 31.5 0 L 28.9 0 z M 36.8 0 L 36.8 100 L 39.4 100 L 39.4 0 L 36.8 0 z M 49.9 0 L 49.9 100 L 55.1 100 L 55.1 0 L 49.9 0 z M 57.8 0 L 57.8 100 L 60.4 100 L 60.4 0 L 57.8 0 z M 65.6 0 L 65.6 100 L 68.2 100 L 68.2 0 L 65.6 0 z M 70.9 0 L 70.9 100 L 76.1 100 L 76.1 0 L 70.9 0 z M 86.6 0 L 86.6 100 L 89.2 100 L 89.2 0 L 86.6 0 z M 94.5 0 L 94.5 100 L 97.1 100 L 97.1 0 L 94.5 0 z M 102.4 0 L 102.4 100 L 112.9 100 L 112.9 0 L 102.4 0 z M 115.5 0 L 115.5 100 L 118.1 100 L 118.1 0 L 115.5 0 z M 128.6 0 L 128.6 100 L 131.2 100 L 131.2 0 L 128.6 0 z M 133.9 0 L 133.9 100 L 139.1 100 L 139.1 0 L 133.9 0 z M 144.4 0 L 144.4 100 L 147 100 L 147 0 L 144.4 0 z M 154.9 0 L 154.9 100 L 165.4 100 L 165.4 0 L 154.9 0 z M 168 0 L 168 100 L 170.6 100 L 170.6 0 L 168 0 z M 173.2 0 L 173.2 100 L 175.9 100 L 175.9 0 L 173.2 0 z M 186.4 0 L 186.4 100 L 189 100 L 189 0 L 186.4 0 z M 194.2 0 L 194.2 100 L 199.5 100 L 199.5 0 L 194.2 0 z M 202.1 0 L 202.1 100 L 204.8 100 L 204.8 0 L 202.1 0 z M 207.4 0 L 207.4 100 L 212.6 100 L 212.6 0 L 207.4 0 z M 217.9 0 L 217.9 100 L 220.5 100 L 220.5 0 L 217.9 0 z M 231 0 L 231 100 L 236.2 100 L 236.2 0 L 231 0 z M 244.1 0 L 244.1 100 L 246.8 100 L 246.8 0 L 244.1 0 z M 249.4 0 L 249.4 100 L 252 100 L 252 0 L 249.4 0 z M 259.9 0 L 259.9 100 L 265.1 100 L 265.1 0 L 259.9 0 z M 273 0 L 273 100 L 280.9 100 L 280.9 0 L 273 0 z M 283.5 0 L 283.5 100 L 286.1 100 L 286.1 0 L 283.5 0 z M 288.8 0 L 288.8 100 L 294 100 L 294 0 L 288.8 0 z"/>
</svg>
