<?xml version="1.0" encoding="utf-8" standalone="no"?>
<svg version="1.0" width="368" height="100" xmlns="http://www.w3.org/2000/svg">
  <path style="fill:#ffffff" d="M 0,0 H 368 L 368,100 H 0 Z M 36.2,11.6 H 11.7 v 76.7 h 24.5 z m 4.9,0 c -0.9,0 -1.8,0 -2.7,0 v 76.7 c 0.9,0 1.8,0 2.7,0 z m 4.9,0 c -0.9,0 -1.8,0 -2.7,0 v 76.7 c 0.9,0 1.8,0 2.7,0 z m 8.6,0 c -2.1,0 -4.2,0 -6.3,0 v 76.7 c 2.1,0 4.2,0 6.3,0 z m 8.6,0 c -0.9,0 -1.8,0 -2.7,0 v 76.7 c 0.9,0 1.8,0 2.7,0 z m 4.9,0 c -0.9,0 -1.8,0 -2.7,0 v 76.7 c 0.9,0 1.8,0 2.7,0 z m 12.3,0 c -2.1,0 -4.2,0 -6.3,0 v 76.7 c 2.1,0 4.2,0 6.3,0 z m 4.9,0 c -0.9,0 -1.8,0 -2.7,0 v 76.7 c 0.9,0 1.8,0 2.7,0 z m 4.9,0 c -0.9,0 -1.8,0 -2.7,0 v 76.7 c 0.9,0 1.8,0 2.7,0 z m 8.6,0 c -2.1,0 -4.2,0 -6.3,0 v 76.7 c 2.1,0 4.2,0 6.3,0 z m 8.6,0 c -2.1,0 -4.3,0 -6.4,0 v 76.7 c 2.1,0 4.3,0 6.4,0 z m 8.5,0 c -0.9,0 -1.8,0 -2.7,0 v 76.7 c 0.9,0 1.8,0 2.7,0 z m 8.6,0 c -0.9,0 -1.8,0 -2.7,0 v 76.7 c 0.9,0 1.8,0 2.7,0 z m 8.6,0 h -2.7 v 76.7 h 2.7 z m 4.9,0 h -2.7 v 76.7 h 2.7 z m 12.3,0 h -6.3 v 76.7 h 6.3 z m 4.9,0 h -2.7 v 76.7 h 2.7 z m 8.5,0 h -6.2 v 76.7 h 6.2 z m 8.6,0 h -2.6 v 76.7 h 2.6 z m 12.3,0 h -6.3 v 76.7 h 6.3 z m 4.9,0 h -2.6 v 76.7 h 2.6 z m 5,0 h -2.7 v 76.7 h 2.7 z m 8.5,0 h -6.3 v 76.7 h 6.3 z m 8.6,0 h -2.7 v 76.7 h 2.7 z m 4.9,0 h -2.6 v 76.7 h 2.6 z m 8.6,0 h -6.3 v 76.7 h 6.3 z m 8.6,0 h -6.3 v 76.7 h 6.3 z m 8.5,0 h -2.6 v 76.7 h 2.6 z m 4.9,0 h -2.6 v 76.7 h 2.6 z m 12.3,0 h -6.2 v 76.7 h 6.2 z m 5,0 h -2.7 v 76.7 h 2.7 z m 8.5,0 h -2.6 v 76.7 h 2.6 z m 8.6,0 h -6.3 v 76.7 h 6.3 z m 12.3,0 h -6.3 v 76.7 h 6.3 z m 8.6,0 h -6.3 v 76.7 h 6.3 z m 4.9,0 h -2.6 v 76.7 h 2.6 z m 4.9,0 h -2.6 v 76.7 h 2.6 z m 8.6,0 h -2.7 v 76.7 h 2.7 z m 8.6,0 h -2.7 v 76.7 h 2.7 z m 26.9,0 h -24.7 v 76.7 h 24.7 z"/>
</svg>
