<?xml version="1.0" encoding="UTF-8" standalone="no"?>
<svg version="1.0" width="134" height="100" xmlns="http://www.w3.org/2000/svg">
  <rect style="fill:none;opacity:0" width="134" height="100"/>
  <g style="fill:#ffffff">
    <path d="M 16.5 2.1 L 16.5 89.2 L 18.5 89.2 L 18.5 2.1 L 16.5 2.1 z M 20.5 2.1 L 20.5 89.2 L 22.5 89.2 L 22.5 2.1 L 20.5 2.1 z M 24.3 2.1 L 24.3 78.4 L 28.5 78.4 L 28.5 2.1 L 24.3 2.1 z M 32.3 2.1 L 32.3 78.4 L 36.5 78.4 L 36.5 2.1 L 32.3 2.1 z M 40.7 2.1 L 40.7 78.4 L 42.5 78.4 L 42.5 2.1 L 40.7 2.1 z M 46.7 2.1 L 46.7 78.4 L 50.5 78.4 L 50.5 2.1 L 46.7 2.1 z M 52.5 2.1 L 52.5 78.4 L 60.5 78.4 L 60.5 2.1 L 52.5 2.1 z M 62.5 2.1 L 62.5 78.4 L 64.5 78.4 L 64.5 2.1 L 62.5 2.1 z M 68.5 2.1 L 68.5 78.4 L 74.5 78.4 L 74.5 2.1 L 68.5 2.1 z M 76.5 2.1 L 76.5 78.4 L 78.5 78.4 L 78.5 2.1 L 76.5 2.1 z M 80.5 2.1 L 80.5 78.4 L 86.5 78.4 L 86.5 2.1 L 80.5 2.1 z M 90.5 2.1 L 90.5 78.4 L 92.5 78.4 L 92.5 2.1 L 90.5 2.1 z M 94.5 2.1 L 94.5 78.4 L 96.5 78.4 L 96.5 2.1 L 94.5 2.1 z M 98.5 2.1 L 98.5 78.4 L 106.5 78.4 L 106.5 2.1 L 98.5 2.1 z M 108.5 2.1 L 108.5 89.2 L 110.5 89.2 L 110.5 2.1 L 108.5 2.1 z M 112.5 2.1 L 112.5 89.2 L 114.5 89.2 L 114.5 2.1 L 112.5 2.1 z M 116.5 2.1 L 116.5 89.2 L 118.5 89.2 L 118.5 2.1 L 116.5 2.1 z"/>
    <path d="m 12.6,90.33 c 0,3.37 -0.86,7.55 -5.12,7.55 -4.04,0 -5.07,-3.74 -5.07,-7.55 0,-6.05 2.34,-7.55 5.14,-7.55 2.1,0 5.06,0.88 5.06,7.55 z m -1.91,0 c 0,-4.44 -1.05,-6.03 -3.16,-6.03 -2.33,0 -3.24,1.81 -3.24,6.03 0,4.1 0.95,6.02 3.2,6.02 2,0 3.2,-1.6 3.2,-6.02 z"/>
    <path d="m 31.53,97.67 v -1.6 h 3.74 V 84.8 l -3.31,2.36 v -1.77 l 3.47,-2.4 h 1.73 v 13.08 h 3.57 v 1.6 z"/>
    <path d="m 42.84,97.67 v -1.32 c 0.35,-0.81 0.78,-1.53 1.29,-2.15 1.72,-2.09 3.3,-2.95 4.78,-4.39 0.92,-0.82 1.34,-1.77 1.49,-2.96 0,-1.65 -1.04,-2.54 -2.68,-2.54 -1.42,0 -2.69,0.74 -2.89,2.48 l -1.92,-0.18 c 0.27,-2.3 2.03,-3.84 4.8,-3.84 1.54,0 4.6,0.45 4.6,4.02 0,1.3 -0.7,2.45 -1.55,3.4 -1.3,1.43 -3.53,2.9 -4.85,4.4 -0.47,0.52 -0.81,1.02 -1.02,1.51 h 7.66 v 1.6 z"/>
    <path d="m 64.56,93.62 c 0,3.78 -3.31,4.26 -4.98,4.26 -2.07,0 -4.72,-0.67 -5.14,-3.98 l 1.94,-0.18 c 0.25,1.74 1.32,2.6 3.2,2.6 1.37,0 3.03,-0.53 3.03,-2.77 0,-2.29 -2.48,-2.54 -3.58,-2.54 h -1.06 v -1.62 h 1.02 c 2.25,0 3.24,-1.1 3.24,-2.53 0,-1.04 -0.46,-2.54 -2.75,-2.54 -1.56,0 -2.72,0.79 -2.9,2.43 l -1.89,-0.15 c 0.29,-2.52 2.23,-3.82 4.8,-3.82 3,0 4.66,1.49 4.66,3.89 0,1.9 -1.1,3.07 -3.07,3.48 v 0.04 c 2.36,0.25 3.48,1.7 3.48,3.44 z"/>
    <path d="m 74.67,94.35 v 3.32 h -1.77 v -3.32 h -6.92 v -1.46 l 6.72,-9.9 h 1.97 v 9.87 h 2.06 v 1.48 z m -1.77,-9.24 -5.19,7.76 h 5.2 z"/>
    <path d="m 88.33,92.9 c 0,3 -1.83,5 -5.21,5 -2.75,0 -4.46,-1.24 -4.91,-3.5 l 1.9,-0.22 c 0.4,1.45 1.41,2.18 3.05,2.18 2.08,0 3.22,-1.34 3.22,-3.42 0,-1.75 -1.13,-3.09 -3.18,-3.1 -1.3,0 -2.11,0.52 -2.73,1.05 h -1.83 l 0.49,-7.9 h 8.34 v 1.59 h -6.64 l -0.28,4.66 c 0.81,-0.62 1.82,-0.94 3.03,-0.94 3.03,0 4.74,2 4.74,4.58 z"/>
    <path d="m 100.15,92.87 c 0,3.05 -1.72,5.01 -4.74,5.01 -4.33,0 -5.1,-4.21 -5.1,-7.21 0,-5.32 2.05,-7.9 5.25,-7.9 2.22,0 3.61,1 4.19,3 l -1.8,0.32 c -0.37,-1.19 -1.17,-1.8 -2.42,-1.8 -2.94,0 -3.36,3.7 -3.36,5.82 0.76,-1.42 2.2,-1.94 3.56,-1.94 2.75,0 4.42,1.86 4.42,4.7 z m -1.91,0.08 c 0,-2.25 -1.2,-3.32 -2.96,-3.32 -1.57,0 -2.93,0.9 -2.93,2.87 0,2.32 1.26,3.86 3,3.86 1.84,0 2.9,-1.31 2.9,-3.42 z"/>
    <path d="m 131.6,92.9 c 0,3 -1.83,5 -5.21,5 -2.75,0 -4.46,-1.24 -4.91,-3.5 l 1.9,-0.22 c 0.4,1.45 1.41,2.18 3.05,2.18 2.08,0 3.22,-1.34 3.22,-3.42 0,-1.75 -1.13,-3.09 -3.18,-3.1 -1.3,0 -2.11,0.52 -2.73,1.05 h -1.83 l 0.49,-7.9 h 8.34 v 1.6 h -6.64 l -0.28,4.66 c 0.81,-0.62 1.82,-0.94 3.03,-0.94 3.03,0 4.74,2 4.74,4.58 z"/>
  </g>
</svg>
