<?xml version="1.0" encoding="utf-8" standalone="no"?>
<svg version="1.0" width="90" height="90" xmlns="http://www.w3.org/2000/svg">
  <path style="fill:#ffffff" d="m 0,0 h 5 v 10 h 5 V 0 h 5 v 10 h -5 v 5 h 5 v 5 h 5 v -5 h 5 V 10 H 20 V 0 h 5 v 5 h 5 V 0 h 5 V 10 H 50 V 0 h 5 v 5 h 5 V 0 h 5 v 5 h 5 V 0 h 5 v 10 h 5 v 5 h 10 v 5 H 80 v 5 h -5 v 5 h 5 v 5 h 10 v 5 H 75 v 5 H 65 v 5 h 15 v -5 h 10 v 5 H 80 v 5 h -5 v 5 h 5 v 5 h 10 v 5 H 80 v 5 h 10 v 5 H 80 v 5 h 10 v 5 H 0 Z m 15,80 h 5 V 75 H 5 v 5 h 5 v 5 h 5 z m 20,-5 h -5 v -5 h -5 v 5 h 5 v 5 h -5 v 5 h 10 z m 15,-5 h 10 v 5 h -5 v 5 h 5 v 5 H 75 V 80 H 60 V 75 H 70 V 65 h -5 v 5 H 60 V 55 h 5 v 5 h 5 V 55 H 65 V 50 H 60 V 45 H 55 V 40 H 45 v -5 h 5 v -5 h 5 v 5 h 5 v 5 h 5 v -5 h 5 v 5 h 5 V 30 H 70 V 20 H 80 V 15 H 70 V 10 H 65 V 5 h -5 v 5 h -5 v 5 H 45 v 5 H 40 V 15 H 35 V 10 H 30 V 20 H 20 V 35 H 10 v 5 h 10 v 5 h -5 v 5 H 10 V 45 H 5 v 5 h 5 v 5 H 5 v 5 h 5 v 5 H 5 v 5 h 15 v -5 h 5 v -5 h -5 v 5 H 15 V 60 H 10 V 55 H 20 V 45 h 5 v 10 h 5 v 5 h 15 v 5 H 35 v 5 h 10 v 5 h -5 v 5 h 5 v 5 h 5 z m -5,-5 h 5 v 5 h -5 z m 5,-10 h 5 v 5 H 50 Z M 35,45 H 30 V 35 h -5 v 5 h -5 v -5 h 5 v -5 h 5 v -5 h 5 v -5 h 5 v 10 h -5 v 5 h 5 v 5 h 5 v 5 h 5 v 5 h -5 v -5 h -5 v 5 h -5 z m 5,-5 h -5 v 5 h 5 z M 60,30 h 5 v 5 H 60 Z M 50,20 h 5 v 5 H 50 Z M 60,10 h 5 v 5 H 60 Z M 15,20 H 10 V 15 H 5 v 5 h 5 v 5 h 5 z m 70,35 h 5 v 5 h -5 z m 0,-30 h 5 v 3 2 H 85 Z M 85,5 H 80 V 0 h 5 v 5 h 5 v 5 H 85 Z M 40,0 h 5 v 5 h -5 z"/>
</svg>
