<?xml version="1.0" encoding="UTF-8" standalone="no"?>
<svg version="1.0" width="226" height="100" xmlns="http://www.w3.org/2000/svg">
  <rect style="fill:none;opacity:0" width="226" height="100"/>
  <g style="fill:#ffffff">
    <path d="M 16.2 2 L 16.2 89.3 L 18.2 89.3 L 18.2 2 L 16.2 2 z M 20.2 2 L 20.2 89.3 L 22.2 89.3 L 22.2 2 L 20.2 2 z M 28.2 2 L 28.2 89.3 L 32.2 89.3 L 32.2 2 L 28.2 2 z M 34.2 2 L 34.2 89.3 L 36.2 89.3 L 36.2 2 L 34.2 2 z M 40.4 2 L 40.4 78.5 L 44.2 78.5 L 44.2 2 L 40.4 2 z M 48.4 2 L 48.4 78.5 L 50.3 78.5 L 50.3 2 L 48.4 2 z M 54.4 2 L 54.4 78.5 L 56.3 78.5 L 56.3 2 L 54.4 2 z M 60.5 2 L 60.5 78.5 L 64.3 78.5 L 64.3 2 L 60.5 2 z M 66.3 2 L 66.3 78.5 L 74.4 78.5 L 74.4 2 L 66.3 2 z M 76.4 2 L 76.4 78.5 L 78.4 78.5 L 78.4 2 L 76.4 2 z M 80.4 2 L 80.4 78.5 L 82.4 78.5 L 82.4 2 L 80.4 2 z M 88.4 2 L 88.4 78.5 L 92.4 78.5 L 92.4 2 L 88.4 2 z M 94.4 2 L 94.4 78.5 L 98.4 78.5 L 98.4 2 L 94.4 2 z M 104.5 2 L 104.5 78.5 L 106.5 78.5 L 106.5 2 L 104.5 2 z M 108.5 2 L 108.5 89.3 L 110.5 89.3 L 110.5 2 L 108.5 2 z M 112.5 2 L 112.5 89.3 L 114.5 89.3 L 114.5 2 L 112.5 2 z M 116.5 2 L 116.5 78.5 L 118.5 78.5 L 118.5 2 L 116.5 2 z M 120.5 2 L 120.5 78.5 L 122.5 78.5 L 122.5 2 L 120.5 2 z M 130.6 2 L 130.6 78.5 L 132.4 78.5 L 132.4 2 L 130.6 2 z M 138.6 2 L 138.6 78.5 L 140.4 78.5 L 140.4 2 L 138.6 2 z M 144.6 2 L 144.6 78.5 L 146.5 78.5 L 146.5 2 L 144.6 2 z M 150.6 2 L 150.6 78.5 L 152.5 78.5 L 152.5 2 L 150.6 2 z M 158.7 2 L 158.7 78.5 L 164.7 78.5 L 164.7 2 L 158.7 2 z M 166.7 2 L 166.7 78.5 L 168.7 78.5 L 168.7 2 L 166.7 2 z M 172.7 2 L 172.7 78.5 L 178.7 78.5 L 178.7 2 L 172.7 2 z M 182.7 2 L 182.7 78.5 L 184.8 78.5 L 184.8 2 L 182.7 2 z M 186.8 2 L 186.8 89.3 L 188.8 89.3 L 188.8 2 L 186.8 2 z M 192.8 2 L 192.8 89.3 L 198.8 89.3 L 198.8 2 L 192.8 2 z M 200.8 2 L 200.8 89.3 L 202.8 89.3 L 202.8 2 L 200.8 2 z M 204.8 2 L 204.8 89.3 L 206.8 89.3 L 206.8 2 L 204.8 2 z"/>
    <path d="M 12.23,90.43 C 12.23,93.8 11.37,98 7.1,98 3.03,98 2,94.25 2,90.43 c 0,-6.07 2.35,-7.57 5.15,-7.57 2.11,0 5.08,0.88 5.08,7.57 z m -1.91,0 c 0,-4.45 -1.05,-6.05 -3.17,-6.05 -2.33,0 -3.25,1.81 -3.25,6.05 0,4.11 0.95,6.04 3.21,6.04 2.01,0 3.21,-1.6 3.21,-6.04 z"/>
    <path d="m 44.21,97.8 v -1.6 h 3.75 V 84.87 l -3.32,2.37 v -1.78 l 3.48,-2.4 h 1.74 V 96.19 h 3.6 v 1.6 z"/>
    <path d="m 55.57,97.8 v -1.33 c 0.36,-0.81 0.8,-1.53 1.3,-2.15 1.73,-2.1 3.29,-2.94 4.8,-4.4 0.92,-0.82 1.35,-1.77 1.5,-2.97 0,-1.66 -1.04,-2.55 -2.7,-2.55 -1.43,0 -2.7,0.75 -2.9,2.5 l -1.92,-0.18 c 0.27,-2.31 2.04,-3.85 4.82,-3.85 1.55,0 4.62,0.45 4.62,4.03 0,1.3 -0.7,2.46 -1.56,3.4 -1.3,1.42 -3.54,2.91 -4.87,4.4 -0.47,0.52 -0.82,1.03 -1.02,1.51 h 7.68 v 1.6 z"/>
    <path d="M 77.36,93.73 C 77.36,97.52 74.04,98 72.37,98 70.29,98 67.63,97.33 67.21,94.01 l 1.94,-0.18 c 0.25,1.74 1.32,2.61 3.21,2.61 1.37,0 3.04,-0.53 3.04,-2.78 0,-2.3 -2.48,-2.55 -3.6,-2.55 h -1.07 v -1.63 h 1.02 c 2.26,0 3.25,-1.1 3.25,-2.54 0,-1.04 -0.46,-2.55 -2.76,-2.55 -1.57,0 -2.73,0.79 -2.91,2.43 l -1.9,-0.15 c 0.3,-2.53 2.24,-3.83 4.82,-3.83 3.01,0 4.67,1.5 4.67,3.9 0,1.9 -1.1,3.08 -3.08,3.5 v 0.04 c 2.36,0.25 3.5,1.71 3.49,3.45 z"/>
    <path d="m 87.51,94.46 v 3.33 H 85.74 v -3.33 h -6.94 v -1.46 l 6.74,-9.92 h 1.98 v 9.9 h 2.07 v 1.48 z m -1.78,-9.26 -5.21,7.78 h 5.21 z"/>
    <path d="M 101.22,93 C 101.22,96 99.38,98 95.99,98 93.23,98 91.51,96.76 91.07,94.5 l 1.9,-0.22 c 0.4,1.45 1.42,2.18 3.06,2.18 2.1,0 3.23,-1.34 3.23,-3.43 0,-1.76 -1.14,-3.1 -3.2,-3.1 -1.31,0 -2.12,0.52 -2.74,1.05 h -1.84 l 0.49,-7.92 h 8.37 v 1.6 h -6.66 l -0.28,4.67 c 0.82,-0.63 1.83,-0.94 3.04,-0.94 3.04,0 4.76,2 4.76,4.6 z"/>
    <path d="m 131.83,92.98 c 0,3.05 -1.72,5.02 -4.76,5.02 -4.35,0 -5.12,-4.22 -5.12,-7.23 0,-5.34 2.05,-7.92 5.27,-7.92 2.22,0 3.62,1 4.2,3 l -1.8,0.32 c -0.37,-1.2 -1.18,-1.8 -2.43,-1.8 -2.95,0 -3.38,3.7 -3.38,5.84 0.76,-1.42 2.2,-1.94 3.58,-1.94 2.76,0 4.43,1.87 4.43,4.7 z m -1.91,0.08 c 0,-2.25 -1.21,-3.33 -2.97,-3.33 -1.57,0 -2.94,0.9 -2.94,2.88 0,2.33 1.26,3.87 3,3.87 1.85,0 2.91,-1.31 2.91,-3.43 z"/>
    <path d="m 143.6,84.6 q -2.26,3.45 -3.19,5.4 -0.93,1.95 -1.4,3.85 -0.46,1.9 -0.46,3.94 h -1.97 q 0,-2.82 1.19,-5.93 1.2,-3.12 4,-7.18 h -7.91 v -1.6 h 9.73 z"/>
    <path d="m 155.66,93.7 c 0,2.47 -1.5,4.31 -5.02,4.31 -2.94,0 -5.03,-1.36 -5.03,-4.29 0,-2.07 1.35,-3.36 2.94,-3.61 v -0.04 c -1.7,-0.4 -2.6,-1.81 -2.6,-3.43 0,-2.16 1.7,-3.77 4.64,-3.77 3,0 4.7,1.53 4.7,3.8 0,1.55 -0.87,3.04 -2.61,3.38 v 0.04 c 1.94,0.32 2.98,1.74 2.98,3.61 z m -2.32,-6.93 c 0,-1.66 -0.91,-2.5 -2.74,-2.5 -1.38,0 -2.72,0.51 -2.72,2.5 0,2.23 1.66,2.59 2.74,2.59 2.42,0 2.72,-1.49 2.72,-2.6 z m 0.37,6.76 c 0,-2.38 -1.9,-2.76 -3.1,-2.76 -1.93,0 -3.04,1.07 -3.04,2.8 0,2.03 1.03,3.04 3.1,3.04 2.33,0 3.04,-1.24 3.04,-3.08 z"/>
    <path d="m 162.15,98 c -2.66,0 -3.75,-1.26 -4.25,-3.07 l 1.8,-0.28 c 0.38,1.23 1.21,1.84 2.5,1.84 2.93,0 3.41,-3.67 3.44,-5.8 -0.57,1.28 -2.05,2.08 -3.66,2.08 -2.67,0 -4.37,-1.96 -4.37,-4.96 0,-3.03 1.77,-4.95 4.9,-4.95 4.55,0 5,4.7 5,7.28 0,2.82 -0.66,7.86 -5.36,7.86 z m 3.28,-9.68 c 0,-2.37 -1.17,-3.94 -3,-3.94 -1.81,0 -2.93,1.32 -2.93,3.43 0,2.16 1.12,3.48 2.91,3.48 1,0 2.03,-0.43 2.61,-1.42 0.27,-0.45 0.41,-0.97 0.41,-1.55 z"/>
    <path d="m 179.56,90.43 c 0,3.37 -0.86,7.57 -5.14,7.57 -4.17,0 -5.1,-3.95 -5.1,-7.57 0,-6.1 2.36,-7.57 5.15,-7.57 2.25,0 5.08,1.03 5.08,7.57 z m -1.91,0 c 0,-4.53 -1.09,-6.05 -3.17,-6.05 -2.32,0 -3.25,1.78 -3.25,6.05 0,4.17 0.98,6.03 3.21,6.03 2.13,0 3.21,-1.78 3.21,-6.03 z"/>
    <path d="m 224,93 c 0,3 -1.84,5 -5.23,5 -2.76,0 -4.48,-1.24 -4.92,-3.5 l 1.9,-0.22 c 0.4,1.45 1.42,2.18 3.06,2.18 2.09,0 3.23,-1.34 3.23,-3.43 0,-1.76 -1.14,-3.1 -3.19,-3.1 -1.31,0 -2.12,0.52 -2.74,1.05 h -1.84 l 0.49,-7.92 h 8.37 v 1.6 h -6.66 l -0.28,4.67 c 0.82,-0.63 1.83,-0.94 3.04,-0.94 3.04,0 4.76,2 4.76,4.6 z"/>
  </g>
</svg>
