<?xml version="1.0" encoding="UTF-8" standalone="no"?>
<svg version="1.0" width="87" height="87" xmlns="http://www.w3.org/2000/svg">
  <g style="fill:#ffffff">
    <path d="m 0,0 c 0,8 0,14 0,21 7,0 15,0 21,0 C 21,13 21,7 21,0 13,0 7,0 0,0 Z m 3,3 c 6,0 10,0 15,0 0,5 0,11 0,15 C 13,18 7,18 3,18 3,12 3,8 3,3 z"/>
    <path d="m 6,6 c 0,3 0,6 0,9 3,0 6,0 9,0 0,-3 0,-6 0,-9 -3,0 -6,0 -9,0 z"/>
    <path d="m 0,27 c 0,2 0,4 0,6 h 3 v -3 h 3 v -3 c -2,0 -4,0 -6,0 z"/>
    <path d="m 6,33 v 3 H 3 v 3 H 0 c 0,3 0,6 0,9 h 3 v 3 H 6 C 6,49 6,47 6,45 H 3 v -3 h 3 v -3 c 2,0 4,0 6,0 V 36 H 9 v -3 z"/>
    <path d="m 0,54 c 0,2 0,4 0,6 2,0 4,0 6,0 v -3 h 3 v 3 h 3 v -3 h 3 V 54 C 10,54 4,54 0,54 z"/>
    <path d="m 0,66 c 0,7 0,14 0,21 7,0 15,0 21,0 0,-7 0,-15 0,-21 -7,0 -14,0 -21,0 z m 3,3 c 5,0 11,0 15,0 0,5 0,11 0,15 -5,0 -10,0 -15,0 0,-5 0,-11 0,-15 z"/>
    <path d="m 6,72 c 0,3 0,6 0,9 3,0 6,0 9,0 0,-3 0,-6 0,-9 -3,0 -6,0 -9,0 z"/>
    <path d="m 15,39 v 3 h -3 v 3 H 9 v 3 c 3,0 6,0 9,0 v -3 h 3 v -3 h -3 v -3 z"/>
    <path d="m 12,24 c 0,2 0,4 0,6 h 3 v 3 h 3 3 v -3 h -3 v -3 c 2,0 4,0 6,0 v -3 c -4,0 -8,0 -12,0 z"/>
    <path d="m 15,57 v 3 h -3 v 3 c 4,0 8,0 12,0 v -3 c -2,0 -4,0 -6,0 v -3 z"/>
    <path d="m 24,15 c 0,3 0,6 0,9 h 3 c 0,2 0,4 0,6 h -3 v 3 h -3 v 3 h -3 v 3 h 3 v 3 h 3 v -3 h 3 v -3 h 3 v -3 h 3 v -3 h -3 c 0,-3 0,-6 0,-9 h -3 v -3 h 3 v -3 c -2,0 -4,0 -6,0 z"/>
    <path d="m 30,39 c 0,2 0,4 0,6 h -3 v -3 h -3 v 3 h -3 v 3 h 3 v 3 h 3 v 3 c -3,0 -6,0 -9,0 v 3 c 2,0 4,0 6,0 v 3 h 3 v 3 h -3 c 0,4 0,8 0,12 2,0 4,0 6,0 v -3 c 2,0 4,0 6,0 v -3 c -3,0 -6,0 -9,0 v -3 c 5,0 11,0 15,0 v -3 h 3 v -3 h -3 v -3 c -2,0 -4,0 -6,0 v 3 h 3 v 3 c -3,0 -6,0 -9,0 v -3 h 3 c 0,-2 0,-4 0,-6 h -3 v -3 c 2,0 4,0 6,0 v -3 h -3 c 0,-3 0,-6 0,-9 z"/>
    <path d="m 27,0 v 3 h -3 v 3 h 3 c 0,2 0,4 0,6 h 3 V 9 h 3 V 6 H 30 V 3 h 3 V 0 c -2,0 -4,0 -6,0 z"/>
    <path d="m 33,9 v 3 h -3 v 3 h 3 v 3 h 3 c 0,-2 0,-4 0,-6 h 3 V 9 c -2,0 -4,0 -6,0 z"/>
    <path d="m 36,72 v 3 h -3 v 3 h -3 v 3 c 2,0 4,0 6,0 v 3 c 2,0 4,0 6,0 v -3 h -3 v -3 c 4,0 8,0 12,0 v -3 h -3 v -3 h -3 v 3 c -2,0 -4,0 -6,0 v -3 z"/>
    <path d="m 54,9 v 3 h -3 v 3 h -3 v -3 h -3 v 3 h -6 v 3 h 3 v 6 h 3 v -6 h 3 v 6 h -3 v 3 h -3 v -3 h -3 v -6 h -3 v 3 h -3 v 3 h 3 v 3 h 3 v 3 h -3 v 6 h 3 v -3 h 3 v -3 h 6 v -3 h 3 v -9 h 3 v -3 h 3 V 9 Z m 3,15 v 3 h -3 v 3 h 3 v 3 h -3 v 3 h -3 v 3 h -3 v 3 h 3 v 3 h -3 c 0,2 0,4 0,6 2,0 4,0 6,0 0,-4 0,-9 0,-12 h 3 v -3 h 3 v 3 h 3 c 0,2 0,4 0,6 h 3 v 3 h 3 c 0,-2 0,-4 0,-6 h 3 c 0,2 0,4 0,6 h -3 v 3 h 3 v 3 h 3 c 0,-2 0,-4 0,-6 h 3 c 0,-2 0,-4 0,-6 h 3 v -3 h -3 c 0,-2 0,-4 0,-6 h -3 v -3 h -3 c 0,-2 0,-4 0,-6 -2,0 -4,0 -6,0 v 3 h 3 v 3 h -3 v 3 3 h 3 v -3 h 3 v 3 h 3 v 3 h -3 v -3 h -3 v 3 h -3 v -3 h -3 v -3 h -3 c 0,-2 0,-4 0,-6 h 3 v -3 c -2,0 -4,0 -6,0 z m -3,9 v -3 h -3 v 3 z"/>
    <path d="m 39,36 c 0,2 0,4 0,6 h -3 v 3 h 3 c 0,3 0,6 0,9 h 3 v 3 c 2,0 4,0 6,0 0,-2 0,-4 0,-6 -2,0 -4,0 -6,0 v -3 h 3 v -3 h -3 c 0,-2 0,-4 0,-6 h 3 v -3 c -2,0 -4,0 -6,0 z"/>
    <path d="m 42,0 v 3 h -3 v 3 c 2,0 4,0 6,0 V 3 h 3 V 0 c -2,0 -4,0 -6,0 z"/>
    <path d="m 45,63 v 3 h -3 c 0,2 0,4 0,6 h 3 v -3 h 3 c 0,-2 0,-4 0,-6 z"/>
    <path d="m 45,33 v 3 c 2,0 4,0 6,0 v -3 c -2,0 -4,0 -6,0 z"/>
    <path d="m 57,0 v 3 c -3,0 -6,0 -9,0 v 3 h 3 v 3 h 3 V 6 c 2,0 4,0 6,0 V 3 h 3 V 0 c -2,0 -4,0 -6,0 z"/>
    <path d="m 57,45 c 0,2 0,4 0,6 h -3 v 3 h -3 v 3 h 3 v 3 c -2,0 -4,0 -6,0 v 3 h 3 v 3 h 3 v -3 h 3 c 0,3 0,6 0,9 h -3 v 3 c 2,0 4,0 6,0 v 3 h -3 v 3 c 3,0 6,0 9,0 v -3 h -3 v -3 c 5,0 10,0 15,0 0,-2 0,-4 0,-6 h -3 v -3 h 3 v 3 h 3 c 0,-2 0,-4 0,-6 h 3 c 0,2 0,4 0,6 h 3 c 0,-3 0,-6 0,-9 -5,0 -10,0 -15,0 v -3 h -3 v 3 h -3 v -3 h 3 v -3 h -3 v -3 c -2,0 -4,0 -6,0 0,-2 0,-4 0,-6 z m 0,9 h 3 v 3 h 3 v 3 c -2,0 -4,0 -6,0 v -3 z m 6,9 c 3,0 6,0 9,0 0,3 0,6 0,9 -3,0 -6,0 -9,0 0,-3 0,-6 0,-9 z"/>
    <path d="m 48,69 v 3 c 2,0 4,0 6,0 v -3 c -2,0 -4,0 -6,0 z"/>
    <path d="m 48,81 v 3 h 3 v 3 c 2,0 4,0 6,0 v -3 h -3 v -3 c -2,0 -4,0 -6,0 z"/>
    <path d="m 66,0 c 0,7 0,15 0,21 7,0 15,0 21,0 C 87,14 87,6 87,0 80,0 72,0 66,0 Z m 3,3 c 6,0 10,0 15,0 0,5 0,11 0,15 -5,0 -11,0 -15,0 0,-6 0,-10 0,-15 z"/>
    <path d="m 72,6 c 0,3 0,6 0,9 3,0 6,0 9,0 0,-3 0,-6 0,-9 -3,0 -6,0 -9,0 z"/>
    <path d="m 78,78 v 3 c -3,0 -6,0 -9,0 v 3 h 3 v 3 c 4,0 8,0 12,0 v -3 h 3 v -3 -3 c -3,0 -6,0 -9,0 z"/>
    <path d="m 84,27 c 0,2 0,4 0,6 h -3 v 3 h 3 c 0,3 0,6 0,9 h 3 c 0,-7 0,-12 0,-18 z"/>
    <path d="m 81,48 v 3 h 3 c 0,2 0,4 0,6 h 3 c 0,-3 0,-6 0,-9 -2,0 -4,0 -6,0 z"/>
    <rect x="6" y="42" width="3" height="3"/>
    <rect x="6" y="60" width="3" height="3"/>
    <rect x="12" y="33" width="3" height="3"/>
    <rect x="15" y="51" width="3" height="3"/>
    <rect x="18" y="48" width="3" height="3"/>
    <rect x="27" y="81" width="3" height="3"/>
    <rect x="30" y="18" width="3" height="3"/>
    <rect x="33" y="3"  width="3" height="3"/>
    <rect x="33" y="36" width="3" height="3"/>
    <rect x="36" y="0" width="3" height="3"/>
    <rect x="42" y="9" width="3" height="3"/>
    <rect x="42" y="84" width="3" height="3"/>
    <rect x="45" y="42" width="3" height="3"/>
    <rect x="48" y="9" width="3" height="3"/>
    <rect x="54" y="18" width="3" height="3"/>
    <rect x="57" y="15" width="3" height="3"/>
    <rect x="60" y="9" width="3" height="3"/>
    <rect x="60" y="18" width="3" height="3"/>
    <rect x="66" y="66" width="3" height="3"/>
    <rect x="66" y="84" width="3" height="3"/>
    <rect x="75" y="54" width="3" height="3"/>
    <rect x="78" y="27" width="3" height="3"/>
    <rect x="78" y="51" width="3" height="3"/>
    <rect x="81" y="24" width="3" height="3"/>
  </g>
</svg>
