<?xml version="1.0" encoding="UTF-8" standalone="no"?>
<svg
   xmlns:svg="http://www.w3.org/2000/svg"
   xmlns="http://www.w3.org/2000/svg"
   xmlns:sodipodi="http://sodipodi.sourceforge.net/DTD/sodipodi-0.dtd"
   xmlns:inkscape="http://www.inkscape.org/namespaces/inkscape"
   x="0.0000mm"
   y="0.0000mm"
   width="134"
   height="100"
   viewBox="0 0 35.45417 26.458333"
   version="1.1"
   sodipodi:docname="sample-upce.svg"
   style="shape-rendering:crispEdges"
   inkscape:version="0.92.5 (2060ec1f9f, 2020-04-08)">
  <g
     style="fill:#ffffff;fill-opacity:1">
    <rect
       x="4.7624998"
       y="0"
       width="0.5292"
       height="23.0371"
       style="fill:#ffffff;fill-opacity:1"/>
    <rect
       x="5.8207998"
       y="0"
       width="0.5292"
       height="23.0371"
       style="fill:#ffffff;fill-opacity:1"/>
    <rect
       x="6.8383999"
       y="0"
       width="1.099"
       height="20.1864"
       style="fill:#ffffff;fill-opacity:1"/>
    <rect
       x="8.9551"
       y="0"
       width="1.099"
       height="20.1864"
       style="fill:#ffffff;fill-opacity:1"/>
    <rect
       x="11.1532"
       y="0"
       width="0.4885"
       height="20.1864"
       style="fill:#ffffff;fill-opacity:1"/>
    <rect
       x="12.7406"
       y="0"
       width="1.0176"
       height="20.1864"
       style="fill:#ffffff;fill-opacity:1"/>
    <rect
       x="14.2874"
       y="0"
       width="2.1167"
       height="20.1864"
       style="fill:#ffffff;fill-opacity:1"/>
    <rect
       x="16.9333"
       y="0"
       width="0.5292"
       height="20.1864"
       style="fill:#ffffff;fill-opacity:1"/>
    <rect
       x="18.5207"
       y="0"
       width="1.5875"
       height="20.1864"
       style="fill:#ffffff;fill-opacity:1"/>
    <rect
       x="20.6374"
       y="0"
       width="0.5292"
       height="20.1864"
       style="fill:#ffffff;fill-opacity:1"/>
    <rect
       x="21.6957"
       y="0"
       width="1.5875"
       height="20.1864"
       style="fill:#ffffff;fill-opacity:1"/>
    <rect
       x="24.3416"
       y="0"
       width="0.5292"
       height="20.1864"
       style="fill:#ffffff;fill-opacity:1"/>
    <rect
       x="25.3999"
       y="0"
       width="0.5292"
       height="20.1864"
       style="fill:#ffffff;fill-opacity:1"/>
    <rect
       x="26.4582"
       y="0"
       width="2.1167"
       height="20.1864"
       style="fill:#ffffff;fill-opacity:1"/>
    <rect
       x="29.104"
       y="0"
       width="0.5292"
       height="23.0371"
       style="fill:#ffffff;fill-opacity:1"/>
    <rect
       x="30.1624"
       y="0"
       width="0.5292"
       height="23.0371"
       style="fill:#ffffff;fill-opacity:1"/>
    <rect
       x="31.220699"
       y="0"
       width="0.5292"
       height="23.0371"
       style="fill:#ffffff;fill-opacity:1"/>
  </g>
  <g>
    <g>
      <path
         d="m 3.7302889,23.339082 q 0,0.972887 -0.3445069,1.485514 -0.3417508,0.512626 -1.0114721,0.512626 -0.6697213,0 -1.0059599,-0.50987 -0.3362387,-0.50987 -0.3362387,-1.48827 0,-1.000448 0.3252144,-1.499294 0.3279706,-0.498846 1.0335206,-0.498846 0.6862576,0 1.0114721,0.504358 0.3279705,0.504358 0.3279705,1.493782 z m -0.504358,0 q 0,-0.840597 -0.1956799,-1.218176 -0.1929239,-0.37758 -0.6394047,-0.37758 -0.4575051,0 -0.6586971,0.372068 -0.198436,0.372067 -0.198436,1.223688 0,0.826817 0.201192,1.209908 0.2039481,0.383092 0.6449168,0.383092 0.4382128,0 0.6421608,-0.39136 0.2039481,-0.39136 0.2039481,-1.20164 z"
         inkscape:connector-curvature="0"
         style="fill:#ffffff;fill-opacity:1"/>
    </g>
    <g>
      <path
         d="M 8.7395048,25.282101 V 24.860424 H 9.7289284 V 21.872861 L 8.852503,22.498485 V 22.029956 L 9.7702692,21.39882 h 0.4575048 v 3.461604 h 0.945327 v 0.421677 z"
         inkscape:connector-curvature="0"
         style="fill:#ffffff;fill-opacity:1"/>
      <path
         d="m 11.73258,25.282101 v -0.350019 q 0.140559,-0.322459 0.341751,-0.567748 0.203948,-0.248044 0.427188,-0.44648 0.223241,-0.201192 0.440969,-0.372068 0.220485,-0.170875 0.396872,-0.341751 0.176388,-0.170875 0.283874,-0.358287 0.110242,-0.187411 0.110242,-0.424432 0,-0.319702 -0.187412,-0.49609 -0.187412,-0.176388 -0.520894,-0.176388 -0.316946,0 -0.523651,0.173632 -0.203948,0.170875 -0.239776,0.48231 l -0.507114,-0.04685 q 0.05512,-0.465774 0.394115,-0.741379 0.341751,-0.275606 0.876426,-0.275606 0.58704,0 0.90123,0.278362 0.316946,0.275605 0.316946,0.785476 0,0.225996 -0.10473,0.449236 -0.101974,0.223241 -0.305922,0.446481 -0.203948,0.223241 -0.779964,0.69177 -0.316946,0.259069 -0.504358,0.468529 -0.187411,0.206704 -0.270093,0.399628 h 2.0257 v 0.421677 z"
         inkscape:connector-curvature="0"
         style="fill:#ffffff;fill-opacity:1"/>
      <path
         d="m 17.478954,24.209995 q 0,0.537431 -0.34175,0.832329 -0.341751,0.294898 -0.975644,0.294898 -0.589796,0 -0.942571,-0.264581 -0.350019,-0.267338 -0.416164,-0.788232 l 0.512626,-0.04685 q 0.09922,0.689014 0.846109,0.689014 0.374824,0 0.58704,-0.184656 0.214972,-0.184656 0.214972,-0.548455 0,-0.316946 -0.245289,-0.493334 -0.242533,-0.179143 -0.702794,-0.179143 H 15.734372 V 23.09104 h 0.270093 q 0.407896,0 0.631137,-0.176387 0.225996,-0.179144 0.225996,-0.493334 0,-0.311434 -0.184656,-0.490578 -0.181899,-0.1819 -0.542942,-0.1819 -0.327971,0 -0.531919,0.16812 -0.201192,0.168119 -0.234265,0.474041 l -0.498846,-0.03859 q 0.05512,-0.476797 0.394116,-0.744134 0.341751,-0.267338 0.876426,-0.267338 0.584283,0 0.906742,0.27285 0.325214,0.270093 0.325214,0.755159 0,0.372067 -0.20946,0.606332 -0.206704,0.231508 -0.603576,0.31419 v 0.01102 q 0.435457,0.04685 0.677989,0.292142 0.242533,0.245289 0.242533,0.617356 z"
         inkscape:connector-curvature="0"
         style="fill:#ffffff;fill-opacity:1"/>
      <path
         d="m 20.155083,24.402919 v 0.879182 h -0.468529 v -0.879182 h -1.830021 v -0.385847 l 1.777656,-2.618252 h 0.520894 v 2.612739 h 0.545699 v 0.39136 z m -0.468529,-2.44462 q -0.0055,0.01654 -0.07717,0.146071 -0.07166,0.129534 -0.107486,0.181899 l -0.994936,1.466221 -0.148827,0.203948 -0.0441,0.05512 h 1.372516 z"
         inkscape:connector-curvature="0"
         style="fill:#ffffff;fill-opacity:1"/>
      <path
         d="m 23.768271,24.017072 q 0,0.6146 -0.366555,0.967375 -0.363799,0.352775 -1.011472,0.352775 -0.542943,0 -0.876426,-0.237021 -0.333482,-0.237021 -0.421676,-0.686258 l 0.501602,-0.05788 q 0.157095,0.576016 0.807524,0.576016 0.399628,0 0.625624,-0.239777 0.225997,-0.242533 0.225997,-0.664209 0,-0.366556 -0.228753,-0.592552 -0.225996,-0.225996 -0.611844,-0.225996 -0.201192,0 -0.374823,0.06339 -0.173632,0.06339 -0.347263,0.214972 H 21.20514 l 0.129535,-2.089089 h 2.2076 v 0.421676 h -1.755607 l -0.07441,1.231956 q 0.322459,-0.248045 0.802012,-0.248045 0.57326,0 0.912254,0.336239 0.341751,0.336239 0.341751,0.876426 z"
         inkscape:connector-curvature="0"
         style="fill:#ffffff;fill-opacity:1"/>
      <path
         d="m 26.896394,24.011559 q 0,0.614601 -0.333483,0.970132 -0.333482,0.355531 -0.920522,0.355531 -0.655941,0 -1.003204,-0.487822 -0.347263,-0.487822 -0.347263,-1.419368 0,-1.008716 0.361043,-1.548903 0.361043,-0.540187 1.028009,-0.540187 0.879181,0 1.107934,0.790988 l -0.474042,0.08544 q -0.146071,-0.474042 -0.639404,-0.474042 -0.424433,0 -0.658698,0.396872 -0.231508,0.394116 -0.231508,1.143763 0.135047,-0.250801 0.380335,-0.380336 0.245289,-0.13229 0.562236,-0.13229 0.53743,0 0.85162,0.336238 0.316947,0.336239 0.316947,0.903986 z m -0.504358,0.02205 q 0,-0.421676 -0.206704,-0.650429 -0.206704,-0.228753 -0.576016,-0.228753 -0.347263,0 -0.562235,0.203948 -0.212216,0.201192 -0.212216,0.556724 0,0.449236 0.220484,0.735866 0.223241,0.28663 0.570504,0.28663 0.358287,0 0.562235,-0.239777 0.203948,-0.242533 0.203948,-0.664209 z"
         inkscape:connector-curvature="0"
         style="fill:#ffffff;fill-opacity:1"/>
    </g>
    <g>
      <path
         d="m 35.216978,24.017072 q 0,0.6146 -0.366555,0.967375 -0.3638,0.352775 -1.011473,0.352775 -0.542942,0 -0.876425,-0.237021 -0.333483,-0.237021 -0.421676,-0.686258 l 0.501602,-0.05788 q 0.157095,0.576016 0.807524,0.576016 0.399628,0 0.625624,-0.239777 0.225997,-0.242533 0.225997,-0.664209 0,-0.366556 -0.228753,-0.592552 -0.225996,-0.225996 -0.611844,-0.225996 -0.201192,0 -0.374824,0.06339 -0.173631,0.06339 -0.347262,0.214972 h -0.485066 l 0.129535,-2.089089 h 2.207599 v 0.421676 h -1.755607 l -0.07441,1.231956 q 0.322458,-0.248045 0.802012,-0.248045 0.573259,0 0.912254,0.336239 0.341751,0.336239 0.341751,0.876426 z"
         inkscape:connector-curvature="0"
         style="fill:#ffffff;fill-opacity:1"/>
    </g>
  </g>
</svg>
