<?xml version="1.0" encoding="UTF-8" standalone="no"?>
<svg version="1.0" width="333" height="100" xmlns="http://www.w3.org/2000/svg">
  <path style="fill:#ffffff" d="M 0,0 V 100 H 2.6 V 0 Z m 10.5,0 v 100 h 2.6 V 0 Z m 5.2,0 v 100 h 7.9 V 0 Z m 10.5,0 v 100 h 7.9 V 0 Z m 10.5,0 v 100 h 2.6 V 0 Z m 5.2,0 v 100 h 7.9 V 0 Z m 10.5,0 v 100 h 7.9 V 0 Z m 10.5,0 v 100 h 2.6 V 0 Z m 10.5,0 v 100 h 2.6 V 0 Z m 5.2,0 v 100 h 2.6 V 0 Z m 5.2,0 v 100 h 7.9 V 0 Z m 10.5,0 v 100 h 2.6 V 0 Z m 5.2,0 v 100 h 7.9 V 0 Z M 110.1,0 v 100 h 2.6 V 0 Z m 10.5,0 v 100 h 2.6 V 0 Z m 5.2,0 v 100 h 2.6 V 0 Z m 5.2,0 v 100 h 2.6 V 0 Z m 5.2,0 v 100 h 7.9 V 0 Z m 15.7,0 v 100 h 2.6 V 0 Z m 5.2,0 v 100 h 7.9 V 0 Z m 10.5,0 v 100 h 7.9 V 0 Z m 10.5,0 v 100 h 2.6 V 0 Z m 5.2,0 v 100 h 7.9 V 0 Z m 15.7,0 v 100 h 2.6 V 0 Z m 5.2,0 v 100 h 2.6 V 0 Z m 5.2,0 v 100 h 7.9 V 0 Z m 10.5,0 v 100 h 7.9 V 0 Z m 15.7,0 v 100 h 2.6 V 0 Z m 5.2,0 v 100 h 2.6 V 0 Z m 5.2,0 v 100 h 2.6 V 0 Z m 5.2,0 v 100 h 2.6 V 0 Z m 5.2,0 v 100 h 7.9 V 0 Z m 15.7,0 v 100 h 2.6 V 0 Z m 5.2,0 v 100 h 7.9 V 0 Z m 10.5,0 v 100 h 2.6 V 0 Z m 5.2,0 v 100 h 2.6 V 0 Z m 10.5,0 v 100 h 2.6 V 0 Z m 5.2,0 v 100 h 7.9 V 0 Z m 10.5,0 v 100 h 7.9 V 0 Z m 10.5,0 V 100 H 333 V 0 z"/>
</svg>
