<?xml version="1.0" encoding="utf-8" standalone="no"?>
<svg version="1.0" width="262" height="100" xmlns="http://www.w3.org/2000/svg">
  <path style="fill:#ffffff" d="M 0 0 L 0 100 L 2.6 100 L 2.6 0 L 0 0 z M 5.2 0 L 5.2 100 L 7.9 100 L 7.9 0 L 5.2 0 z M 10.5 0 L 10.5 100 L 21 100 L 21 0 L 10.5 0 z M 23.6 0 L 23.6 100 L 28.8 100 L 28.8 0 L 23.6 0 z M 31.4 0 L 31.4 100 L 34.1 100 L 34.1 0 L 31.4 0 z M 41.9 0 L 41.9 100 L 44.5 100 L 44.5 0 L 41.9 0 z M 47.2 0 L 47.2 100 L 49.8 100 L 49.8 0 L 47.2 0 z M 55 0 L 55 100 L 57.6 100 L 57.6 0 L 55 0 z M 60.3 0 L 60.3 100 L 65.5 100 L 65.5 0 L 60.3 0 z M 70.7 0 L 70.7 100 L 76 100 L 76 0 L 70.7 0 z M 81.2 0 L 81.2 100 L 83.8 100 L 83.8 0 L 81.2 0 z M 86.5 0 L 86.5 100 L 89.1 100 L 89.1 0 L 86.5 0 z M 94.3 0 L 94.3 100 L 99.6 100 L 99.6 0 L 94.3 0 z M 104.8 0 L 104.8 100 L 107.4 100 L 107.4 0 L 104.8 0 z M 112.7 0 L 112.7 100 L 115.3 100 L 115.3 0 L 112.7 0 z M 117.9 0 L 117.9 100 L 120.5 100 L 120.5 0 L 117.9 0 z M 125.8 0 L 125.8 100 L 128.4 100 L 128.4 0 L 125.8 0 z M 131 0 L 131 100 L 138.9 100 L 138.9 0 L 131 0 z M 141.5 0 L 141.5 100 L 144.1 100 L 144.1 0 L 141.5 0 z M 154.6 0 L 154.6 100 L 157.2 100 L 157.2 0 L 154.6 0 z M 159.8 0 L 159.8 100 L 162.4 100 L 162.4 0 L 159.8 0 z M 165.1 0 L 165.1 100 L 167.7 100 L 167.7 0 L 165.1 0 z M 170.3 0 L 170.3 100 L 172.9 100 L 172.9 0 L 170.3 0 z M 183.4 0 L 183.4 100 L 186 100 L 186 0 L 183.4 0 z M 188.6 0 L 188.6 100 L 191.3 100 L 191.3 0 L 188.6 0 z M 199.1 0 L 199.1 100 L 201.7 100 L 201.7 0 L 199.1 0 z M 207 0 L 207 100 L 209.6 100 L 209.6 0 L 207 0 z M 212.2 0 L 212.2 100 L 214.8 100 L 214.8 0 L 212.2 0 z M 217.5 0 L 217.5 100 L 222.7 100 L 222.7 0 L 217.5 0 z M 227.9 0 L 227.9 100 L 233.2 100 L 233.2 0 L 227.9 0 z M 235.8 0 L 235.8 100 L 238.4 100 L 238.4 0 L 235.8 0 z M 241 0 L 241 100 L 243.7 100 L 243.7 0 L 241 0 z M 246.3 0 L 246.3 100 L 256.8 100 L 256.8 0 L 246.3 0 z M 259.4 0 L 259.4 100 L 262 100 L 262 0 L 259.4 0 z"/>
</svg>
