<?xml version="1.0" encoding="UTF-8" standalone="no"?>
<svg
   xmlns:svg="http://www.w3.org/2000/svg"
   xmlns="http://www.w3.org/2000/svg"
   xmlns:sodipodi="http://sodipodi.sourceforge.net/DTD/sodipodi-0.dtd"
   xmlns:inkscape="http://www.inkscape.org/namespaces/inkscape"
   x="0.0000mm"
   y="0.0000mm"
   width="262"
   height="100"
   viewBox="0 0 69.320831 26.458333"
   version="1.1"
   sodipodi:docname="sample-code93.svg"
   style="shape-rendering:crispEdges"
   inkscape:version="0.92.5 (2060ec1f9f, 2020-04-08)">
  <g
     transform="scale(1.3107009)"
     style="fill:#ffffff;fill-opacity:1">
    <rect
       x="0"
       y="0"
       width="0.5292"
       height="20.1864"
       style="fill:#ffffff;fill-opacity:1"/>
    <rect
       x="1.0583"
       y="0"
       width="0.5292"
       height="20.1864"
       style="fill:#ffffff;fill-opacity:1"/>
    <rect
       x="2.1167"
       y="0"
       width="2.1167"
       height="20.1864"
       style="fill:#ffffff;fill-opacity:1"/>
    <rect
       x="4.7625"
       y="0"
       width="1.0583"
       height="20.1864"
       style="fill:#ffffff;fill-opacity:1"/>
    <rect
       x="6.35"
       y="0"
       width="0.5292"
       height="20.1864"
       style="fill:#ffffff;fill-opacity:1"/>
    <rect
       x="8.4667"
       y="0"
       width="0.5292"
       height="20.1864"
       style="fill:#ffffff;fill-opacity:1"/>
    <rect
       x="9.5251"
       y="0"
       width="0.5292"
       height="20.1864"
       style="fill:#ffffff;fill-opacity:1"/>
    <rect
       x="11.1126"
       y="0"
       width="0.5292"
       height="20.1864"
       style="fill:#ffffff;fill-opacity:1"/>
    <rect
       x="12.1709"
       y="0"
       width="1.0583"
       height="20.1864"
       style="fill:#ffffff;fill-opacity:1"/>
    <rect
       x="14.2876"
       y="0"
       width="1.0583"
       height="20.1864"
       style="fill:#ffffff;fill-opacity:1"/>
    <rect
       x="16.404301"
       y="0"
       width="0.5292"
       height="20.1864"
       style="fill:#ffffff;fill-opacity:1"/>
    <rect
       x="17.462601"
       y="0"
       width="0.5292"
       height="20.1864"
       style="fill:#ffffff;fill-opacity:1"/>
    <rect
       x="19.0501"
       y="0"
       width="1.0583"
       height="20.1864"
       style="fill:#ffffff;fill-opacity:1"/>
    <rect
       x="21.1668"
       y="0"
       width="0.5292"
       height="20.1864"
       style="fill:#ffffff;fill-opacity:1"/>
    <rect
       x="22.7543"
       y="0"
       width="0.5292"
       height="20.1864"
       style="fill:#ffffff;fill-opacity:1"/>
    <rect
       x="23.8127"
       y="0"
       width="0.5292"
       height="20.1864"
       style="fill:#ffffff;fill-opacity:1"/>
    <rect
       x="25.4002"
       y="0"
       width="0.5292"
       height="20.1864"
       style="fill:#ffffff;fill-opacity:1"/>
    <rect
       x="26.4585"
       y="0"
       width="1.5875"
       height="20.1864"
       style="fill:#ffffff;fill-opacity:1"/>
    <rect
       x="28.5752"
       y="0"
       width="0.5292"
       height="20.1864"
       style="fill:#ffffff;fill-opacity:1"/>
    <rect
       x="31.221"
       y="0"
       width="0.5292"
       height="20.1864"
       style="fill:#ffffff;fill-opacity:1"/>
    <rect
       x="32.2794"
       y="0"
       width="0.5292"
       height="20.1864"
       style="fill:#ffffff;fill-opacity:1"/>
    <rect
       x="33.3377"
       y="0"
       width="0.5292"
       height="20.1864"
       style="fill:#ffffff;fill-opacity:1"/>
    <rect
       x="34.3961"
       y="0"
       width="0.5292"
       height="20.1864"
       style="fill:#ffffff;fill-opacity:1"/>
    <rect
       x="37.041901"
       y="0"
       width="0.5292"
       height="20.1864"
       style="fill:#ffffff;fill-opacity:1"/>
    <rect
       x="38.100201"
       y="0"
       width="0.5292"
       height="20.1864"
       style="fill:#ffffff;fill-opacity:1"/>
    <rect
       x="40.2169"
       y="0"
       width="0.5292"
       height="20.1864"
       style="fill:#ffffff;fill-opacity:1"/>
    <rect
       x="41.804401"
       y="0"
       width="0.5292"
       height="20.1864"
       style="fill:#ffffff;fill-opacity:1"/>
    <rect
       x="42.862801"
       y="0"
       width="0.5292"
       height="20.1864"
       style="fill:#ffffff;fill-opacity:1"/>
    <rect
       x="43.921101"
       y="0"
       width="1.0583"
       height="20.1864"
       style="fill:#ffffff;fill-opacity:1"/>
    <rect
       x="46.0378"
       y="0"
       width="1.0583"
       height="20.1864"
       style="fill:#ffffff;fill-opacity:1"/>
    <rect
       x="47.625301"
       y="0"
       width="0.5292"
       height="20.1864"
       style="fill:#ffffff;fill-opacity:1"/>
    <rect
       x="48.683601"
       y="0"
       width="0.5292"
       height="20.1864"
       style="fill:#ffffff;fill-opacity:1"/>
    <rect
       x="49.742"
       y="0"
       width="2.1167"
       height="20.1864"
       style="fill:#ffffff;fill-opacity:1"/>
    <rect
       x="52.387798"
       y="0"
       width="0.5292"
       height="20.1864"
       style="fill:#ffffff;fill-opacity:1"/>
  </g>
</svg>
