<?xml version="1.0" encoding="UTF-8" standalone="no"?>
<svg
   xmlns:svg="http://www.w3.org/2000/svg"
   xmlns="http://www.w3.org/2000/svg"
   xmlns:sodipodi="http://sodipodi.sourceforge.net/DTD/sodipodi-0.dtd"
   xmlns:inkscape="http://www.inkscape.org/namespaces/inkscape"
   x="0.0000mm"
   y="0.0000mm"
   width="333"
   height="100"
   viewBox="0 0 88.106245 26.458334"
   version="1.1"
   sodipodi:docname="sample-code39.svg"
   style="shape-rendering:crispEdges"
   inkscape:version="0.92.5 (2060ec1f9f, 2020-04-08)">
  <g
     transform="scale(1.310701)"
     style="fill:#ffffff;fill-opacity:1">
    <rect
       x="0"
       y="0"
       width="0.5292"
       height="20.1864"
       style="fill:#ffffff;fill-opacity:1"/>
    <rect
       x="2.1167"
       y="0"
       width="0.5292"
       height="20.1864"
       style="fill:#ffffff;fill-opacity:1"/>
    <rect
       x="3.175"
       y="0"
       width="1.5875"
       height="20.1864"
       style="fill:#ffffff;fill-opacity:1"/>
    <rect
       x="5.2917"
       y="0"
       width="1.5875"
       height="20.1864"
       style="fill:#ffffff;fill-opacity:1"/>
    <rect
       x="7.4083"
       y="0"
       width="0.5292"
       height="20.1864"
       style="fill:#ffffff;fill-opacity:1"/>
    <rect
       x="8.4666004"
       y="0"
       width="1.5875"
       height="20.1864"
       style="fill:#ffffff;fill-opacity:1"/>
    <rect
       x="10.5833"
       y="0"
       width="1.5875"
       height="20.1864"
       style="fill:#ffffff;fill-opacity:1"/>
    <rect
       x="12.7"
       y="0"
       width="0.5292"
       height="20.1864"
       style="fill:#ffffff;fill-opacity:1"/>
    <rect
       x="14.8166"
       y="0"
       width="0.5292"
       height="20.1864"
       style="fill:#ffffff;fill-opacity:1"/>
    <rect
       x="15.875"
       y="0"
       width="0.5292"
       height="20.1864"
       style="fill:#ffffff;fill-opacity:1"/>
    <rect
       x="16.9333"
       y="0"
       width="1.5875"
       height="20.1864"
       style="fill:#ffffff;fill-opacity:1"/>
    <rect
       x="19.05"
       y="0"
       width="0.5292"
       height="20.1864"
       style="fill:#ffffff;fill-opacity:1"/>
    <rect
       x="20.1083"
       y="0"
       width="1.5875"
       height="20.1864"
       style="fill:#ffffff;fill-opacity:1"/>
    <rect
       x="22.2249"
       y="0"
       width="0.5292"
       height="20.1864"
       style="fill:#ffffff;fill-opacity:1"/>
    <rect
       x="24.3416"
       y="0"
       width="0.5292"
       height="20.1864"
       style="fill:#ffffff;fill-opacity:1"/>
    <rect
       x="25.4"
       y="0"
       width="0.5292"
       height="20.1864"
       style="fill:#ffffff;fill-opacity:1"/>
    <rect
       x="26.4583"
       y="0"
       width="0.5292"
       height="20.1864"
       style="fill:#ffffff;fill-opacity:1"/>
    <rect
       x="27.5166"
       y="0"
       width="1.5875"
       height="20.1864"
       style="fill:#ffffff;fill-opacity:1"/>
    <rect
       x="30.691601"
       y="0"
       width="0.5292"
       height="20.1864"
       style="fill:#ffffff;fill-opacity:1"/>
    <rect
       x="31.7499"
       y="0"
       width="1.5875"
       height="20.1864"
       style="fill:#ffffff;fill-opacity:1"/>
    <rect
       x="33.8666"
       y="0"
       width="1.5875"
       height="20.1864"
       style="fill:#ffffff;fill-opacity:1"/>
    <rect
       x="35.9832"
       y="0"
       width="0.5292"
       height="20.1864"
       style="fill:#ffffff;fill-opacity:1"/>
    <rect
       x="37.0416"
       y="0"
       width="1.5875"
       height="20.1864"
       style="fill:#ffffff;fill-opacity:1"/>
    <rect
       x="40.2166"
       y="0"
       width="0.5292"
       height="20.1864"
       style="fill:#ffffff;fill-opacity:1"/>
    <rect
       x="41.2749"
       y="0"
       width="0.5292"
       height="20.1864"
       style="fill:#ffffff;fill-opacity:1"/>
    <rect
       x="42.3332"
       y="0"
       width="1.5875"
       height="20.1864"
       style="fill:#ffffff;fill-opacity:1"/>
    <rect
       x="44.4499"
       y="0"
       width="1.5875"
       height="20.1864"
       style="fill:#ffffff;fill-opacity:1"/>
    <rect
       x="47.624901"
       y="0"
       width="0.5292"
       height="20.1864"
       style="fill:#ffffff;fill-opacity:1"/>
    <rect
       x="48.683201"
       y="0"
       width="0.5292"
       height="20.1864"
       style="fill:#ffffff;fill-opacity:1"/>
    <rect
       x="49.741501"
       y="0"
       width="0.5292"
       height="20.1864"
       style="fill:#ffffff;fill-opacity:1"/>
    <rect
       x="50.8"
       y="0"
       width="0.5292"
       height="20.1864"
       style="fill:#ffffff;fill-opacity:1"/>
    <rect
       x="51.8582"
       y="0"
       width="1.5875"
       height="20.1864"
       style="fill:#ffffff;fill-opacity:1"/>
    <rect
       x="55.0332"
       y="0"
       width="0.5292"
       height="20.1864"
       style="fill:#ffffff;fill-opacity:1"/>
    <rect
       x="56.0915"
       y="0"
       width="1.5875"
       height="20.1864"
       style="fill:#ffffff;fill-opacity:1"/>
    <rect
       x="58.2082"
       y="0"
       width="0.5292"
       height="20.1864"
       style="fill:#ffffff;fill-opacity:1"/>
    <rect
       x="59.2665"
       y="0"
       width="0.5292"
       height="20.1864"
       style="fill:#ffffff;fill-opacity:1"/>
    <rect
       x="61.3832"
       y="0"
       width="0.5292"
       height="20.1864"
       style="fill:#ffffff;fill-opacity:1"/>
    <rect
       x="62.4415"
       y="0"
       width="1.5875"
       height="20.1864"
       style="fill:#ffffff;fill-opacity:1"/>
    <rect
       x="64.558197"
       y="0"
       width="1.5875"
       height="20.1864"
       style="fill:#ffffff;fill-opacity:1"/>
    <rect
       x="66.674797"
       y="0"
       width="0.5292"
       height="20.1864"
       style="fill:#ffffff;fill-opacity:1"/>
  </g>
</svg>
