<?xml version="1.0" encoding="utf-8" standalone="no"?>
<svg version="1.0" width="226" height="100" xmlns="http://www.w3.org/2000/svg">
  <rect style="fill:none;opacity:0" width="226" height="100"/>
  <g style="fill:#ffffff">
    <path d="M 16.85,-0 V 90.92 h 2.2 V -0 Z m 4.4,0 V 90.92 h 2.2 V -0 Z m 6.78,0 V 79.68 h 2.03 V -0 Z m 6.61,0 V 79.68 H 38.87 V -0 Z m 6.44,0 V 79.68 h 8.8 V -0 Z m 11,0 V 79.68 h 2.2 V -0 Z m 6.61,0 V 79.68 h 6.61 V -0 Z m 8.81,0 V 79.68 h 2.2 V -0 Z m 4.4,0 V 79.68 h 4.4 V -0 Z m 11,0 V 79.68 h 2.2 V -0 Z m 11.01,0 V 79.68 h 2.2 V -0 Z m 4.4,0 V 79.68 H 100.51 V -0 Z m 6.78,0 V 79.68 h 2.03 V -0 Z m 8.8,0 V 79.68 h 2.03 V -0 Z m 4.23,0 V 90.92 h 2.2 V -0 Z m 4.4,0 V 90.92 h 2.2 V -0 Z m 4.4,0 V 79.68 h 2.03 V -0 Z m 6.61,0 V 79.68 h 2.03 V -0 Z m 8.81,0 V 79.68 h 4.57 V -0 Z m 8.8,0 V 79.68 h 4.58 V -0 Z m 6.61,0 V 79.68 h 4.57 V -0 Z m 6.61,0 V 79.68 h 4.57 V -0 Z m 8.81,0 V 79.68 h 2.2 V -0 Z m 11,0 V 79.68 h 2.2 V -0 Z m 4.4,0 V 79.68 h 2.2 V -0 Z m 4.4,0 V 79.68 h 6.61 V -0 Z m 11.01,0 V 79.68 h 4.57 V -0 Z m 6.61,0 V 79.68 h 4.57 V -0 Z m 8.8,0 V 90.92 h 2.2 V -0 Z m 4.4,0 V 90.92 H 226 V -0 z"/>
    <path d="M 0,99.78 V 98.12 H 4.12 V 86.33 L 0.47,88.8 V 86.95 L 4.29,84.46 h 1.9 v 13.66 h 3.93 v 1.66 z"/>
    <path d="M 32.8,99.78 V 98.4 c 0.4,-0.85 0.86,-1.6 1.42,-2.24 1.9,-2.2 3.7,-3.12 5.26,-4.58 0.97,-0.85 1.51,-1.82 1.64,-3.09 0,-1.7 -1.11,-2.66 -2.95,-2.66 -1.55,0 -2.96,0.79 -3.18,2.6 l -2.11,-0.18 c 0.3,-2.37 2.21,-4.03 5.29,-4.02 1.66,0 5.07,0.46 5.07,4.2 0,1.4 -0.84,2.63 -1.71,3.53 -1.44,1.49 -3.9,3.04 -5.35,4.58 -0.52,0.55 -0.89,1.07 -1.12,1.58 h 8.43 v 1.66 z"/>
    <path d="m 51.22,100 c -2.66,0 -5.23,-0.94 -5.65,-4.15 l 2.13,-0.18 c 0.27,1.81 1.45,2.72 3.52,2.72 1.62,0 3.32,-0.63 3.34,-2.9 0,-2.4 -2.75,-2.66 -3.94,-2.66 h -1.17 v -1.7 h 1.12 c 1,0 3.57,-0.23 3.57,-2.65 0,-1.12 -0.54,-2.66 -3.03,-2.66 -1.67,0 -3,0.78 -3.18,2.53 l -2.08,-0.15 c 0.32,-2.6 2.4,-4 5.3,-4 1.36,0 5.12,0.34 5.12,4.06 0,1.43 -0.64,3.08 -3.38,3.63 v 0.04 c 2.6,0.26 3.83,1.78 3.83,3.6 -0.05,3.24 -2.52,4.47 -5.5,4.47 z"/>
    <path d="m 67.83,96.31 v 3.47 h -1.95 v -3.47 h -7.61 v -1.52 l 7.4,-10.33 h 2.17 v 10.31 h 2.27 v 1.54 z m -1.95,-9.65 -5.71,8.1 h 5.71 z"/>
    <path d="m 82.86,94.8 c 0,3.11 -2,5.2 -5.73,5.2 -3.06,0 -4.93,-1.33 -5.4,-3.65 l 2.09,-0.23 c 0.43,1.51 1.55,2.27 3.36,2.27 2.3,0 3.54,-1.42 3.54,-3.57 0,-1.83 -1.24,-3.23 -3.5,-3.23 -1.42,0 -2.31,0.53 -3,1.1 H 72.2 l 0.54,-8.25 h 9.18 v 1.67 h -7.3 l -0.31,4.86 c 0.9,-0.65 2.01,-0.98 3.34,-0.98 3.37,0 5.22,2.1 5.22,4.8 z"/>
    <path d="m 95.88,94.77 c 0,3.21 -1.91,5.23 -5.22,5.23 -5.5,0 -5.61,-5.94 -5.61,-7.53 0,-2.65 0.5,-4.69 1.5,-6.11 1,-1.42 2.43,-2.13 4.28,-2.13 2.44,0 3.98,1.04 4.61,3.12 l -1.97,0.34 c -0.41,-1.25 -1.3,-1.87 -2.66,-1.87 -1.18,0 -2.1,0.52 -2.74,1.57 -0.64,1.04 -0.96,2.54 -0.96,4.51 0.84,-1.5 2.43,-2.02 3.92,-2.02 3.08,0 4.86,2 4.86,4.9 z m -2.1,0.1 c 0,-2.28 -1.25,-3.47 -3.26,-3.47 -1.66,0 -3.22,0.88 -3.22,3 0,2.42 1.4,4.03 3.3,4.03 2.03,0 3.2,-1.39 3.19,-3.57 z"/>
    <path d="m 108.79,86.04 q -2.48,3.59 -3.5,5.62 -1.02,2.03 -1.54,4.01 -0.5,1.98 -0.5,4.1 h -2.16 q 0,-2.94 1.31,-6.18 1.32,-3.25 4.39,-7.48 h -8.68 v -1.66 h 10.68 z"/>
    <path d="m 144.96,95.5 c 0,4.08 -3.91,4.5 -5.54,4.5 -2.95,0 -5.52,-1.22 -5.52,-4.47 0,-2.19 1.53,-3.49 3.23,-3.76 0,-0.05 -2.85,-0.58 -2.85,-3.61 0,-2.25 1.91,-3.94 5.12,-3.94 3.34,0 5.16,1.66 5.16,3.95 0,3.01 -2.87,3.55 -2.87,3.57 2.15,0.33 3.27,1.84 3.27,3.76 z m -2.59,-7.21 c 0,-1.73 -1,-2.6 -3,-2.6 -1.53,0 -2.98,0.54 -2.98,2.6 0,1.83 1.16,2.65 3,2.81 1.1,0 2.98,-0.13 2.98,-2.81 z m -2.9,4.17 c -0.85,0 -3.33,0.23 -3.33,2.91 0,2.11 1.14,3.17 3.41,3.17 2.34,0 3.34,-1.07 3.34,-3.21 0.02,-0.32 0.06,-2.87 -3.42,-2.87 z"/>
    <path d="m 147.73,99.78 v -1.66 h 4.12 V 86.33 l -3.65,2.47 v -1.85 l 3.82,-2.5 h 1.9 v 13.66 h 3.93 v 1.66 z"/>
    <path d="m 160.18,99.78 v -1.38 c 0.39,-0.85 0.86,-1.6 1.42,-2.24 1.89,-2.18 3.62,-3.07 5.26,-4.58 0.97,-0.85 1.51,-1.82 1.64,-3.09 0,-1.72 -1.14,-2.65 -2.95,-2.65 -1.57,0 -2.96,0.78 -3.18,2.6 l -2.11,-0.18 c 0.3,-2.4 2.23,-4.01 5.3,-4.01 1.7,0 5.07,0.47 5.07,4.2 0,1.35 -0.77,2.57 -1.71,3.54 -1.43,1.49 -3.88,3.03 -5.34,4.58 -0.52,0.54 -0.9,1.07 -1.12,1.58 h 8.43 v 1.66 z"/>
    <path d="m 184.09,95.55 c 0,3.95 -3.64,4.45 -5.48,4.45 -2.18,0 -5.18,-0.64 -5.65,-4.16 l 2.13,-0.18 c 0.28,1.81 1.45,2.72 3.52,2.72 1.52,0 3.34,-0.57 3.34,-2.9 0,-2.4 -2.72,-2.65 -3.94,-2.65 h -1.17 v -1.7 h 1.12 c 2.48,0 3.57,-1.15 3.57,-2.64 0,-1.07 -0.49,-2.65 -3.03,-2.65 -1.73,0 -3,0.83 -3.19,2.53 L 173.23,88.22 c 0.32,-2.63 2.45,-4 5.29,-3.99 1.38,0 5.13,0.34 5.13,4.06 0,1.97 -1.2,3.2 -3.38,3.63 v 0.04 c 2.6,0.27 3.83,1.78 3.83,3.6 z"/>
    <path d="m 195.22,96.31 v 3.47 h -1.95 v -3.47 h -7.61 v -1.52 l 7.4,-10.33 h 2.17 v 10.31 h 2.27 v 1.54 z m -1.95,-9.65 -5.71,8.1 h 5.71 z"/>
    <path d="m 199.36,99.78 v -1.38 c 0.39,-0.85 0.86,-1.6 1.42,-2.24 1.89,-2.18 3.62,-3.07 5.26,-4.58 0.97,-0.85 1.51,-1.82 1.64,-3.09 0,-1.72 -1.14,-2.65 -2.95,-2.65 -1.57,0 -2.96,0.78 -3.18,2.6 l -2.11,-0.18 c 0.3,-2.4 2.23,-4.01 5.29,-4.01 1.7,0 5.07,0.47 5.07,4.2 0,1.35 -0.77,2.57 -1.71,3.54 -1.43,1.49 -3.88,3.03 -5.34,4.58 -0.52,0.54 -0.9,1.07 -1.12,1.58 h 8.43 v 1.66 z"/>
  </g>
</svg>
