<?xml version="1.0" encoding="UTF-8" standalone="no"?>
<svg
   xmlns:svg="http://www.w3.org/2000/svg"
   xmlns="http://www.w3.org/2000/svg"
   xmlns:sodipodi="http://sodipodi.sourceforge.net/DTD/sodipodi-0.dtd"
   xmlns:inkscape="http://www.inkscape.org/namespaces/inkscape"
   x="0.0000mm"
   y="0.0000mm"
   width="294"
   height="100"
   viewBox="0 0 77.787502 26.458334"
   version="1.1"
   sodipodi:docname="sample-code128.svg"
   style="shape-rendering:crispEdges"
   inkscape:version="0.92.5 (2060ec1f9f, 2020-04-08)">
  <g
     transform="scale(1.3107)"
     style="fill:#ffffff;fill-opacity:1">
    <rect
       x="0"
       y="0"
       width="1.0583"
       height="20.1864"
       style="fill:#ffffff;fill-opacity:1"/>
    <rect
       x="1.5875"
       y="0"
       width="0.5292"
       height="20.1864"
       style="fill:#ffffff;fill-opacity:1"/>
    <rect
       x="3.175"
       y="0"
       width="0.5292"
       height="20.1864"
       style="fill:#ffffff;fill-opacity:1"/>
    <rect
       x="5.8209"
       y="0"
       width="0.5292"
       height="20.1864"
       style="fill:#ffffff;fill-opacity:1"/>
    <rect
       x="7.4084001"
       y="0"
       width="0.5292"
       height="20.1864"
       style="fill:#ffffff;fill-opacity:1"/>
    <rect
       x="10.0542"
       y="0"
       width="1.0583"
       height="20.1864"
       style="fill:#ffffff;fill-opacity:1"/>
    <rect
       x="11.6417"
       y="0"
       width="0.5292"
       height="20.1864"
       style="fill:#ffffff;fill-opacity:1"/>
    <rect
       x="13.2292"
       y="0"
       width="0.5292"
       height="20.1864"
       style="fill:#ffffff;fill-opacity:1"/>
    <rect
       x="14.2876"
       y="0"
       width="1.0583"
       height="20.1864"
       style="fill:#ffffff;fill-opacity:1"/>
    <rect
       x="17.462601"
       y="0"
       width="0.5292"
       height="20.1864"
       style="fill:#ffffff;fill-opacity:1"/>
    <rect
       x="19.0501"
       y="0"
       width="0.5292"
       height="20.1864"
       style="fill:#ffffff;fill-opacity:1"/>
    <rect
       x="20.6376"
       y="0"
       width="2.1167"
       height="20.1864"
       style="fill:#ffffff;fill-opacity:1"/>
    <rect
       x="23.283501"
       y="0"
       width="0.5292"
       height="20.1864"
       style="fill:#ffffff;fill-opacity:1"/>
    <rect
       x="25.9293"
       y="0"
       width="0.5292"
       height="20.1864"
       style="fill:#ffffff;fill-opacity:1"/>
    <rect
       x="26.9877"
       y="0"
       width="1.0583"
       height="20.1864"
       style="fill:#ffffff;fill-opacity:1"/>
    <rect
       x="29.1043"
       y="0"
       width="0.5292"
       height="20.1864"
       style="fill:#ffffff;fill-opacity:1"/>
    <rect
       x="31.221"
       y="0"
       width="2.1166999"
       height="20.1864"
       style="fill:#ffffff;fill-opacity:1"/>
    <rect
       x="33.8669"
       y="0"
       width="0.5292"
       height="20.1864"
       style="fill:#ffffff;fill-opacity:1"/>
    <rect
       x="34.925201"
       y="0"
       width="0.5292"
       height="20.1864"
       style="fill:#ffffff;fill-opacity:1"/>
    <rect
       x="37.571"
       y="0"
       width="0.5292"
       height="20.1864"
       style="fill:#ffffff;fill-opacity:1"/>
    <rect
       x="39.1586"
       y="0"
       width="1.0583"
       height="20.1864"
       style="fill:#ffffff;fill-opacity:1"/>
    <rect
       x="40.7461"
       y="0"
       width="0.5292"
       height="20.1864"
       style="fill:#ffffff;fill-opacity:1"/>
    <rect
       x="41.8044"
       y="0"
       width="1.0583"
       height="20.1864"
       style="fill:#ffffff;fill-opacity:1"/>
    <rect
       x="43.921101"
       y="0"
       width="0.5292"
       height="20.1864"
       style="fill:#ffffff;fill-opacity:1"/>
    <rect
       x="46.566898"
       y="0"
       width="1.0583"
       height="20.1864"
       style="fill:#ffffff;fill-opacity:1"/>
    <rect
       x="49.212799"
       y="0"
       width="0.5292"
       height="20.1864"
       style="fill:#ffffff;fill-opacity:1"/>
    <rect
       x="50.2711"
       y="0"
       width="0.5292"
       height="20.1864"
       style="fill:#ffffff;fill-opacity:1"/>
    <rect
       x="52.3878"
       y="0"
       width="1.0583"
       height="20.1864"
       style="fill:#ffffff;fill-opacity:1"/>
    <rect
       x="55.0336"
       y="0"
       width="1.5875"
       height="20.1864"
       style="fill:#ffffff;fill-opacity:1"/>
    <rect
       x="57.1503"
       y="0"
       width="0.5292"
       height="20.1864"
       style="fill:#ffffff;fill-opacity:1"/>
    <rect
       x="58.2087"
       y="0"
       width="1.0583"
       height="20.1864"
       style="fill:#ffffff;fill-opacity:1"/>
  </g>
</svg>
