<?xml version="1.0" encoding="UTF-8" standalone="no"?>
<svg version="1.0" width="162" height="100" xmlns="http://www.w3.org/2000/svg">
  <rect style="fill:none;opacity:0" width="162" height="100"/>
  <g style="fill:#ffffff">
    <path d="m 14,2.1 v 87.1 h 2 V 2.1 Z m 4,0 v 87.1 h 2 V 2.1 Z m 6.2,0 V 78.4 H 28 V 2.1 Z m 8,0 V 78.4 H 34 V 2.1 Z m 6,0 V 78.4 H 40 V 2.1 Z m 6,0 V 78.4 H 48 V 2.1 Z m 5.8,0 v 76.3 h 8 V 2.1 Z m 10,0 v 76.3 h 2 V 2.1 Z m 4,0 v 76.3 h 2 V 2.1 Z m 8,0 v 76.3 h 4 V 2.1 Z m 6,0 v 87.1 h 2 V 2.1 Z m 4,0 v 87.1 h 2 V 2.1 Z m 4,0 v 76.3 h 2 V 2.1 Z m 6,0 v 76.3 h 6 V 2.1 Z m 8,0 v 76.3 h 2 V 2.1 Z m 4,0 v 76.3 h 2 V 2.1 Z m 10,0 v 76.3 h 1.8 V 2.1 Z m 8,0 v 76.3 h 1.8 V 2.1 Z m 6,0 v 76.3 h 6 V 2.1 Z m 10,0 v 76.3 h 2 V 2.1 Z m 4,0 v 87.1 h 2 V 2.1 Z m 4,0 v 87.1 h 2 V 2.1 z"/>
    <path d="m 26.9,97.67 v -1.6 h 3.74 V 84.8 l -3.31,2.36 v -1.77 l 3.47,-2.4 h 1.73 v 13.08 h 3.57 v 1.6 z"/>
    <path d="M 38.21,97.67 V 96.35 q 0.53,-1.22 1.29,-2.15 0.77,-0.94 1.61,-1.7 0.84,-0.76 1.67,-1.41 0.83,-0.65 1.5,-1.29 0.67,-0.65 1.07,-1.35 0.42,-0.71 0.42,-1.6 0,-1.21 -0.71,-1.87 -0.71,-0.67 -1.97,-0.67 -1.2,0 -1.98,0.66 -0.77,0.65 -0.91,1.82 L 38.3,86.62 q 0.21,-1.76 1.5,-2.8 1.3,-1.04 3.31,-1.04 2.22,0 3.41,1.05 1.2,1.04 1.2,2.97 0,0.85 -0.4,1.7 -0.4,0.84 -1.16,1.7 -0.77,0.84 -2.95,2.61 -1.2,0.98 -1.91,1.77 -0.71,0.78 -1.02,1.51 h 7.66 v 1.6 z"/>
    <path d="m 59.93,93.62 q 0,2.03 -1.3,3.15 -1.29,1.11 -3.7,1.11 -2.23,0 -3.56,-1 -1.32,-1.01 -1.57,-2.98 l 1.94,-0.18 q 0.38,2.6 3.2,2.6 1.42,0 2.22,-0.7 0.81,-0.7 0.81,-2.07 0,-1.2 -0.93,-1.86 -0.92,-0.68 -2.66,-0.68 h -1.06 v -1.62 h 1.02 q 1.54,0 2.4,-0.67 0.85,-0.68 0.85,-1.86 0,-1.18 -0.7,-1.85 -0.7,-0.69 -2.05,-0.7 -1.24,0 -2.01,0.64 -0.76,0.64 -0.89,1.8 L 50.06,86.6 q 0.21,-1.8 1.5,-2.81 1.3,-1.01 3.31,-1.01 2.21,0 3.43,1.03 1.23,1.02 1.23,2.85 0,1.41 -0.8,2.3 -0.78,0.87 -2.28,1.2 v 0.04 q 1.65,0.18 2.56,1.1 0.92,0.93 0.92,2.33 z"/>
    <path d="m 70.04,94.35 v 3.32 h -1.77 v -3.32 h -6.92 v -1.46 l 6.72,-9.9 h 1.97 v 9.87 h 2.06 v 1.48 z m -1.77,-9.24 -5.19,7.76 h 5.2 z"/>
    <path d="m 100.24,92.9 q 0,2.32 -1.4,3.66 -1.37,1.33 -3.82,1.33 -2.05,0 -3.31,-0.9 -1.26,-0.9 -1.59,-2.6 l 1.9,-0.22 q 0.6,2.18 3.05,2.18 1.51,0 2.36,-0.91 0.85,-0.92 0.85,-2.51 0,-1.4 -0.86,-2.24 -0.85,-0.85 -2.31,-0.85 -0.76,0 -1.42,0.24 -0.66,0.24 -1.31,0.81 h -1.83 l 0.5,-7.9 h 8.34 v 1.6 h -6.64 l -0.28,4.66 q 1.22,-0.94 3.03,-0.94 2.17,0 3.45,1.27 1.3,1.27 1.3,3.31 z"/>
    <path d="m 112.06,92.87 q 0,2.32 -1.26,3.67 -1.26,1.34 -3.48,1.34 -2.48,0 -3.8,-1.84 -1.31,-1.84 -1.31,-5.36 0,-3.81 1.36,-5.85 1.36,-2.04 3.9,-2.04 3.32,0 4.19,3 l -1.79,0.32 q -0.55,-1.8 -2.42,-1.79 -1.6,0 -2.5,1.5 -0.87,1.5 -0.87,4.32 0.51,-0.95 1.44,-1.44 0.93,-0.5 2.12,-0.5 2.03,0 3.22,1.27 1.2,1.27 1.2,3.42 z m -1.91,0.08 q 0,-1.59 -0.78,-2.46 -0.78,-0.86 -2.18,-0.86 -1.31,0 -2.12,0.77 -0.8,0.76 -0.8,2.1 0,1.7 0.83,2.78 0.84,1.08 2.16,1.08 1.35,0 2.12,-0.91 0.77,-0.92 0.77,-2.51 z"/>
    <path d="m 123.8,84.52 q -2.25,3.44 -3.18,5.4 -0.93,1.95 -1.4,3.84 -0.46,1.9 -0.46,3.93 h -1.96 q 0,-2.81 1.19,-5.92 1.2,-3.11 4,-7.17 h -7.9 v -1.6 h 9.7 z"/>
    <path d="m 135.9,90.33 q 0,3.68 -1.3,5.61 -1.29,1.94 -3.82,1.94 -2.53,0 -3.8,-1.93 -1.27,-1.93 -1.27,-5.62 0,-3.78 1.23,-5.67 1.24,-1.89 3.91,-1.9 2.59,0 3.82,1.91 1.24,1.91 1.24,5.65 z m -1.91,0 q 0,-3.18 -0.74,-4.6 -0.73,-1.43 -2.42,-1.43 -1.73,0 -2.5,1.41 -0.75,1.41 -0.75,4.62 0,3.12 0.76,4.57 0.77,1.45 2.44,1.45 1.66,0 2.43,-1.48 0.77,-1.48 0.77,-4.54 z"/>
  </g>
</svg>
